<svg xmlns="http://www.w3.org/2000/svg" viewBox="0 0 325.55 168.16"><defs><style>.cls-1{fill:#fff;}</style></defs><g id="Layer_2" data-name="Layer 2"><g id="Layer_1-2" data-name="Layer 1"><path class="cls-1" d="M3,30.31a17.7,17.7,0,0,1-3-9.95,17.78,17.78,0,0,1,3-9.94,21.47,21.47,0,0,1,7.92-7.16,22.85,22.85,0,0,1,11-2.69h15.3V8.5H21.92a13.84,13.84,0,0,0-6.62,1.59,12.74,12.74,0,0,0-4.75,4.3,11,11,0,0,0,0,12,12.88,12.88,0,0,0,4.75,4.29,13.84,13.84,0,0,0,6.62,1.59h6.57V23.34h-11l3.3-7.91h16.4V40.15H21.92a23.06,23.06,0,0,1-11-2.67A21.76,21.76,0,0,1,3,30.31Z"/><polygon class="cls-1" points="246.41 40.15 255.17 40.15 255.17 25.43 272.25 0.57 261.96 0.57 250.8 16.82 239.62 0.57 229.31 0.57 246.41 25.43 246.41 40.15"/><polygon class="cls-1" points="196.18 40.15 204.56 27.89 212.93 40.15 223.2 40.15 209.7 20.36 223.2 0.57 212.93 0.57 204.56 12.83 196.18 0.57 185.89 0.57 199.4 20.36 185.89 40.15 196.18 40.15"/><polygon class="cls-1" points="159.47 17.02 168.34 32.22 158.75 32.22 154.25 40.15 182.83 40.15 159.47 0 136.13 40.15 146.03 40.15 159.47 17.02"/><polygon class="cls-1" points="130.02 32.22 104.92 32.22 104.92 0.57 96.15 0.57 96.15 40.15 130.02 40.15 130.02 32.22"/><polygon class="cls-1" points="66.69 17.02 75.56 32.22 65.96 32.22 61.47 40.15 90.04 40.15 66.69 0 43.35 40.15 53.24 40.15 66.69 17.02"/><polygon class="cls-1" points="325.55 145.74 256.3 145.74 256.3 56.13 232.08 56.13 232.08 168.16 325.55 168.16 325.55 145.74"/><path class="cls-1" d="M160,83.08a37.29,37.29,0,0,1,18.26-4.53H214.5V56.13H178.23a61.81,61.81,0,0,0-30.41,7.58A60.23,60.23,0,0,0,125.93,84a52.56,52.56,0,0,0,0,56.29,60.35,60.35,0,0,0,21.89,20.28,61.81,61.81,0,0,0,30.41,7.58H214.5V145.74H178.23A37.29,37.29,0,0,1,160,141.21a35.94,35.94,0,0,1-13.12-12.15,31.63,31.63,0,0,1,0-33.79A35.71,35.71,0,0,1,160,83.08Z"/><path class="cls-1" d="M26,118.23a2.2,2.2,0,0,1-.38.36c-6.28,4.08-7.83,6-8.19,6.71a7.08,7.08,0,0,0,1.79.15,43.44,43.44,0,0,0,7.48-.87V121.3A17.87,17.87,0,0,1,26,118.23Zm-.38.36c-6.28,4.08-7.83,6-8.19,6.71a7.08,7.08,0,0,0,1.79.15,43.44,43.44,0,0,0,7.48-.87V121.3a17.87,17.87,0,0,1-.7-3.07A2.2,2.2,0,0,1,25.58,118.59ZM96.41,84a59.86,59.86,0,0,0-21.9-20.3,61.71,61.71,0,0,0-30.4-7.57H2.45v112H44.11a61.7,61.7,0,0,0,30.4-7.56,60.31,60.31,0,0,0,21.9-20.28,52.47,52.47,0,0,0,0-56.3Zm-16,27.13c0,.33,0,.67,0,1a30.83,30.83,0,0,1-4.89,16.92A35.82,35.82,0,0,1,62.38,141.2a37.14,37.14,0,0,1-18.27,4.54H26.66V130.43C20,132,14.31,132.9,10.59,132.9c-2.2,0-5.21-.24-6-2.44-.47-1.37-1.75-5,19.41-14.7,0,0,1.9-.88,1.72-.81a14.25,14.25,0,0,1,.91-5.56V78.56H44.11a37.14,37.14,0,0,1,18.27,4.53A35.39,35.39,0,0,1,75.5,95.28a29.76,29.76,0,0,1,1.66,3A56.73,56.73,0,0,1,87.48,97c2.2,0,5.21.25,6,2.43C94.57,102.68,88.36,107,80.37,111.14Zm-54.79,7.45c-6.28,4.08-7.83,6-8.19,6.71a7.08,7.08,0,0,0,1.79.15,43.44,43.44,0,0,0,7.48-.87V121.3a17.87,17.87,0,0,1-.7-3.07A2.2,2.2,0,0,1,25.58,118.59Z"/><path class="cls-1" d="M39.4,128.25a18.22,18.22,0,0,0,8.21,3.89,18.73,18.73,0,0,1-9.93-3.39c-1.2.35-2.39.69-3.55,1a22,22,0,0,0,21.32,3.55,21.94,21.94,0,0,0,14.47-16.06c-5.31,2.29-11.3,4.62-17.69,6.85C47.8,125.65,43.49,127,39.4,128.25Z"/><path class="cls-1" d="M69.51,101.57c8-.8,12-.16,12.49,1.29.58,1.65-4.1,4.93-11.79,8.66a19,19,0,0,0-.94-4.27c-3.65-10.44-15.75-15.72-27-11.78s-17.47,15.61-13.82,26.06a19,19,0,0,0,1.91,3.92c-8.34,1.87-14,2.22-14.61.57-.51-1.45,1.77-4.11,9-8.8-11.88,5.44-19.35,10.36-18.53,12.71,1.25,3.6,21.47-.19,45.15-8.47S93.18,103.57,91.92,100C91.1,97.62,82.19,98.42,69.51,101.57ZM41.9,100.35c-8.26,5.53-10.81,15.85-6.12,23.66l-2.22.58c-5.49-7.9-3.07-18.84,5.52-24.59a20.34,20.34,0,0,1,15.19-3.08A20.5,20.5,0,0,0,41.9,100.35Z"/></g></g></svg>