<?xml version="1.0" standalone="no"?>
<!DOCTYPE svg PUBLIC "-//W3C//DTD SVG 20010904//EN"
 "http://www.w3.org/TR/2001/REC-SVG-20010904/DTD/svg10.dtd">
<svg version="1.0" xmlns="http://www.w3.org/2000/svg"
 width="260.000000pt" height="260.000000pt" viewBox="0 0 260.000000 260.000000"
 preserveAspectRatio="xMidYMid meet">
<metadata>
Created by potrace 1.11, written by Peter Selinger 2001-2013
</metadata>
<g transform="translate(0.000000,260.000000) scale(0.100000,-0.100000)"
fill="#000000" stroke="none">
<path d="M1110 2591 c0 -7 -6 -11 -14 -8 -7 3 -19 0 -25 -6 -8 -8 -11 -8 -11
2 0 10 -4 10 -12 3 -7 -6 -29 -12 -48 -14 -19 -3 -42 -7 -50 -10 -8 -3 -41
-13 -73 -22 -31 -9 -74 -24 -95 -33 -20 -8 -39 -14 -41 -13 -2 1 -7 -2 -10 -7
-6 -8 -72 -46 -118 -67 -13 -6 -23 -14 -23 -18 0 -5 -5 -8 -11 -8 -11 0 -90
-65 -168 -137 -25 -24 -43 -43 -39 -43 3 0 -14 -20 -38 -45 -24 -24 -44 -48
-44 -52 0 -4 -10 -20 -23 -35 -23 -28 -76 -113 -78 -126 0 -4 -7 -14 -14 -22
-7 -8 -15 -22 -17 -30 -2 -8 -7 -18 -13 -22 -5 -4 -10 -11 -11 -15 0 -4 -10
-31 -23 -60 -13 -29 -22 -55 -21 -59 1 -4 -4 -10 -11 -14 -10 -7 -9 -11 2 -22
15 -15 61 -20 53 -6 -3 4 0 8 5 8 6 0 11 -4 11 -9 0 -5 16 -8 36 -7 20 1 37
-1 40 -5 2 -3 16 -5 31 -3 15 1 32 0 38 -4 5 -3 19 -8 30 -9 37 -5 100 -18
110 -23 3 -1 14 -3 24 -4 11 0 23 -4 27 -8 4 -5 18 -8 31 -8 12 0 23 -4 23 -9
0 -4 12 -7 27 -7 16 1 36 -5 46 -13 9 -8 17 -11 17 -8 0 3 15 0 34 -8 18 -8
36 -11 40 -8 3 4 6 0 6 -7 0 -7 3 -10 7 -7 3 4 11 3 17 -2 15 -13 87 -25 84
-15 -1 5 1 29 5 54 5 25 7 45 5 46 -2 0 2 7 9 15 6 8 14 26 17 41 2 14 9 36
16 47 6 12 8 26 5 31 -3 6 -2 10 3 10 9 0 27 47 24 63 -1 4 3 7 9 7 5 0 7 5 4
10 -3 6 -1 10 4 10 6 0 11 9 11 20 0 11 5 20 10 20 6 0 9 3 8 8 -1 4 6 22 15
40 10 17 15 32 12 32 -3 0 4 9 15 20 11 11 20 27 20 35 0 8 5 15 11 15 5 0 7
5 4 10 -3 6 -2 10 3 10 4 0 18 17 30 38 11 20 32 49 47 64 14 15 25 30 25 32
0 3 10 18 23 32 33 39 137 143 137 137 0 -2 14 9 30 26 42 41 86 72 94 64 3
-3 6 1 6 11 0 9 5 14 10 11 6 -3 13 0 16 8 5 13 38 30 56 28 3 0 9 6 12 14 4
11 -2 15 -19 15 -14 0 -25 4 -25 8 0 5 -13 7 -30 6 -17 -1 -30 3 -30 9 0 8 -3
8 -8 2 -8 -11 -44 -17 -38 -6 6 10 -157 7 -173 -3 -9 -6 -12 -5 -8 1 4 6 -6
10 -23 9 -17 -1 -30 -5 -30 -11 0 -5 -5 -3 -10 5 -7 12 -10 12 -10 1z"/>
<path d="M1670 2511 c0 -6 -4 -10 -9 -8 -5 1 -32 -19 -60 -46 -28 -26 -51 -44
-51 -40 -1 5 -7 -3 -15 -17 -7 -14 -16 -24 -19 -23 -3 2 -36 -30 -73 -69 -38
-40 -83 -87 -102 -105 -19 -18 -31 -33 -28 -33 4 0 -8 -16 -26 -35 -46 -49
-59 -65 -52 -65 3 0 -3 -9 -12 -19 -33 -37 -43 -50 -43 -61 0 -5 -4 -10 -8
-10 -9 0 -57 -91 -54 -102 1 -5 -2 -8 -6 -8 -10 0 -57 -107 -54 -122 1 -5 -3
-8 -10 -8 -6 0 -8 -3 -5 -6 3 -4 2 -15 -3 -25 -6 -10 -11 -29 -12 -43 -1 -15
-5 -26 -9 -26 -3 0 -6 -6 -6 -12 -3 -45 -12 -98 -18 -109 -6 -8 -4 -10 5 -4 9
6 11 4 5 -5 -9 -14 -14 -90 -6 -90 4 0 6 -19 6 -42 0 -24 2 -47 4 -53 3 -5 5
-21 6 -35 1 -14 5 -33 9 -42 4 -9 5 -22 1 -28 -3 -5 -1 -10 5 -10 6 0 8 -5 4
-12 -7 -12 13 1 42 27 43 39 64 54 64 47 0 -4 6 0 13 9 7 8 19 18 27 22 8 4
33 18 55 32 52 32 195 105 195 100 0 -3 18 4 39 16 22 11 49 21 60 22 12 1 21
5 21 10 0 4 4 6 9 2 5 -3 12 -1 16 5 4 6 11 8 16 4 5 -3 16 0 24 6 8 6 24 13
37 15 13 2 33 6 46 9 12 3 32 9 45 12 12 3 33 7 47 9 14 2 25 4 25 5 0 3 58 9
112 12 29 2 53 5 53 8 0 6 311 3 360 -3 19 -3 60 -8 90 -12 30 -4 58 -9 61
-11 9 -5 2 63 -8 79 -8 14 -14 34 -16 59 -1 9 -6 14 -11 11 -5 -4 -7 1 -3 9 3
9 0 24 -7 34 -7 11 -18 38 -26 62 -7 23 -19 47 -26 53 -7 6 -10 17 -7 25 3 8
0 14 -6 14 -6 0 -11 9 -11 20 0 11 -4 20 -9 20 -5 0 -15 15 -22 33 -15 37 -69
120 -81 125 -4 2 -8 10 -8 17 0 8 -8 19 -17 24 -10 6 -14 11 -9 11 5 0 -5 14
-23 30 -17 17 -31 32 -31 35 0 8 -100 104 -138 133 -21 15 -39 29 -42 32 -12
14 -116 73 -127 73 -7 0 -13 5 -13 10 0 6 -3 8 -6 4 -4 -3 -13 1 -21 9 -8 8
-18 12 -23 9 -5 -3 -11 -1 -15 5 -3 5 -15 10 -26 10 -10 0 -19 4 -19 8 0 4 -8
8 -17 8 -10 1 -26 4 -35 9 -11 4 -18 3 -18 -4z"/>
<path d="M1967 1384 c-3 -4 -26 -9 -49 -11 -24 -3 -46 -10 -50 -17 -6 -8 -8
-7 -8 2 0 9 -6 10 -17 4 -10 -4 -28 -7 -40 -6 -13 0 -23 -2 -23 -5 0 -4 -8 -7
-17 -7 -17 -1 -32 -4 -93 -19 -14 -3 -29 -7 -35 -8 -5 -2 -15 -6 -21 -9 -6 -4
-22 -9 -36 -12 -14 -2 -34 -9 -44 -15 -29 -16 -119 -52 -120 -49 -1 2 -10 -5
-20 -14 -11 -9 -23 -18 -29 -20 -5 -2 -9 -7 -7 -11 1 -5 -2 -6 -7 -2 -20 12
-251 -185 -251 -215 0 -5 -5 -10 -11 -10 -5 0 -7 -5 -4 -10 3 -6 -1 -13 -9
-16 -9 -3 -16 -12 -16 -20 0 -8 -5 -14 -12 -14 -6 0 -8 -3 -5 -6 4 -4 -2 -19
-12 -33 -20 -29 -65 -138 -59 -144 1 -2 -2 -10 -9 -18 -9 -11 -23 -52 -39
-111 -1 -5 -3 -11 -4 -15 -2 -5 -4 -12 -5 -18 -2 -5 -4 -12 -5 -15 -5 -15 -22
-91 -25 -115 -1 -11 -5 -27 -8 -35 -8 -21 -23 -135 -28 -222 -1 -20 -5 -35 -9
-33 -9 5 -6 -27 3 -42 4 -6 3 -14 -1 -17 -22 -14 -1 -66 26 -61 9 1 23 -2 30
-8 8 -6 12 -5 12 4 0 11 2 11 10 -1 7 -11 10 -11 10 -2 0 8 5 10 12 6 17 -11
197 -14 204 -3 3 5 10 6 17 2 16 -10 57 -10 57 0 0 4 8 3 19 -2 10 -6 22 -7
25 -3 7 6 20 8 99 13 15 1 27 5 27 8 0 3 15 7 33 8 65 4 92 8 97 15 3 4 20 8
38 10 18 1 32 6 32 11 0 5 7 7 15 3 8 -3 21 1 29 9 7 8 16 12 19 9 5 -5 28 4
115 42 29 13 56 24 61 24 5 0 14 7 21 15 7 9 15 13 18 11 2 -3 19 6 37 19 17
14 37 25 43 25 7 0 12 5 12 12 0 6 3 9 6 5 3 -3 17 6 30 20 13 14 24 23 24 19
0 -3 16 8 37 26 69 62 123 119 123 129 0 6 5 7 10 4 6 -3 10 -1 10 5 0 6 9 21
21 33 25 27 107 148 132 197 11 19 26 46 35 60 9 14 17 30 18 35 1 6 8 24 15
40 7 17 13 32 13 35 1 3 5 11 9 18 5 6 6 16 3 21 -4 5 -1 11 4 13 6 2 13 17
16 33 3 16 11 33 17 37 9 6 9 8 -1 8 -8 0 -10 5 -5 13 9 14 15 43 16 75 1 12
4 22 8 22 4 0 6 8 4 18 -1 9 2 23 8 30 6 8 6 12 -2 12 -8 0 -9 6 -3 18 4 9 8
36 8 59 -1 24 3 43 8 43 5 0 3 7 -4 15 -10 12 -10 15 1 15 11 0 11 2 -1 10
-13 9 -13 10 0 10 12 0 12 2 2 9 -8 4 -13 11 -13 15 3 18 -1 22 -21 23 -64 2
-104 7 -115 15 -7 5 -14 5 -18 -2 -3 -6 -11 -7 -17 -4 -18 11 -282 12 -295 1
-9 -6 -13 -6 -13 2 0 8 -5 9 -18 2 -12 -7 -22 -7 -29 0 -5 5 -12 6 -16 3z"/>
</g>
</svg>
