<?xml version="1.0" encoding="utf-8"?>
<!-- Generator: Adobe Illustrator 25.3.1, SVG Export Plug-In . SVG Version: 6.00 Build 0)  -->
<svg version="1.1" id="Layer_1" xmlns="http://www.w3.org/2000/svg" xmlns:xlink="http://www.w3.org/1999/xlink" x="0px" y="0px"
	 viewBox="0 0 252.6 162.1" style="enable-background:new 0 0 252.6 162.1;" xml:space="preserve">
<style type="text/css">
	.st0{fill:#4A0D62;}
	.st1{fill:#4B0D62;}
	.st2{fill:#7CA441;}
	.st3{fill:#007B84;}
</style>
<path class="st0" d="M306.4,470.7c0,0,0.7-36.1,16.7-51.5c23.6-22.7,65-15.1,66.5-15.2c0,0,1.8,16.5-7.8,33.4
	C374.3,450.6,357.2,475.3,306.4,470.7z"/>
<path class="st1" d="M-138.4,404.3c-0.1-1.7-0.1-3.5-0.2-5.3c1,0.1,2.1,0.1,3.1,0.1c1,0,2.1,0.1,3.1,0.1c1,0,2.1,0,3.1-0.1
	c1-0.1,2.1-0.1,3.1-0.1c2.4,0,4.5,0.3,6.2,0.9c1.7,0.6,3.1,1.5,4.2,2.7c1.1,1.2,1.9,2.6,2.4,4.3c0.5,1.7,0.8,3.6,0.8,5.7
	c0,2.8-0.5,5.1-1.4,7c-0.9,1.9-2.2,3.4-3.6,4.6c-1.5,1.2-3.1,2-4.9,2.5c-1.8,0.5-3.5,0.7-5.1,0.7c-0.9,0-1.9,0-2.8,0
	c-0.9,0-1.8,0-2.8,0c-0.9,0-1.9,0-2.8,0c-0.9,0-1.8,0-2.8,0.1c0.1-1.7,0.2-3.4,0.2-5.2c0.1-1.8,0.1-3.5,0.1-5.4v-7.1
	C-138.3,407.9-138.3,406.1-138.4,404.3z M-134.6,425.5c0.6,0.1,1.4,0.2,2.4,0.3c1,0.1,2,0.1,3.1,0.1c1.5,0,3-0.2,4.5-0.5
	c1.5-0.4,2.9-1,4.1-2c1.2-1,2.2-2.3,2.9-4.1c0.8-1.7,1.1-3.9,1.1-6.7c0-2.4-0.3-4.4-0.9-5.9c-0.6-1.5-1.4-2.8-2.4-3.7
	c-1-0.9-2.3-1.5-3.7-1.9c-1.4-0.3-3-0.5-4.7-0.5c-1.2,0-2.4,0-3.5,0.1c-1.1,0.1-2,0.2-2.9,0.3c-0.1,1.3-0.1,2.7-0.2,4.1
	c0,1.4-0.1,2.9-0.1,4.4v7.1C-134.9,419.7-134.8,422.7-134.6,425.5z"/>
<path class="st1" d="M-107.9,412.8c0.6-1.3,1.4-2.4,2.3-3.2c1-0.8,2-1.4,3.2-1.8c1.2-0.4,2.4-0.6,3.6-0.6c1.2,0,2.4,0.2,3.6,0.6
	c1.2,0.4,2.3,1,3.2,1.8c1,0.8,1.7,1.9,2.3,3.2c0.6,1.3,0.9,2.9,0.9,4.8c0,1.9-0.3,3.5-0.9,4.8c-0.6,1.3-1.4,2.4-2.3,3.2
	c-1,0.8-2,1.4-3.2,1.7c-1.2,0.3-2.4,0.5-3.6,0.5c-1.2,0-2.4-0.2-3.6-0.5c-1.2-0.3-2.3-0.9-3.2-1.7c-1-0.8-1.7-1.9-2.3-3.2
	c-0.6-1.3-0.9-2.9-0.9-4.8C-108.8,415.7-108.5,414.1-107.9,412.8z M-104.8,420.9c0.2,1.1,0.6,2,1.1,2.9c0.5,0.8,1.2,1.5,2,2
	c0.8,0.5,1.8,0.7,3.1,0.7c1.2,0,2.2-0.2,3.1-0.7c0.8-0.5,1.5-1.2,2-2c0.5-0.8,0.8-1.8,1.1-2.9c0.2-1.1,0.3-2.2,0.3-3.3
	c0-1.2-0.1-2.3-0.3-3.3c-0.2-1.1-0.6-2-1.1-2.9c-0.5-0.8-1.2-1.5-2-2c-0.8-0.5-1.8-0.7-3.1-0.7c-1.2,0-2.2,0.2-3.1,0.7
	c-0.8,0.5-1.5,1.2-2,2c-0.5,0.8-0.8,1.8-1.1,2.9c-0.2,1.1-0.3,2.2-0.3,3.3C-105.1,418.7-105,419.9-104.8,420.9z"/>
<path class="st1" d="M-84.1,417.4c0-1,0.1-2.1,0.1-3.1c0-1,0-2,0-3.1c0-1.1,0-2.3-0.1-3.4c0.7,0.1,1.3,0.2,1.7,0.2
	c0.4,0,1-0.1,1.7-0.2c-0.1,1.6-0.2,3.5-0.3,5.4c-0.1,2-0.1,4-0.1,6c0,1.4,0.1,2.5,0.4,3.3c0.2,0.8,0.6,1.3,0.9,1.7
	c0.4,0.4,0.9,0.8,1.5,1.1c0.6,0.3,1.3,0.4,2.1,0.4c1.2,0,2.1-0.3,2.9-0.8c0.8-0.5,1.3-1.1,1.7-1.9c0.2-0.5,0.3-0.9,0.5-1.2
	c0.1-0.3,0.2-0.8,0.3-1.3c0.1-0.5,0.1-1.3,0.1-2.2c0-0.9,0-2.2,0-3.8V411c0-0.6,0-1.2,0-1.7c0-0.5,0-1.1-0.1-1.6
	c0.3,0.1,0.6,0.1,0.9,0.1c0.3,0,0.6,0.1,0.9,0.1c0.3,0,0.6,0,0.9-0.1c0.3,0,0.6-0.1,0.8-0.1c-0.1,2.1-0.2,4.2-0.2,6.2
	c0,2,0,4.1,0,6.3c0,1.2,0,2.4,0,3.6c0,1.2,0.1,2.3,0.1,3.4c-0.5-0.1-1.1-0.1-1.6-0.1c-0.5,0-1.1,0-1.6,0.1c0-0.2,0-0.5,0.1-0.8
	c0-0.3,0-0.6,0-0.9v-1.8h-0.1c-0.7,1.3-1.6,2.3-2.8,2.9c-1.1,0.6-2.4,0.9-3.7,0.9c-2.1,0-3.8-0.6-5.1-1.7c-1.2-1.1-1.8-2.8-1.8-4.9
	C-84.1,419.6-84.1,418.4-84.1,417.4z"/>
<path class="st1" d="M-61.6,411c0.4-0.8,1-1.5,1.7-2.1c0.7-0.5,1.6-1,2.5-1.2c0.9-0.3,2-0.4,3-0.4c0.5,0,1,0,1.5,0
	c0.5,0,1.1,0.1,1.8,0.1c0.6,0.1,1.2,0.1,1.7,0.1c0.5,0,0.9,0,1.2,0c1.5,0,2.7-0.1,3.3-0.2c0,0.1,0,0.3-0.1,0.4c0,0.2,0,0.3,0,0.4
	c0,0.1,0,0.3,0,0.4c0,0.2,0,0.3,0.1,0.4c-0.8-0.1-1.6-0.1-2.3-0.2c-0.8-0.1-1.5-0.1-2.2-0.1l-0.1,0.1c0.9,0.5,1.5,1.2,2.1,2.2
	c0.5,1,0.8,2,0.8,3c0,2.1-0.7,3.7-2.1,4.8c-1.4,1.2-3.3,1.8-5.6,1.8c-0.4,0-0.8,0-1.1,0c-0.4,0-0.8,0-1.1,0c-0.5,0-1,0.2-1.4,0.5
	c-0.4,0.4-0.6,0.8-0.6,1.4c0,0.7,0.2,1.2,0.5,1.6c0.3,0.3,1,0.5,1.9,0.5c0.8,0,1.5,0,2.3,0.1c0.7,0,1.5,0,2.3,0.1
	c1.3,0,2.3,0.2,3.2,0.5c0.9,0.3,1.6,0.6,2.2,1.1c0.6,0.5,1,1,1.2,1.6c0.3,0.6,0.4,1.3,0.4,2c0,1-0.2,1.9-0.6,2.9
	c-0.4,1-0.9,1.9-1.7,2.7c-0.8,0.8-1.8,1.5-3,2c-1.2,0.5-2.7,0.8-4.5,0.8c-2.7,0-4.8-0.5-6.3-1.6c-1.5-1.1-2.3-2.5-2.3-4.4
	c0-0.7,0.1-1.4,0.4-2c0.3-0.6,0.6-1.1,1-1.6c0.4-0.5,0.9-0.8,1.4-1.1c0.5-0.3,1.1-0.5,1.6-0.6V427c-0.9-0.2-1.5-0.7-1.9-1.2
	c-0.4-0.6-0.7-1.3-0.7-2.1c0-0.5,0.1-0.9,0.3-1.3c0.2-0.4,0.4-0.7,0.7-1c0.3-0.3,0.6-0.5,0.9-0.7c0.4-0.2,0.7-0.3,1-0.4v-0.1
	c-1.3-0.5-2.3-1.3-3-2.3c-0.7-1-1.1-2.3-1.1-3.8C-62.2,412.9-62,411.9-61.6,411z M-49,428.2c-1-0.7-2.6-1-4.8-1
	c-2.1,0-3.7,0.3-4.8,1c-1.1,0.7-1.7,1.9-1.7,3.7c0,0.9,0.2,1.7,0.5,2.4c0.3,0.7,0.7,1.2,1.3,1.6c0.5,0.4,1.2,0.7,1.9,0.9
	c0.7,0.2,1.5,0.3,2.4,0.3c0.8,0,1.6-0.1,2.4-0.3c0.8-0.2,1.5-0.5,2.1-1c0.6-0.4,1.1-1,1.5-1.7c0.4-0.7,0.6-1.5,0.6-2.4
	C-47.6,430-48.1,428.9-49,428.2z M-51.1,409.9c-0.8-0.9-1.9-1.4-3.3-1.4c-1.5,0-2.6,0.5-3.5,1.5c-0.8,1-1.2,2.3-1.2,4
	c0,1.7,0.4,3.1,1.1,4.1c0.8,1,1.9,1.5,3.5,1.5c0.8,0,1.5-0.2,2-0.5c0.6-0.3,1-0.7,1.4-1.3c0.4-0.5,0.6-1.2,0.8-1.9
	c0.2-0.7,0.3-1.4,0.3-2.2C-49.8,412.1-50.2,410.8-51.1,409.9z"/>
<path class="st1" d="M-39.5,405c0-1.1,0-2.2-0.1-3.3c0-1.1-0.1-3.5-0.1-4.4c0-1-0.1-1.8-0.1-2.5c0.8,0.1,1.4,0.2,1.9,0.2
	s1.1-0.1,1.9-0.2c-0.1,0.7-0.1,1.5-0.1,2.5c0,1-0.1,3.4-0.1,4.4c0,1.1,0,2.2-0.1,3.3c0,1.1,0,2.1,0,3.1v7.5c0,0.9,0,2,0,3.1
	c0,1.1,0,2.2,0.1,3.3c0,1.1,0.1,2.1,0.1,3.1c0,1,0.1,1.8,0.1,2.4c-0.6-0.1-1.3-0.1-1.9-0.1c-0.6,0-1.2,0-1.9,0.1
	c0.1-0.6,0.1-1.4,0.1-2.4c0-1,0.1-2,0.1-3.1c0-1.1,0-2.2,0.1-3.3c0-1.1,0-2.1,0-3.1v-7.5C-39.5,407.2-39.5,406.1-39.5,405z"/>
<path class="st1" d="M-25.3,407.8c1-0.3,2.1-0.5,3.2-0.5c1,0,1.9,0.1,2.7,0.4c0.8,0.3,1.5,0.7,2.1,1.2c0.6,0.5,1,1.2,1.4,1.9
	c0.3,0.8,0.5,1.6,0.5,2.5c0,1.6,0,3.1-0.1,4.7c-0.1,1.6-0.1,3.2-0.1,4.9c0,0.3,0,0.7,0,1.1c0,0.4,0.1,0.7,0.2,1
	c0.1,0.3,0.3,0.5,0.5,0.7c0.2,0.2,0.5,0.3,0.9,0.3c0.1,0,0.3,0,0.4,0c0.1,0,0.3-0.1,0.4-0.1v0.9c-0.3,0.1-0.7,0.2-1.1,0.3
	c-0.5,0.1-1,0.1-1.5,0.1c-0.9,0-1.6-0.2-2.1-0.7c-0.5-0.5-0.8-1-0.8-1.8c-1,1-2,1.7-2.9,2.2s-2.1,0.7-3.5,0.7c-0.7,0-1.4-0.1-2-0.3
	c-0.7-0.2-1.2-0.5-1.7-0.9c-0.5-0.4-0.9-1-1.2-1.6c-0.3-0.6-0.5-1.3-0.5-2.1c0-1.7,0.5-2.9,1.5-3.8c1-0.9,2.4-1.5,4.3-1.8
	c1.5-0.2,2.6-0.5,3.5-0.6c0.8-0.2,1.5-0.4,1.9-0.6c0.4-0.2,0.6-0.4,0.7-0.7c0.1-0.3,0.1-0.6,0.1-1c0-0.7-0.1-1.3-0.2-2
	c-0.2-0.6-0.4-1.2-0.8-1.7c-0.4-0.5-0.8-0.8-1.4-1.1c-0.6-0.3-1.3-0.4-2.1-0.4c-1.1,0-2.1,0.2-3.1,0.7c-1,0.5-1.7,1.2-2.1,2.1h-0.5
	v-2.1C-27.5,408.8-26.3,408.1-25.3,407.8z M-20.1,417.5c-0.6,0.1-1.2,0.2-1.9,0.4c-0.6,0.1-1.3,0.3-1.9,0.5
	c-0.6,0.2-1.2,0.5-1.6,0.8c-0.5,0.3-0.9,0.7-1.1,1.2c-0.3,0.5-0.4,1.1-0.4,1.9c0,1.3,0.4,2.3,1.1,2.9c0.7,0.7,1.6,1,2.5,1
	c1,0,2-0.3,2.9-0.9c0.9-0.6,1.5-1.3,2-2l0.2-6.2C-19,417.2-19.5,417.4-20.1,417.5z"/>
<path class="st1" d="M-8,424.4c0.3,0.3,0.6,0.6,1,0.9c0.4,0.3,0.9,0.5,1.4,0.7c0.5,0.2,1.1,0.3,1.6,0.3c0.5,0,1-0.1,1.5-0.2
	c0.5-0.2,0.9-0.4,1.3-0.7c0.4-0.3,0.7-0.7,0.9-1.2c0.2-0.5,0.3-1,0.3-1.6c0-0.9-0.2-1.5-0.7-2c-0.5-0.5-1.1-0.8-1.8-1.1
	c-0.7-0.3-1.5-0.5-2.4-0.8c-0.9-0.2-1.6-0.5-2.4-0.9c-0.7-0.4-1.3-0.9-1.8-1.6c-0.5-0.7-0.7-1.6-0.7-2.7c0-0.9,0.2-1.7,0.5-2.5
	c0.3-0.8,0.7-1.4,1.3-2c0.6-0.6,1.3-1,2.1-1.3c0.9-0.3,1.8-0.5,2.9-0.5c1,0,1.9,0.1,2.6,0.4c0.7,0.3,1.4,0.5,2,0.7
	c-0.2,0.4-0.4,0.9-0.6,1.5c-0.2,0.6-0.3,1.1-0.4,1.4H0.2c-0.2-0.7-0.6-1.3-1.3-1.8c-0.6-0.5-1.4-0.8-2.4-0.8c-0.4,0-0.8,0.1-1.2,0.2
	c-0.4,0.1-0.8,0.3-1.1,0.6c-0.3,0.3-0.6,0.6-0.8,1.1c-0.2,0.4-0.3,1-0.3,1.6c0,0.9,0.2,1.6,0.7,2c0.5,0.5,1.1,0.9,1.8,1.1
	c0.7,0.3,1.5,0.5,2.4,0.7c0.9,0.2,1.6,0.5,2.4,0.9c0.7,0.4,1.3,0.9,1.8,1.5c0.5,0.7,0.7,1.6,0.7,2.7c0,0.8-0.2,1.6-0.5,2.4
	c-0.3,0.8-0.8,1.5-1.5,2.1c-0.6,0.6-1.4,1.1-2.3,1.4c-0.9,0.3-1.9,0.5-3.1,0.5c-1.3,0-2.3-0.1-3.2-0.4c-0.9-0.2-1.6-0.5-2.1-0.9
	c0.2-0.4,0.3-0.8,0.5-1.5c0.2-0.6,0.3-1.1,0.3-1.5h0.5C-8.5,423.8-8.3,424.1-8,424.4z"/>
<path class="st1" d="M42.4,426.4c-0.5,0.3-1.2,0.5-1.9,0.7c-0.8,0.2-1.6,0.4-2.5,0.6c-0.9,0.2-1.9,0.2-2.9,0.2c-2.2,0-4.2-0.3-6-0.9
	c-1.8-0.6-3.4-1.6-4.8-2.8c-1.3-1.3-2.4-2.8-3.1-4.6c-0.8-1.8-1.1-3.9-1.1-6.3c0-2.3,0.4-4.4,1.1-6.3c0.8-1.8,1.8-3.4,3.2-4.6
	c1.4-1.3,3-2.2,4.9-2.9c1.9-0.7,4-1,6.3-1c1.8,0,3.5,0.2,5,0.6c1.5,0.4,2.8,0.8,4,1.3c-0.2,0.4-0.4,0.9-0.5,1.6
	c-0.1,0.7-0.2,1.2-0.3,1.6l-0.2,0.1c-0.3-0.3-0.7-0.7-1.2-1.1c-0.5-0.4-1.1-0.8-1.7-1.2c-0.7-0.4-1.4-0.7-2.2-1
	c-0.8-0.3-1.7-0.4-2.7-0.4c-1.6,0-3.1,0.3-4.5,0.8c-1.4,0.5-2.6,1.3-3.6,2.4c-1,1.1-1.8,2.5-2.4,4.1c-0.6,1.7-0.9,3.6-0.9,5.9
	c0,2.3,0.3,4.3,0.9,5.9c0.6,1.7,1.4,3,2.4,4.1c1,1.1,2.2,1.9,3.6,2.4c1.4,0.5,2.9,0.8,4.5,0.8c1,0,1.9-0.1,2.7-0.4
	c0.8-0.2,1.6-0.5,2.3-0.9c0.7-0.3,1.3-0.7,1.9-1.1c0.6-0.4,1-0.7,1.4-1.1l0.2,0.2l-0.4,2.4C43.3,425.9,42.9,426.1,42.4,426.4z"/>
<path class="st1" d="M48.1,412.9c0.6-1.3,1.4-2.4,2.3-3.2c1-0.8,2-1.4,3.2-1.8c1.2-0.4,2.4-0.6,3.6-0.6c1.2,0,2.4,0.2,3.6,0.6
	c1.2,0.4,2.3,1,3.2,1.8c1,0.8,1.7,1.9,2.3,3.2c0.6,1.3,0.9,2.9,0.9,4.8c0,1.9-0.3,3.5-0.9,4.8c-0.6,1.3-1.4,2.4-2.3,3.2
	c-1,0.8-2,1.4-3.2,1.7c-1.2,0.3-2.4,0.5-3.6,0.5c-1.2,0-2.4-0.2-3.6-0.5c-1.2-0.3-2.3-0.9-3.2-1.7c-1-0.8-1.7-1.9-2.3-3.2
	c-0.6-1.3-0.9-2.9-0.9-4.8C47.2,415.7,47.5,414.2,48.1,412.9z M51.1,421c0.2,1.1,0.6,2,1.1,2.9c0.5,0.8,1.2,1.5,2,2
	c0.8,0.5,1.8,0.7,3.1,0.7c1.2,0,2.2-0.2,3.1-0.7c0.8-0.5,1.5-1.2,2-2c0.5-0.8,0.8-1.8,1.1-2.9c0.2-1.1,0.3-2.2,0.3-3.3
	c0-1.2-0.1-2.3-0.3-3.3c-0.2-1.1-0.6-2-1.1-2.9c-0.5-0.8-1.2-1.5-2-2c-0.8-0.5-1.8-0.7-3.1-0.7c-1.2,0-2.2,0.2-3.1,0.7
	c-0.8,0.5-1.5,1.2-2,2c-0.5,0.8-0.8,1.8-1.1,2.9c-0.2,1.1-0.3,2.2-0.3,3.3C50.8,418.8,50.9,419.9,51.1,421z"/>
<path class="st1" d="M71.9,417.4c0-1,0.1-2.1,0.1-3.1c0-1,0-2,0-3.1c0-1.1,0-2.3-0.1-3.4c0.7,0.1,1.3,0.2,1.7,0.2
	c0.4,0,1-0.1,1.7-0.2c-0.1,1.6-0.2,3.5-0.3,5.4c-0.1,2-0.1,4-0.1,6c0,1.4,0.1,2.5,0.4,3.3c0.2,0.8,0.6,1.3,0.9,1.7
	c0.4,0.4,0.9,0.8,1.5,1.1c0.6,0.3,1.3,0.4,2.1,0.4c1.2,0,2.1-0.3,2.9-0.8c0.8-0.5,1.3-1.1,1.7-1.9c0.2-0.5,0.3-0.9,0.5-1.2
	c0.1-0.3,0.2-0.8,0.3-1.3c0.1-0.5,0.1-1.3,0.1-2.2c0-0.9,0-2.2,0-3.8v-3.5c0-0.6,0-1.2,0-1.7c0-0.5,0-1.1-0.1-1.6
	c0.3,0.1,0.6,0.1,0.9,0.1c0.3,0,0.6,0.1,0.9,0.1c0.3,0,0.6,0,0.9-0.1c0.3,0,0.6-0.1,0.8-0.1c-0.1,2.1-0.2,4.2-0.2,6.2
	c0,2,0,4.1,0,6.3c0,1.2,0,2.5,0,3.6c0,1.2,0.1,2.3,0.1,3.4c-0.6-0.1-1.1-0.1-1.6-0.1c-0.5,0-1.1,0-1.6,0.1c0-0.2,0-0.5,0.1-0.8
	c0-0.3,0-0.6,0-0.9v-1.8h-0.1c-0.7,1.3-1.6,2.3-2.8,2.9c-1.1,0.6-2.4,0.9-3.7,0.9c-2.1,0-3.8-0.6-5.1-1.7c-1.2-1.1-1.8-2.8-1.8-4.9
	C71.8,419.7,71.8,418.4,71.9,417.4z"/>
<path class="st1" d="M107,411.1c-0.8-1.1-1.9-1.6-3.3-1.6c-1.9,0-3.3,0.6-4.2,1.8c-0.9,1.2-1.3,2.8-1.3,5v3.5c0,1.2,0,2.5,0.1,3.9
	c0,1.4,0.1,2.6,0.3,3.7c-0.6-0.1-1.3-0.1-1.9-0.1c-0.6,0-1.2,0-1.9,0.1c0.1-1.1,0.2-2.3,0.3-3.7c0-1.4,0.1-2.7,0.1-3.9v-4.3
	c0-1.2,0-2.5-0.1-3.9c0-1.4-0.1-2.6-0.3-3.8c0.8,0.1,1.4,0.2,1.9,0.2c0.2,0,0.5,0,0.7-0.1c0.3,0,0.6-0.1,0.9-0.1
	c-0.1,1.1-0.1,2.2-0.1,3.3h0.1c0.8-1.2,1.7-2.1,2.8-2.7c1.1-0.6,2.4-1,3.8-1c0.8,0,1.6,0.1,2.3,0.3c0.8,0.2,1.5,0.6,2.1,1.1
	c0.6,0.5,1.2,1.3,1.6,2.2c0.4,0.9,0.6,2.1,0.6,3.5c0,1.2,0,2.4-0.1,3.7c-0.1,1.3-0.1,2.6-0.1,4v2.7c0,0.4,0,0.9,0,1.3
	c0,0.4,0,0.8,0.1,1.2c-0.6-0.1-1.1-0.1-1.8-0.1c-0.6,0-1.2,0-1.7,0.1c0.1-1.4,0.1-2.9,0.2-4.4c0.1-1.5,0.1-3.1,0.1-4.7v-2.5
	C108.2,413.7,107.8,412.1,107,411.1z"/>
<path class="st1" d="M121.4,402.2c-0.1,1-0.1,2.1-0.2,3.1c0,1-0.1,2-0.1,3c0.3,0,0.9,0,1.7,0c0.8,0,1.7,0,2.7-0.1c0,0.1,0,0.2,0,0.5
	v0.4v0.5c0,0.2,0,0.3,0,0.4c-0.4,0-0.7,0-1.1-0.1c-0.4,0-0.8,0-1.2,0h-2c0,0.1-0.1,0.5-0.1,1.3c0,0.8-0.1,1.7-0.1,2.7
	c0,1.1,0,2.2-0.1,3.3c0,1.2,0,2.2,0,3.1c0,0.8,0,1.5,0.1,2.3c0,0.7,0.2,1.4,0.4,2c0.2,0.6,0.5,1.1,1,1.4c0.4,0.4,1.1,0.5,1.9,0.5
	c0.2,0,0.5,0,0.9-0.1c0.4-0.1,0.7-0.1,1-0.2v1c-0.5,0.1-1,0.2-1.5,0.3c-0.6,0.1-1.1,0.2-1.6,0.2c-1.7,0-3-0.4-3.8-1.3
	c-0.8-0.9-1.2-2.1-1.2-3.8c0-0.7,0-1.5,0-2.4c0-0.9,0.1-1.8,0.1-2.8c0-1,0.1-2.2,0.1-3.4c0-1.3,0-2.6,0-4.2h-1.3c-0.2,0-0.5,0-0.7,0
	c-0.2,0-0.5,0-0.8,0.1c0-0.2,0-0.3,0.1-0.5c0-0.2,0-0.3,0-0.5c0-0.1,0-0.3,0-0.4c0-0.1,0-0.3-0.1-0.4c1.2,0.1,2.1,0.1,2.7,0.1
	c0-0.5,0-1.2-0.1-2.1c0-0.8,0-1.7-0.1-2.6l3.4-1.4H121.4z"/>
<path class="st1" d="M134,424.5c-0.5-1.2-1-2.4-1.5-3.7c-0.6-1.3-1.1-2.6-1.7-4c-0.6-1.4-1.1-2.6-1.6-3.8c-0.5-1.2-1-2.2-1.3-3.2
	c-0.4-0.9-0.7-1.6-0.9-2c0.4,0.1,0.7,0.1,1,0.1c0.3,0,0.6,0.1,0.9,0.1c0.3,0,0.6,0,0.9-0.1c0.3,0,0.6-0.1,1-0.1
	c0.9,2.6,1.8,5.3,2.8,7.8c1,2.6,2.1,5.3,3.3,8c1.2-2.4,2.3-5,3.3-7.8c1.1-2.8,2-5.4,2.8-8.1c0.5,0.1,1,0.2,1.4,0.2
	c0.4,0,0.8-0.1,1.4-0.2c-0.2,0.4-0.5,1-0.9,2c-0.4,0.9-0.9,2-1.5,3.3c-0.6,1.3-1.2,2.7-1.9,4.2c-0.7,1.6-1.4,3.2-2.1,4.8
	c-0.7,1.6-1.5,3.3-2.2,4.9s-1.4,3.1-2,4.6c-0.6,1.4-1.1,2.8-1.6,3.9c-0.5,1.2-0.8,2.1-1,2.8c-0.6-0.1-1-0.2-1.4-0.2
	c-0.4,0-0.9,0.1-1.4,0.2c2.2-3.6,4-7.2,5.5-10.8C134.9,426.7,134.5,425.7,134,424.5z"/>
<path class="st1" d="M164,404.4c-0.1-1.7-0.1-3.5-0.2-5.3c0.4,0.1,0.7,0.1,1,0.1c0.3,0,0.7,0.1,1,0.1c0.3,0,0.7,0,1-0.1
	c0.3,0,0.7-0.1,1-0.1c-0.1,1.8-0.2,3.6-0.2,5.3c-0.1,1.7-0.1,3.5-0.1,5.3c0,3.5,0,6.5,0,9c0,2.5,0.1,4.8,0.1,6.8c2,0,3.8,0,5.6-0.1
	c1.8,0,3.7-0.2,5.8-0.5c-0.1,0.5-0.2,0.9-0.2,1.2c0,0.3,0.1,0.7,0.2,1.1c-1.3-0.1-2.5-0.1-3.8-0.1c-1.3,0-2.5,0-3.8,0
	c-1.3,0-2.6,0-3.8,0c-1.2,0-2.5,0-3.8,0.1c0.1-1.7,0.2-3.4,0.2-5.2c0.1-1.8,0.1-3.5,0.1-5.4v-7.1C164.1,407.9,164.1,406.1,164,404.4
	z"/>
<path class="st1" d="M182.9,399.1c0.4-0.4,0.9-0.6,1.5-0.6c0.6,0,1.1,0.2,1.5,0.6c0.4,0.4,0.6,0.9,0.6,1.5c0,0.6-0.2,1.1-0.6,1.5
	c-0.4,0.4-0.9,0.6-1.5,0.6c-0.6,0-1.1-0.2-1.5-0.6c-0.4-0.4-0.6-0.9-0.6-1.5C182.3,400,182.5,399.5,182.9,399.1z M182.8,411.6
	c0-1.4-0.1-2.6-0.3-3.8c0.8,0.1,1.4,0.2,1.9,0.2c0.5,0,1.1-0.1,1.9-0.2c-0.1,1.2-0.2,2.5-0.3,3.8c0,1.4-0.1,2.7-0.1,3.9v4.3
	c0,1.2,0,2.5,0.1,3.9c0,1.4,0.1,2.6,0.3,3.7c-0.6-0.1-1.3-0.1-1.9-0.1c-0.6,0-1.2,0-1.9,0.1c0.1-1.1,0.2-2.3,0.3-3.7
	c0-1.4,0.1-2.7,0.1-3.9v-4.3C182.8,414.2,182.8,412.9,182.8,411.6z"/>
<path class="st1" d="M210.6,421.4c-0.5,1.3-1.1,2.5-2,3.4c-0.8,0.9-1.8,1.7-3,2.2c-1.1,0.5-2.4,0.8-3.7,0.8c-1.3,0-2.5-0.3-3.6-0.8
	c-1.1-0.6-1.9-1.2-2.4-2c-1,0.8-1.9,1.6-2.8,2.4h-0.7c0.1-0.7,0.1-1.5,0.1-2.4c0-0.9,0.1-1.9,0.1-3c0-1.1,0-2.1,0.1-3.2
	c0-1.1,0-2.1,0-3.1v-7.5c0-0.9,0-2,0-3.1c0-1.1,0-2.2-0.1-3.3c0-1.1-0.1-2.1-0.1-3.1c0-1-0.1-1.8-0.1-2.5c0.8,0.1,1.4,0.2,1.9,0.2
	c0.3,0,0.6,0,0.9-0.1c0.3,0,0.7-0.1,1.1-0.1c-0.1,0.5-0.2,1.4-0.2,2.6c-0.1,1.2-0.1,2.5-0.1,4c0,1.5-0.1,3-0.1,4.5
	c0,1.6-0.1,3-0.1,4.2h0.1c0.9-1.5,2-2.6,3.1-3.3c1.1-0.7,2.4-1,3.9-1c1.4,0,2.7,0.3,3.7,0.8c1,0.5,1.9,1.2,2.6,2.1
	c0.7,0.9,1.2,1.9,1.5,3.1c0.3,1.2,0.5,2.4,0.5,3.7C211.3,418.6,211.1,420.1,210.6,421.4z M207.2,413.6c-0.3-1-0.7-1.8-1.2-2.5
	c-0.5-0.7-1.1-1.2-1.8-1.5c-0.7-0.3-1.4-0.5-2.1-0.5c-0.9,0-1.7,0.2-2.5,0.5c-0.8,0.3-1.5,0.8-2,1.6c-0.6,0.7-1,1.7-1.4,2.8
	c-0.3,1.2-0.5,2.6-0.5,4.3c0,5.5,2,8.3,6,8.3c0.9,0,1.6-0.2,2.4-0.7c0.7-0.5,1.3-1.1,1.9-2c0.5-0.9,1-1.9,1.3-3.1
	c0.3-1.2,0.5-2.5,0.5-4C207.7,415.7,207.5,414.5,207.2,413.6z"/>
<path class="st1" d="M223.8,410.7c-0.4-0.1-0.8-0.2-1.2-0.2c-0.7,0-1.3,0.2-1.8,0.5c-0.5,0.3-1,0.7-1.3,1.2
	c-0.4,0.5-0.6,1.1-0.8,1.8c-0.2,0.7-0.3,1.5-0.3,2.2v4.5c0,1.8,0,3.3,0,4.2c0,1,0.1,1.8,0.1,2.4c-0.6-0.1-1.1-0.1-1.7-0.1
	c-0.6,0-1.2,0-1.7,0.1c0.1-0.9,0.1-2.2,0.1-3.8c0-1.6,0-3.6,0-5.9v-1.3c0-1.1,0-2.3,0-3.7c0-1.4-0.1-3-0.1-4.8
	c0.3,0.1,0.6,0.1,0.9,0.1c0.3,0,0.6,0.1,0.9,0.1c0.2,0,0.5,0,0.8-0.1c0.3,0,0.6-0.1,0.9-0.1c-0.1,1-0.2,1.8-0.2,2.4
	c0,0.6,0,1.1,0,1.6l0.1,0c1.6-3,3.4-4.5,5.4-4.5c0.2,0,0.5,0,0.6,0c0.2,0,0.4,0.1,0.7,0.2c-0.1,0.3-0.2,0.8-0.2,1.5
	c0,0.7,0,1.3,0,1.8l-0.3,0.2C224.5,411,224.2,410.8,223.8,410.7z"/>
<path class="st1" d="M232.2,407.9c1-0.3,2.1-0.5,3.2-0.5c1,0,1.9,0.1,2.7,0.4c0.8,0.3,1.5,0.7,2.1,1.2c0.6,0.5,1,1.2,1.4,1.9
	c0.3,0.8,0.5,1.6,0.5,2.5c0,1.6,0,3.1-0.1,4.7c-0.1,1.6-0.1,3.2-0.1,4.9c0,0.3,0,0.7,0,1.1c0,0.4,0.1,0.7,0.2,1
	c0.1,0.3,0.3,0.5,0.5,0.7c0.2,0.2,0.5,0.3,0.9,0.3c0.1,0,0.3,0,0.4,0c0.2,0,0.3-0.1,0.4-0.1v0.9c-0.3,0.1-0.7,0.2-1.1,0.3
	c-0.5,0.1-1,0.1-1.5,0.1c-0.9,0-1.6-0.2-2.1-0.7c-0.5-0.5-0.8-1-0.8-1.8c-1,1-2,1.7-2.9,2.2c-1,0.5-2.1,0.7-3.5,0.7
	c-0.7,0-1.4-0.1-2-0.3c-0.7-0.2-1.2-0.5-1.7-0.9c-0.5-0.4-0.9-1-1.2-1.6c-0.3-0.6-0.5-1.3-0.5-2.1c0-1.7,0.5-2.9,1.5-3.8
	c1-0.9,2.4-1.5,4.3-1.8c1.5-0.2,2.6-0.5,3.5-0.6c0.8-0.2,1.5-0.4,1.9-0.6c0.4-0.2,0.6-0.4,0.7-0.7c0.1-0.3,0.1-0.6,0.1-1
	c0-0.7-0.1-1.3-0.2-2c-0.2-0.6-0.4-1.2-0.8-1.7c-0.4-0.5-0.8-0.8-1.4-1.1c-0.6-0.3-1.3-0.4-2.1-0.4c-1.1,0-2.1,0.2-3.1,0.7
	c-0.9,0.5-1.7,1.2-2.1,2.1h-0.5v-2.1C230,408.8,231.1,408.2,232.2,407.9z M237.3,417.5c-0.6,0.1-1.2,0.2-1.9,0.4
	c-0.6,0.1-1.3,0.3-1.9,0.5c-0.6,0.2-1.2,0.5-1.6,0.8c-0.5,0.3-0.9,0.7-1.1,1.2c-0.3,0.5-0.4,1.1-0.4,1.9c0,1.3,0.4,2.3,1.1,2.9
	c0.7,0.7,1.6,1,2.5,1c1,0,2-0.3,2.9-0.9c0.9-0.6,1.5-1.3,2-2l0.2-6.2C238.5,417.3,238,417.4,237.3,417.5z"/>
<path class="st1" d="M257.7,410.7c-0.4-0.1-0.8-0.2-1.2-0.2c-0.7,0-1.3,0.2-1.8,0.5c-0.5,0.3-1,0.7-1.3,1.2
	c-0.4,0.5-0.6,1.1-0.8,1.8c-0.2,0.7-0.3,1.5-0.3,2.2v4.5c0,1.8,0,3.3,0,4.2c0,1,0.1,1.8,0.1,2.4c-0.6-0.1-1.1-0.1-1.7-0.1
	c-0.6,0-1.2,0-1.7,0.1c0.1-0.9,0.1-2.2,0.1-3.8c0-1.6,0-3.6,0-5.9v-1.3c0-1.1,0-2.3,0-3.7c0-1.4-0.1-3-0.1-4.8
	c0.3,0.1,0.6,0.1,0.9,0.1c0.3,0,0.6,0.1,0.9,0.1c0.2,0,0.5,0,0.8-0.1c0.3,0,0.6-0.1,0.9-0.1c-0.1,1-0.2,1.8-0.2,2.4
	c0,0.6,0,1.1,0,1.6l0.1,0c1.6-3,3.4-4.5,5.4-4.5c0.2,0,0.5,0,0.6,0c0.2,0,0.4,0.1,0.7,0.2c-0.1,0.3-0.2,0.8-0.2,1.5
	c0,0.7,0,1.3,0,1.8l-0.3,0.2C258.3,411,258.1,410.8,257.7,410.7z"/>
<path class="st1" d="M263.9,399.1c0.4-0.4,0.9-0.6,1.5-0.6c0.6,0,1.1,0.2,1.5,0.6c0.4,0.4,0.6,0.9,0.6,1.5c0,0.6-0.2,1.1-0.6,1.5
	c-0.4,0.4-0.9,0.6-1.5,0.6c-0.6,0-1.1-0.2-1.5-0.6c-0.4-0.4-0.6-0.9-0.6-1.5C263.3,400,263.5,399.5,263.9,399.1z M263.8,411.6
	c0-1.4-0.1-2.6-0.3-3.8c0.8,0.1,1.4,0.2,1.9,0.2c0.5,0,1.1-0.1,1.9-0.2c-0.1,1.2-0.2,2.5-0.3,3.8c0,1.4-0.1,2.7-0.1,3.9v4.3
	c0,1.2,0,2.5,0.1,3.9c0,1.4,0.1,2.6,0.3,3.7c-0.6-0.1-1.3-0.1-1.9-0.1c-0.6,0-1.2,0-1.9,0.1c0.1-1.1,0.2-2.3,0.3-3.7
	c0-1.4,0.1-2.7,0.1-3.9v-4.3C263.8,414.2,263.8,412.9,263.8,411.6z"/>
<path class="st1" d="M272.9,410.2c1.6-1.9,4-2.9,7-2.9c1.5,0,2.7,0.2,3.8,0.7c1.1,0.5,1.9,1.1,2.7,1.8c0.7,0.8,1.2,1.6,1.6,2.7
	c0.3,1,0.5,2.1,0.5,3.3c0,0.3,0,0.5,0,0.8c0,0.3,0,0.5-0.1,0.8c-1.5,0-3-0.1-4.4-0.1c-1.5,0-2.9,0-4.4,0c-0.9,0-1.8,0-2.7,0
	c-0.9,0-1.8,0.1-2.7,0.1c0,0.1,0,0.3,0,0.6v0.5c0,1.1,0.2,2.1,0.5,3c0.3,0.9,0.8,1.7,1.4,2.4c0.6,0.7,1.3,1.2,2.2,1.6
	c0.9,0.4,1.9,0.6,3.1,0.6c0.5,0,1.1-0.1,1.7-0.2c0.6-0.1,1.1-0.4,1.7-0.6c0.6-0.3,1.1-0.6,1.5-0.9c0.5-0.4,0.9-0.7,1.3-1.2l0.2,0.1
	l-0.2,2c-0.8,0.7-1.8,1.2-3.1,1.7c-1.2,0.5-2.5,0.7-3.8,0.7c-1.5,0-2.8-0.2-4.1-0.7c-1.2-0.5-2.3-1.1-3.2-2
	c-0.9-0.9-1.6-1.9-2.1-3.1c-0.5-1.2-0.7-2.5-0.7-3.8C270.5,414.8,271.3,412.2,272.9,410.2z M277.4,409.4c-0.7,0.5-1.3,1.1-1.7,1.8
	c-0.5,0.7-0.8,1.5-1,2.3c-0.2,0.8-0.4,1.6-0.4,2.4c0.9,0,1.7,0.1,2.7,0.1c0.9,0,1.8,0,2.7,0c0.9,0,1.8,0,2.8,0
	c0.9,0,1.8-0.1,2.7-0.1c0-0.7-0.1-1.5-0.2-2.4c-0.1-0.8-0.4-1.6-0.7-2.3c-0.4-0.7-0.9-1.3-1.5-1.8c-0.7-0.5-1.5-0.7-2.6-0.7
	C279,408.7,278.1,408.9,277.4,409.4z"/>
<path class="st1" d="M293.2,424.4c0.3,0.3,0.6,0.6,1,0.9c0.4,0.3,0.9,0.5,1.4,0.7c0.5,0.2,1.1,0.3,1.6,0.3c0.5,0,1-0.1,1.5-0.2
	c0.5-0.2,0.9-0.4,1.3-0.7c0.4-0.3,0.7-0.7,0.9-1.2c0.2-0.5,0.3-1,0.3-1.6c0-0.9-0.2-1.5-0.7-2c-0.5-0.5-1.1-0.8-1.8-1.1
	c-0.7-0.3-1.5-0.5-2.3-0.8c-0.9-0.2-1.6-0.5-2.4-0.9c-0.7-0.4-1.3-0.9-1.8-1.6c-0.5-0.7-0.7-1.6-0.7-2.7c0-0.9,0.2-1.7,0.5-2.5
	c0.3-0.8,0.7-1.4,1.3-2c0.6-0.6,1.3-1,2.1-1.3c0.9-0.3,1.8-0.5,2.9-0.5c1,0,1.9,0.1,2.6,0.4c0.7,0.3,1.4,0.5,2,0.7
	c-0.2,0.4-0.4,0.9-0.6,1.5c-0.2,0.6-0.3,1.1-0.4,1.4h-0.5c-0.2-0.7-0.6-1.3-1.3-1.8c-0.6-0.5-1.4-0.8-2.4-0.8
	c-0.4,0-0.8,0.1-1.2,0.2c-0.4,0.1-0.8,0.3-1.1,0.6s-0.6,0.6-0.8,1.1c-0.2,0.4-0.3,1-0.3,1.6c0,0.9,0.2,1.6,0.7,2
	c0.5,0.5,1.1,0.9,1.8,1.1c0.7,0.3,1.5,0.5,2.4,0.7c0.9,0.2,1.6,0.5,2.4,0.9c0.7,0.4,1.3,0.9,1.8,1.5c0.5,0.7,0.7,1.6,0.7,2.7
	c0,0.8-0.2,1.6-0.5,2.4c-0.3,0.8-0.8,1.5-1.5,2.1c-0.6,0.6-1.4,1.1-2.3,1.4c-0.9,0.3-1.9,0.5-3.1,0.5c-1.3,0-2.3-0.1-3.2-0.4
	c-0.9-0.2-1.6-0.5-2.1-0.9c0.2-0.4,0.3-0.8,0.5-1.5c0.2-0.6,0.3-1.1,0.3-1.5h0.5C292.7,423.8,293,424.1,293.2,424.4z"/>
<path class="st2" d="M268.2,387.1c0,0,12.4-1.1,36.7,8.2c0,0,5.2-34.3,35.5-51.2C340.4,344.1,290,330.6,268.2,387.1z"/>
<path class="st3" d="M347.8,346.5c0,0-20.2,16.4-27.8,31.9c-6.4,13-6.7,20.2-3.8,33.8c0,0,26.2-25.7,72.7-17.5
	C388.9,394.7,381.1,355.2,347.8,346.5z"/>
<g>
	<path class="st0" d="M147.6,161.3c0,0,0.8-45.5,21.1-65c29.8-28.6,81.9-19,83.8-19.1c0,0,2.3,20.8-9.9,42.1
		C233.1,136,211.5,167.1,147.6,161.3z"/>
	<g>
		<path class="st1" d="M0.2,68.6c-0.1-1.7-0.1-3.5-0.2-5.3c1,0.1,2.1,0.1,3.1,0.1c1,0,2.1,0.1,3.1,0.1c1,0,2.1,0,3.1-0.1
			c1-0.1,2.1-0.1,3.1-0.1c2.4,0,4.5,0.3,6.2,0.9c1.7,0.6,3.1,1.5,4.2,2.7c1.1,1.2,1.9,2.6,2.4,4.3c0.5,1.7,0.8,3.6,0.8,5.7
			c0,2.8-0.5,5.1-1.4,7c-0.9,1.9-2.2,3.4-3.6,4.6c-1.5,1.2-3.1,2-4.9,2.5c-1.8,0.5-3.5,0.7-5.1,0.7c-0.9,0-1.9,0-2.8,0
			c-0.9,0-1.8,0-2.8,0c-0.9,0-1.9,0-2.8,0c-0.9,0-1.8,0-2.8,0.1c0.1-1.7,0.2-3.4,0.2-5.2c0.1-1.8,0.1-3.5,0.1-5.4V74
			C0.3,72.2,0.3,70.4,0.2,68.6z M4,89.8c0.6,0.1,1.4,0.2,2.4,0.3c1,0.1,2,0.1,3.1,0.1c1.5,0,3-0.2,4.5-0.5c1.5-0.4,2.9-1,4.1-2
			c1.2-1,2.2-2.3,2.9-4.1c0.8-1.7,1.1-3.9,1.1-6.7c0-2.4-0.3-4.4-0.9-5.9c-0.6-1.5-1.4-2.8-2.4-3.7c-1-0.9-2.3-1.5-3.7-1.9
			c-1.4-0.3-3-0.5-4.7-0.5c-1.2,0-2.4,0-3.5,0.1c-1.1,0.1-2,0.2-2.9,0.3c-0.1,1.3-0.1,2.7-0.2,4.1c0,1.4-0.1,2.9-0.1,4.4v7.1
			C3.7,84,3.8,87,4,89.8z"/>
		<path class="st1" d="M30.7,77.1c0.6-1.3,1.4-2.4,2.3-3.2c1-0.8,2-1.4,3.2-1.8c1.2-0.4,2.4-0.6,3.6-0.6c1.2,0,2.4,0.2,3.6,0.6
			c1.2,0.4,2.3,1,3.2,1.8c1,0.8,1.7,1.9,2.3,3.2c0.6,1.3,0.9,2.9,0.9,4.8c0,1.9-0.3,3.5-0.9,4.8c-0.6,1.3-1.4,2.4-2.3,3.2
			c-1,0.8-2,1.4-3.2,1.7c-1.2,0.3-2.4,0.5-3.6,0.5c-1.2,0-2.4-0.2-3.6-0.5c-1.2-0.3-2.3-0.9-3.2-1.7c-1-0.8-1.7-1.9-2.3-3.2
			c-0.6-1.3-0.9-2.9-0.9-4.8C29.8,80,30.1,78.4,30.7,77.1z M33.8,85.2c0.2,1.1,0.6,2,1.1,2.9c0.5,0.8,1.2,1.5,2,2
			c0.8,0.5,1.8,0.7,3.1,0.7c1.2,0,2.2-0.2,3.1-0.7c0.8-0.5,1.5-1.2,2-2c0.5-0.8,0.8-1.8,1.1-2.9c0.2-1.1,0.3-2.2,0.3-3.3
			c0-1.2-0.1-2.3-0.3-3.3c-0.2-1.1-0.6-2-1.1-2.9c-0.5-0.8-1.2-1.5-2-2c-0.8-0.5-1.8-0.7-3.1-0.7c-1.2,0-2.2,0.2-3.1,0.7
			c-0.8,0.5-1.5,1.2-2,2c-0.5,0.8-0.8,1.8-1.1,2.9c-0.2,1.1-0.3,2.2-0.3,3.3C33.5,83.1,33.6,84.2,33.8,85.2z"/>
		<path class="st1" d="M54.5,81.7c0-1,0.1-2.1,0.1-3.1c0-1,0-2,0-3.1c0-1.1,0-2.3-0.1-3.4c0.7,0.1,1.3,0.2,1.7,0.2
			c0.4,0,1-0.1,1.7-0.2c-0.1,1.6-0.2,3.5-0.3,5.4c-0.1,2-0.1,4-0.1,6c0,1.4,0.1,2.5,0.4,3.3c0.2,0.8,0.6,1.3,0.9,1.7
			c0.4,0.4,0.9,0.8,1.5,1.1c0.6,0.3,1.3,0.4,2.1,0.4c1.2,0,2.1-0.3,2.9-0.8c0.8-0.5,1.3-1.1,1.7-1.9c0.2-0.5,0.3-0.9,0.5-1.2
			c0.1-0.3,0.2-0.8,0.3-1.3c0.1-0.5,0.1-1.3,0.1-2.2c0-0.9,0-2.2,0-3.8v-3.5c0-0.6,0-1.2,0-1.7c0-0.5,0-1.1-0.1-1.6
			c0.3,0.1,0.6,0.1,0.9,0.1c0.3,0,0.6,0.1,0.9,0.1c0.3,0,0.6,0,0.9-0.1c0.3,0,0.6-0.1,0.8-0.1c-0.1,2.1-0.2,4.2-0.2,6.2
			c0,2,0,4.1,0,6.3c0,1.2,0,2.4,0,3.6c0,1.2,0.1,2.3,0.1,3.4c-0.5-0.1-1.1-0.1-1.6-0.1c-0.5,0-1.1,0-1.6,0.1c0-0.2,0-0.5,0.1-0.8
			c0-0.3,0-0.6,0-0.9v-1.8h-0.1c-0.7,1.3-1.6,2.3-2.8,2.9c-1.1,0.6-2.4,0.9-3.7,0.9c-2.1,0-3.8-0.6-5.1-1.7
			c-1.2-1.1-1.8-2.8-1.8-4.9C54.5,84,54.5,82.7,54.5,81.7z"/>
		<path class="st1" d="M77,75.4c0.4-0.8,1-1.5,1.7-2.1c0.7-0.6,1.6-1,2.5-1.2c0.9-0.3,2-0.4,3-0.4c0.5,0,1,0,1.5,0
			c0.5,0,1.1,0.1,1.8,0.1c0.6,0.1,1.2,0.1,1.7,0.1c0.5,0,0.9,0,1.2,0c1.5,0,2.7-0.1,3.3-0.2c0,0.1,0,0.3-0.1,0.4c0,0.2,0,0.3,0,0.4
			c0,0.1,0,0.3,0,0.4c0,0.2,0,0.3,0.1,0.4c-0.8-0.1-1.6-0.1-2.3-0.2c-0.8-0.1-1.5-0.1-2.2-0.1l-0.1,0.1c0.9,0.5,1.5,1.2,2.1,2.2
			c0.5,1,0.8,2,0.8,3c0,2.1-0.7,3.7-2.1,4.8c-1.4,1.2-3.3,1.8-5.6,1.8c-0.4,0-0.8,0-1.1,0c-0.4,0-0.8,0-1.1,0c-0.5,0-1,0.2-1.4,0.5
			c-0.4,0.4-0.6,0.8-0.6,1.4c0,0.7,0.2,1.2,0.5,1.6c0.3,0.3,1,0.5,1.9,0.5c0.8,0,1.5,0,2.3,0.1c0.7,0,1.5,0,2.3,0.1
			c1.3,0,2.3,0.2,3.2,0.5c0.9,0.3,1.6,0.6,2.2,1.1c0.6,0.5,1,1,1.2,1.6c0.3,0.6,0.4,1.3,0.4,2c0,1-0.2,1.9-0.6,2.9
			c-0.4,1-0.9,1.9-1.7,2.7c-0.8,0.8-1.8,1.5-3,2c-1.2,0.5-2.7,0.8-4.5,0.8c-2.7,0-4.8-0.5-6.3-1.6c-1.5-1.1-2.3-2.5-2.3-4.4
			c0-0.7,0.1-1.4,0.4-2c0.3-0.6,0.6-1.1,1-1.6c0.4-0.5,0.9-0.8,1.4-1.1c0.5-0.3,1.1-0.5,1.6-0.6v-0.1c-0.9-0.2-1.5-0.7-1.9-1.2
			c-0.4-0.6-0.7-1.3-0.7-2.1c0-0.5,0.1-0.9,0.3-1.3c0.2-0.4,0.4-0.7,0.7-1c0.3-0.3,0.6-0.5,0.9-0.7c0.4-0.2,0.7-0.3,1-0.4v-0.1
			c-1.3-0.5-2.3-1.3-3-2.3c-0.7-1-1.1-2.3-1.1-3.8C76.3,77.2,76.5,76.2,77,75.4z M89.5,92.5c-1-0.7-2.6-1-4.8-1
			c-2.1,0-3.7,0.3-4.8,1c-1.1,0.7-1.7,1.9-1.7,3.7c0,0.9,0.2,1.7,0.5,2.4c0.3,0.7,0.7,1.2,1.3,1.6c0.5,0.4,1.2,0.7,1.9,0.9
			c0.7,0.2,1.5,0.3,2.4,0.3c0.8,0,1.6-0.1,2.4-0.3c0.8-0.2,1.5-0.5,2.1-1c0.6-0.4,1.1-1,1.5-1.7c0.4-0.7,0.6-1.5,0.6-2.4
			C91,94.4,90.5,93.2,89.5,92.5z M87.5,74.2c-0.8-0.9-1.9-1.4-3.3-1.4c-1.5,0-2.6,0.5-3.5,1.5c-0.8,1-1.2,2.3-1.2,4
			c0,1.7,0.4,3.1,1.1,4.1c0.8,1,1.9,1.5,3.5,1.5c0.8,0,1.5-0.2,2-0.5c0.6-0.3,1-0.7,1.4-1.3c0.4-0.5,0.6-1.2,0.8-1.9
			c0.2-0.7,0.3-1.4,0.3-2.2C88.8,76.4,88.3,75.1,87.5,74.2z"/>
		<path class="st1" d="M99.1,69.4c0-1.1,0-2.2-0.1-3.3c0-1.1-0.1-3.5-0.1-4.4c0-1-0.1-1.8-0.1-2.5c0.8,0.1,1.4,0.2,1.9,0.2
			c0.5,0,1.1-0.1,1.9-0.2c-0.1,0.7-0.1,1.5-0.1,2.5c0,1-0.1,3.4-0.1,4.4c0,1.1,0,2.2-0.1,3.3c0,1.1,0,2.1,0,3.1v7.5c0,0.9,0,2,0,3.1
			c0,1.1,0,2.2,0.1,3.3c0,1.1,0.1,2.1,0.1,3.1c0,1,0.1,1.8,0.1,2.4c-0.6-0.1-1.3-0.1-1.9-0.1c-0.6,0-1.2,0-1.9,0.1
			c0.1-0.6,0.1-1.4,0.1-2.4c0-1,0.1-2,0.1-3.1c0-1.1,0-2.2,0.1-3.3c0-1.1,0-2.1,0-3.1v-7.5C99.1,71.5,99.1,70.5,99.1,69.4z"/>
		<path class="st1" d="M113.3,72.1c1-0.3,2.1-0.5,3.2-0.5c1,0,1.9,0.1,2.7,0.4c0.8,0.3,1.5,0.7,2.1,1.2c0.6,0.5,1,1.2,1.4,1.9
			c0.3,0.8,0.5,1.6,0.5,2.5c0,1.6,0,3.1-0.1,4.7c-0.1,1.6-0.1,3.2-0.1,4.9c0,0.3,0,0.7,0,1.1c0,0.4,0.1,0.7,0.2,1
			c0.1,0.3,0.3,0.5,0.5,0.7c0.2,0.2,0.5,0.3,0.9,0.3c0.1,0,0.3,0,0.4,0c0.1,0,0.3-0.1,0.4-0.1v0.9c-0.3,0.1-0.7,0.2-1.1,0.3
			c-0.5,0.1-1,0.1-1.5,0.1c-0.9,0-1.6-0.2-2.1-0.7c-0.5-0.5-0.8-1-0.8-1.8c-1,1-2,1.7-2.9,2.2c-1,0.5-2.1,0.7-3.5,0.7
			c-0.7,0-1.4-0.1-2-0.3c-0.7-0.2-1.2-0.5-1.7-0.9c-0.5-0.4-0.9-1-1.2-1.6c-0.3-0.6-0.5-1.3-0.5-2.1c0-1.7,0.5-2.9,1.5-3.8
			c1-0.9,2.4-1.5,4.3-1.8c1.5-0.2,2.6-0.5,3.5-0.6c0.8-0.2,1.5-0.4,1.9-0.6c0.4-0.2,0.6-0.4,0.7-0.7c0.1-0.3,0.1-0.6,0.1-1
			c0-0.7-0.1-1.3-0.2-2c-0.2-0.6-0.4-1.2-0.8-1.7c-0.4-0.5-0.8-0.8-1.4-1.1c-0.6-0.3-1.3-0.4-2.1-0.4c-1.1,0-2.1,0.2-3.1,0.7
			c-1,0.5-1.7,1.2-2.1,2.1h-0.5V74C111.1,73.1,112.3,72.5,113.3,72.1z M118.5,81.8c-0.6,0.1-1.2,0.2-1.9,0.4
			c-0.6,0.1-1.3,0.3-1.9,0.5c-0.6,0.2-1.2,0.5-1.6,0.8c-0.5,0.3-0.9,0.7-1.1,1.2c-0.3,0.5-0.4,1.1-0.4,1.9c0,1.3,0.4,2.3,1.1,2.9
			c0.7,0.7,1.6,1,2.5,1c1,0,2-0.3,2.9-0.9c0.9-0.6,1.5-1.3,2-2l0.2-6.2C119.6,81.5,119.1,81.7,118.5,81.8z"/>
		<path class="st1" d="M130.6,88.7c0.3,0.3,0.6,0.6,1,0.9c0.4,0.3,0.9,0.5,1.4,0.7c0.5,0.2,1.1,0.3,1.6,0.3c0.5,0,1-0.1,1.5-0.2
			c0.5-0.2,0.9-0.4,1.3-0.7c0.4-0.3,0.7-0.7,0.9-1.2c0.2-0.5,0.3-1,0.3-1.6c0-0.9-0.2-1.5-0.7-2c-0.5-0.5-1.1-0.8-1.8-1.1
			c-0.7-0.3-1.5-0.5-2.4-0.8c-0.9-0.2-1.6-0.5-2.4-0.9c-0.7-0.4-1.3-0.9-1.8-1.6c-0.5-0.7-0.7-1.6-0.7-2.7c0-0.9,0.2-1.7,0.5-2.5
			c0.3-0.8,0.7-1.4,1.3-2c0.6-0.6,1.3-1,2.1-1.3c0.9-0.3,1.8-0.5,2.9-0.5c1,0,1.9,0.1,2.6,0.4c0.7,0.3,1.4,0.5,2,0.7
			c-0.2,0.4-0.4,0.9-0.6,1.5c-0.2,0.6-0.3,1.1-0.4,1.4h-0.5c-0.2-0.7-0.6-1.3-1.3-1.8c-0.6-0.5-1.4-0.8-2.4-0.8
			c-0.4,0-0.8,0.1-1.2,0.2c-0.4,0.1-0.8,0.3-1.1,0.6c-0.3,0.3-0.6,0.6-0.8,1.1c-0.2,0.4-0.3,1-0.3,1.6c0,0.9,0.2,1.6,0.7,2
			c0.5,0.5,1.1,0.9,1.8,1.1c0.7,0.3,1.5,0.5,2.4,0.7c0.9,0.2,1.6,0.5,2.4,0.9c0.7,0.4,1.3,0.9,1.8,1.5c0.5,0.7,0.7,1.6,0.7,2.7
			c0,0.8-0.2,1.6-0.5,2.4c-0.3,0.8-0.8,1.5-1.5,2.1c-0.6,0.6-1.4,1.1-2.3,1.4c-0.9,0.3-1.9,0.5-3.1,0.5c-1.3,0-2.3-0.1-3.2-0.4
			c-0.9-0.2-1.6-0.5-2.1-0.9c0.2-0.4,0.3-0.8,0.5-1.5c0.2-0.6,0.3-1.1,0.3-1.5h0.5C130.1,88.1,130.3,88.4,130.6,88.7z"/>
		<path class="st1" d="M38.8,124.6c-0.5,0.3-1.2,0.5-1.9,0.7c-0.8,0.2-1.6,0.4-2.5,0.6c-0.9,0.2-1.9,0.2-2.9,0.2
			c-2.2,0-4.2-0.3-6-0.9c-1.8-0.6-3.4-1.6-4.8-2.8c-1.3-1.3-2.4-2.8-3.1-4.6c-0.8-1.8-1.1-3.9-1.1-6.3c0-2.3,0.4-4.4,1.1-6.3
			c0.8-1.8,1.8-3.4,3.2-4.6c1.4-1.3,3-2.2,4.9-2.9c1.9-0.7,4-1,6.3-1c1.8,0,3.5,0.2,5,0.6c1.5,0.4,2.8,0.8,4,1.3
			c-0.2,0.4-0.4,0.9-0.5,1.6c-0.1,0.7-0.2,1.2-0.3,1.6l-0.2,0.1c-0.3-0.3-0.7-0.7-1.2-1.1c-0.5-0.4-1.1-0.8-1.7-1.2
			c-0.7-0.4-1.4-0.7-2.2-1c-0.8-0.3-1.7-0.4-2.7-0.4c-1.6,0-3.1,0.3-4.5,0.8c-1.4,0.5-2.6,1.3-3.6,2.4c-1,1.1-1.8,2.5-2.4,4.1
			c-0.6,1.7-0.9,3.6-0.9,5.9c0,2.3,0.3,4.3,0.9,5.9c0.6,1.7,1.4,3,2.4,4.1c1,1.1,2.2,1.9,3.6,2.4c1.4,0.5,2.9,0.8,4.5,0.8
			c1,0,1.9-0.1,2.7-0.4c0.8-0.2,1.6-0.5,2.3-0.9c0.7-0.3,1.3-0.7,1.9-1.1c0.6-0.4,1-0.7,1.4-1.1l0.2,0.2l-0.4,2.4
			C39.7,124.1,39.3,124.3,38.8,124.6z"/>
		<path class="st1" d="M44.5,111c0.6-1.3,1.4-2.4,2.3-3.2c1-0.8,2-1.4,3.2-1.8c1.2-0.4,2.4-0.6,3.6-0.6c1.2,0,2.4,0.2,3.6,0.6
			c1.2,0.4,2.3,1,3.2,1.8c1,0.8,1.7,1.9,2.3,3.2c0.6,1.3,0.9,2.9,0.9,4.8c0,1.9-0.3,3.5-0.9,4.8c-0.6,1.3-1.4,2.4-2.3,3.2
			c-1,0.8-2,1.4-3.2,1.7c-1.2,0.3-2.4,0.5-3.6,0.5c-1.2,0-2.4-0.2-3.6-0.5c-1.2-0.3-2.3-0.9-3.2-1.7c-1-0.8-1.7-1.9-2.3-3.2
			c-0.6-1.3-0.9-2.9-0.9-4.8C43.6,113.9,43.9,112.3,44.5,111z M47.5,119.1c0.2,1.1,0.6,2,1.1,2.9c0.5,0.8,1.2,1.5,2,2
			c0.8,0.5,1.8,0.7,3.1,0.7c1.2,0,2.2-0.2,3.1-0.7c0.8-0.5,1.5-1.2,2-2c0.5-0.8,0.8-1.8,1.1-2.9c0.2-1.1,0.3-2.2,0.3-3.3
			c0-1.2-0.1-2.3-0.3-3.3c-0.2-1.1-0.6-2-1.1-2.9c-0.5-0.8-1.2-1.5-2-2c-0.8-0.5-1.8-0.7-3.1-0.7c-1.2,0-2.2,0.2-3.1,0.7
			c-0.8,0.5-1.5,1.2-2,2c-0.5,0.8-0.8,1.8-1.1,2.9c-0.2,1.1-0.3,2.2-0.3,3.3C47.2,117,47.3,118.1,47.5,119.1z"/>
		<path class="st1" d="M68.3,115.6c0-1,0.1-2.1,0.1-3.1c0-1,0-2,0-3.1c0-1.1,0-2.3-0.1-3.4c0.7,0.1,1.3,0.2,1.7,0.2
			c0.4,0,1-0.1,1.7-0.2c-0.1,1.6-0.2,3.5-0.3,5.4c-0.1,2-0.1,4-0.1,6c0,1.4,0.1,2.5,0.4,3.3c0.2,0.8,0.6,1.3,0.9,1.7
			c0.4,0.4,0.9,0.8,1.5,1.1c0.6,0.3,1.3,0.4,2.1,0.4c1.2,0,2.1-0.3,2.9-0.8c0.8-0.5,1.3-1.1,1.7-1.9c0.2-0.5,0.3-0.9,0.5-1.2
			c0.1-0.3,0.2-0.8,0.3-1.3c0.1-0.5,0.1-1.3,0.1-2.2c0-0.9,0-2.2,0-3.8v-3.5c0-0.6,0-1.2,0-1.7c0-0.5,0-1.1-0.1-1.6
			c0.3,0.1,0.6,0.1,0.9,0.1c0.3,0,0.6,0.1,0.9,0.1c0.3,0,0.6,0,0.9-0.1c0.3,0,0.6-0.1,0.8-0.1c-0.1,2.1-0.2,4.2-0.2,6.2
			c0,2,0,4.1,0,6.3c0,1.2,0,2.5,0,3.6c0,1.2,0.1,2.3,0.1,3.4c-0.6-0.1-1.1-0.1-1.6-0.1c-0.5,0-1.1,0-1.6,0.1c0-0.2,0-0.5,0.1-0.8
			c0-0.3,0-0.6,0-0.9v-1.8h-0.1c-0.7,1.3-1.6,2.3-2.8,2.9c-1.1,0.6-2.4,0.9-3.7,0.9c-2.1,0-3.8-0.6-5.1-1.7
			c-1.2-1.1-1.8-2.8-1.8-4.9C68.2,117.8,68.2,116.6,68.3,115.6z"/>
		<path class="st1" d="M103.4,109.3c-0.8-1.1-1.9-1.6-3.3-1.6c-1.9,0-3.3,0.6-4.2,1.8c-0.9,1.2-1.3,2.8-1.3,5v3.5
			c0,1.2,0,2.5,0.1,3.9c0,1.4,0.1,2.6,0.3,3.7c-0.6-0.1-1.3-0.1-1.9-0.1c-0.6,0-1.2,0-1.9,0.1c0.1-1.1,0.2-2.3,0.3-3.7
			c0-1.4,0.1-2.7,0.1-3.9v-4.3c0-1.2,0-2.5-0.1-3.9c0-1.4-0.1-2.6-0.3-3.8c0.8,0.1,1.4,0.2,1.9,0.2c0.2,0,0.5,0,0.7-0.1
			c0.3,0,0.6-0.1,0.9-0.1c-0.1,1.1-0.1,2.2-0.1,3.3h0.1c0.8-1.2,1.7-2.1,2.8-2.7c1.1-0.6,2.4-1,3.9-1c0.8,0,1.6,0.1,2.3,0.3
			c0.8,0.2,1.5,0.6,2.1,1.1c0.6,0.5,1.2,1.3,1.6,2.2c0.4,0.9,0.6,2.1,0.6,3.5c0,1.2,0,2.4-0.1,3.7c-0.1,1.3-0.1,2.6-0.1,4v2.7
			c0,0.4,0,0.9,0,1.3c0,0.4,0,0.8,0.1,1.2c-0.6-0.1-1.1-0.1-1.8-0.1c-0.6,0-1.2,0-1.7,0.1c0.1-1.4,0.1-2.9,0.2-4.4
			c0.1-1.5,0.1-3.1,0.1-4.7v-2.5C104.6,111.9,104.2,110.3,103.4,109.3z"/>
		<path class="st1" d="M117.9,100.4c-0.1,1-0.1,2.1-0.2,3.1c0,1-0.1,2-0.1,3c0.3,0,0.9,0,1.7,0c0.8,0,1.7,0,2.7-0.1
			c0,0.1,0,0.2,0,0.5v0.4v0.5c0,0.2,0,0.3,0,0.4c-0.4,0-0.7,0-1.1-0.1c-0.4,0-0.8,0-1.2,0h-2c0,0.1-0.1,0.5-0.1,1.3
			c0,0.8-0.1,1.7-0.1,2.7c0,1.1,0,2.2-0.1,3.3c0,1.2,0,2.2,0,3.1c0,0.8,0,1.5,0.1,2.3c0,0.7,0.2,1.4,0.4,2c0.2,0.6,0.5,1.1,1,1.4
			c0.4,0.4,1.1,0.5,1.9,0.5c0.2,0,0.5,0,0.9-0.1c0.4-0.1,0.7-0.1,1-0.2v1c-0.5,0.1-1,0.2-1.5,0.3c-0.6,0.1-1.1,0.2-1.6,0.2
			c-1.7,0-3-0.4-3.8-1.3c-0.8-0.9-1.2-2.1-1.2-3.8c0-0.7,0-1.5,0-2.4c0-0.9,0.1-1.8,0.1-2.8c0-1,0.1-2.2,0.1-3.4c0-1.3,0-2.6,0-4.2
			h-1.3c-0.2,0-0.5,0-0.7,0c-0.2,0-0.5,0-0.8,0.1c0-0.2,0-0.3,0.1-0.5c0-0.2,0-0.3,0-0.5c0-0.1,0-0.3,0-0.4c0-0.1,0-0.3-0.1-0.4
			c1.2,0.1,2.1,0.1,2.7,0.1c0-0.5,0-1.2-0.1-2.1c0-0.8,0-1.7-0.1-2.6l3.4-1.4H117.9z"/>
		<path class="st1" d="M130.4,122.7c-0.5-1.2-1-2.4-1.5-3.7c-0.6-1.3-1.1-2.6-1.7-4c-0.6-1.4-1.1-2.6-1.6-3.8
			c-0.5-1.2-1-2.2-1.3-3.2c-0.4-0.9-0.7-1.6-0.9-2c0.4,0.1,0.7,0.1,1,0.1c0.3,0,0.6,0.1,0.9,0.1c0.3,0,0.6,0,0.9-0.1
			c0.3,0,0.6-0.1,1-0.1c0.9,2.6,1.8,5.3,2.8,7.8c1,2.6,2.1,5.3,3.3,8c1.2-2.4,2.3-5,3.3-7.8c1.1-2.8,2-5.4,2.8-8.1
			c0.6,0.1,1,0.2,1.4,0.2c0.4,0,0.8-0.1,1.4-0.2c-0.2,0.4-0.5,1-0.9,2s-0.9,2-1.5,3.3c-0.6,1.3-1.2,2.7-1.9,4.2
			c-0.7,1.6-1.4,3.2-2.1,4.8c-0.7,1.6-1.5,3.3-2.2,4.9c-0.7,1.6-1.4,3.1-2,4.6c-0.6,1.4-1.1,2.8-1.6,3.9c-0.5,1.2-0.8,2.1-1,2.8
			c-0.6-0.1-1-0.2-1.4-0.2c-0.4,0-0.9,0.1-1.4,0.2c2.2-3.6,4-7.2,5.5-10.8C131.3,124.8,130.9,123.9,130.4,122.7z"/>
		<path class="st1" d="M1.3,137.5c-0.1-1.7-0.1-3.5-0.2-5.3c0.4,0.1,0.7,0.1,1,0.1c0.3,0,0.7,0.1,1,0.1c0.3,0,0.7,0,1-0.1
			c0.3,0,0.7-0.1,1-0.1c-0.1,1.8-0.2,3.6-0.2,5.3c-0.1,1.7-0.1,3.5-0.1,5.3c0,3.5,0,6.5,0,9c0,2.5,0.1,4.8,0.1,6.8
			c2,0,3.8,0,5.6-0.1c1.8,0,3.7-0.2,5.8-0.5c-0.1,0.5-0.2,0.9-0.2,1.2c0,0.3,0.1,0.7,0.2,1.1c-1.3-0.1-2.5-0.1-3.8-0.1
			c-1.3,0-2.5,0-3.8,0c-1.3,0-2.6,0-3.8,0c-1.2,0-2.5,0-3.8,0.1c0.1-1.7,0.2-3.4,0.2-5.2c0.1-1.8,0.1-3.5,0.1-5.4v-7.1
			C1.4,141,1.4,139.2,1.3,137.5z"/>
		<path class="st1" d="M20.2,132.2c0.4-0.4,0.9-0.6,1.5-0.6c0.6,0,1.1,0.2,1.5,0.6c0.4,0.4,0.6,0.9,0.6,1.5c0,0.6-0.2,1.1-0.6,1.5
			c-0.4,0.4-0.9,0.6-1.5,0.6c-0.6,0-1.1-0.2-1.5-0.6c-0.4-0.4-0.6-0.9-0.6-1.5C19.6,133.1,19.8,132.7,20.2,132.2z M20.1,144.7
			c0-1.4-0.1-2.6-0.3-3.8c0.8,0.1,1.4,0.2,1.9,0.2c0.5,0,1.1-0.1,1.9-0.2c-0.1,1.2-0.2,2.5-0.3,3.8c0,1.4-0.1,2.7-0.1,3.9v4.3
			c0,1.2,0,2.5,0.1,3.9c0,1.4,0.1,2.6,0.3,3.7c-0.6-0.1-1.3-0.1-1.9-0.1c-0.6,0-1.2,0-1.9,0.1c0.1-1.1,0.2-2.3,0.3-3.7
			c0-1.4,0.1-2.7,0.1-3.9v-4.3C20.2,147.4,20.2,146.1,20.1,144.7z"/>
		<path class="st1" d="M47.9,154.6c-0.5,1.3-1.1,2.5-2,3.4c-0.8,0.9-1.8,1.7-3,2.2c-1.1,0.5-2.4,0.8-3.7,0.8c-1.3,0-2.5-0.3-3.6-0.8
			c-1.1-0.6-1.9-1.2-2.4-2c-1,0.8-1.9,1.6-2.8,2.4h-0.7c0.1-0.7,0.1-1.5,0.1-2.4c0-0.9,0.1-1.9,0.1-3c0-1.1,0-2.1,0.1-3.2
			c0-1.1,0-2.1,0-3.1v-7.5c0-0.9,0-2,0-3.1c0-1.1,0-2.2-0.1-3.3c0-1.1-0.1-2.1-0.1-3.1c0-1-0.1-1.8-0.1-2.5c0.8,0.1,1.4,0.2,1.9,0.2
			c0.3,0,0.6,0,0.9-0.1c0.3,0,0.7-0.1,1.1-0.1c-0.1,0.5-0.2,1.4-0.2,2.6c-0.1,1.2-0.1,2.5-0.1,4c0,1.5-0.1,3-0.1,4.5
			c0,1.6-0.1,3-0.1,4.2h0.1c0.9-1.5,2-2.6,3.1-3.3c1.1-0.7,2.4-1,3.9-1c1.4,0,2.7,0.3,3.7,0.8c1,0.5,1.9,1.2,2.6,2.1
			c0.7,0.9,1.2,1.9,1.5,3.1c0.3,1.2,0.5,2.4,0.5,3.7C48.7,151.8,48.4,153.2,47.9,154.6z M44.5,146.7c-0.3-1-0.7-1.8-1.2-2.5
			c-0.5-0.7-1.1-1.2-1.8-1.5c-0.7-0.3-1.4-0.5-2.1-0.5c-0.9,0-1.7,0.2-2.5,0.5c-0.8,0.3-1.5,0.8-2,1.6c-0.6,0.7-1,1.7-1.4,2.8
			c-0.3,1.2-0.5,2.6-0.5,4.3c0,5.5,2,8.3,6,8.3c0.9,0,1.6-0.2,2.4-0.7c0.7-0.5,1.3-1.1,1.9-2c0.5-0.9,1-1.9,1.3-3.1
			c0.3-1.2,0.5-2.5,0.5-4C45,148.8,44.9,147.7,44.5,146.7z"/>
		<path class="st1" d="M61.1,143.8c-0.4-0.1-0.8-0.2-1.2-0.2c-0.7,0-1.3,0.2-1.8,0.5c-0.5,0.3-1,0.7-1.3,1.2
			c-0.4,0.5-0.6,1.1-0.8,1.8c-0.2,0.7-0.3,1.5-0.3,2.2v4.5c0,1.8,0,3.3,0,4.2c0,1,0.1,1.8,0.1,2.4c-0.6-0.1-1.1-0.1-1.7-0.1
			c-0.6,0-1.2,0-1.7,0.1c0.1-0.9,0.1-2.2,0.1-3.8c0-1.6,0-3.6,0-5.9v-1.3c0-1.1,0-2.3,0-3.7c0-1.4-0.1-3-0.1-4.8
			c0.3,0.1,0.6,0.1,0.9,0.1c0.3,0,0.6,0.1,0.9,0.1c0.2,0,0.5,0,0.8-0.1c0.3,0,0.6-0.1,0.9-0.1c-0.1,1-0.2,1.8-0.2,2.4
			c0,0.6,0,1.1,0,1.6l0.1,0c1.6-3,3.4-4.5,5.4-4.5c0.2,0,0.5,0,0.6,0c0.2,0,0.4,0.1,0.7,0.2c-0.1,0.3-0.2,0.8-0.2,1.5
			c0,0.7,0,1.3,0,1.8l-0.3,0.2C61.8,144.1,61.5,144,61.1,143.8z"/>
		<path class="st1" d="M69.5,141c1-0.3,2.1-0.5,3.2-0.5c1,0,1.9,0.1,2.7,0.4c0.8,0.3,1.5,0.7,2.1,1.2c0.6,0.5,1,1.2,1.4,1.9
			c0.3,0.8,0.5,1.6,0.5,2.5c0,1.6,0,3.1-0.1,4.7c-0.1,1.6-0.1,3.2-0.1,4.9c0,0.3,0,0.7,0,1.1c0,0.4,0.1,0.7,0.2,1
			c0.1,0.3,0.3,0.5,0.5,0.7c0.2,0.2,0.5,0.3,0.9,0.3c0.1,0,0.3,0,0.4,0c0.2,0,0.3-0.1,0.4-0.1v0.9c-0.3,0.1-0.7,0.2-1.1,0.3
			c-0.5,0.1-1,0.1-1.5,0.1c-0.9,0-1.6-0.2-2.1-0.7c-0.5-0.5-0.8-1-0.8-1.8c-1,1-2,1.7-2.9,2.2c-1,0.5-2.1,0.7-3.5,0.7
			c-0.7,0-1.4-0.1-2-0.3c-0.7-0.2-1.2-0.5-1.7-0.9c-0.5-0.4-0.9-1-1.2-1.6c-0.3-0.6-0.5-1.3-0.5-2.1c0-1.7,0.5-2.9,1.5-3.8
			c1-0.9,2.4-1.5,4.3-1.8c1.5-0.2,2.6-0.5,3.5-0.6c0.8-0.2,1.5-0.4,1.9-0.6c0.4-0.2,0.6-0.4,0.7-0.7c0.1-0.3,0.1-0.6,0.1-1
			c0-0.7-0.1-1.3-0.2-2c-0.2-0.6-0.4-1.2-0.8-1.7c-0.4-0.5-0.8-0.8-1.4-1.1c-0.6-0.3-1.3-0.4-2.1-0.4c-1.1,0-2.1,0.2-3.1,0.7
			c-0.9,0.5-1.7,1.2-2.1,2.1h-0.5v-2.1C67.3,142,68.5,141.3,69.5,141z M74.7,150.6c-0.6,0.1-1.2,0.2-1.9,0.4
			c-0.6,0.1-1.3,0.3-1.9,0.5c-0.6,0.2-1.2,0.5-1.6,0.8c-0.5,0.3-0.9,0.7-1.1,1.2c-0.3,0.5-0.4,1.1-0.4,1.9c0,1.3,0.4,2.3,1.1,2.9
			c0.7,0.7,1.6,1,2.5,1c1,0,2-0.3,2.9-0.9c0.9-0.6,1.5-1.3,2-2l0.2-6.2C75.8,150.4,75.3,150.5,74.7,150.6z"/>
		<path class="st1" d="M95,143.8c-0.4-0.1-0.8-0.2-1.2-0.2c-0.7,0-1.3,0.2-1.8,0.5c-0.5,0.3-1,0.7-1.3,1.2c-0.4,0.5-0.6,1.1-0.8,1.8
			c-0.2,0.7-0.3,1.5-0.3,2.2v4.5c0,1.8,0,3.3,0,4.2c0,1,0.1,1.8,0.1,2.4c-0.6-0.1-1.1-0.1-1.7-0.1c-0.6,0-1.2,0-1.7,0.1
			c0.1-0.9,0.1-2.2,0.1-3.8c0-1.6,0-3.6,0-5.9v-1.3c0-1.1,0-2.3,0-3.7c0-1.4-0.1-3-0.1-4.8c0.3,0.1,0.6,0.1,0.9,0.1
			c0.3,0,0.6,0.1,0.9,0.1c0.2,0,0.5,0,0.8-0.1c0.3,0,0.6-0.1,0.9-0.1c-0.1,1-0.2,1.8-0.2,2.4c0,0.6,0,1.1,0,1.6l0.1,0
			c1.6-3,3.4-4.5,5.4-4.5c0.2,0,0.5,0,0.6,0c0.2,0,0.4,0.1,0.7,0.2c-0.1,0.3-0.2,0.8-0.2,1.5c0,0.7,0,1.3,0,1.8l-0.3,0.2
			C95.7,144.1,95.4,144,95,143.8z"/>
		<path class="st1" d="M101.2,132.2c0.4-0.4,0.9-0.6,1.5-0.6c0.6,0,1.1,0.2,1.5,0.6c0.4,0.4,0.6,0.9,0.6,1.5c0,0.6-0.2,1.1-0.6,1.5
			c-0.4,0.4-0.9,0.6-1.5,0.6c-0.6,0-1.1-0.2-1.5-0.6c-0.4-0.4-0.6-0.9-0.6-1.5C100.6,133.1,100.8,132.7,101.2,132.2z M101.1,144.7
			c0-1.4-0.1-2.6-0.3-3.8c0.8,0.1,1.4,0.2,1.9,0.2c0.5,0,1.1-0.1,1.9-0.2c-0.1,1.2-0.2,2.5-0.3,3.8c0,1.4-0.1,2.7-0.1,3.9v4.3
			c0,1.2,0,2.5,0.1,3.9c0,1.4,0.1,2.6,0.3,3.7c-0.6-0.1-1.3-0.1-1.9-0.1c-0.6,0-1.2,0-1.9,0.1c0.1-1.1,0.2-2.3,0.3-3.7
			c0-1.4,0.1-2.7,0.1-3.9v-4.3C101.2,147.4,101.2,146.1,101.1,144.7z"/>
		<path class="st1" d="M110.2,143.4c1.6-1.9,4-2.9,7-2.9c1.5,0,2.7,0.2,3.8,0.7c1.1,0.5,1.9,1.1,2.7,1.8c0.7,0.8,1.2,1.6,1.6,2.7
			c0.3,1,0.5,2.1,0.5,3.3c0,0.3,0,0.5,0,0.8c0,0.3,0,0.5-0.1,0.8c-1.5,0-3-0.1-4.4-0.1c-1.5,0-2.9,0-4.4,0c-0.9,0-1.8,0-2.7,0
			c-0.9,0-1.8,0.1-2.7,0.1c0,0.1,0,0.3,0,0.6v0.5c0,1.1,0.2,2.1,0.5,3c0.3,0.9,0.8,1.7,1.4,2.4c0.6,0.7,1.3,1.2,2.2,1.6
			c0.9,0.4,1.9,0.6,3.1,0.6c0.5,0,1.1-0.1,1.7-0.2c0.6-0.1,1.1-0.4,1.7-0.6c0.5-0.3,1.1-0.6,1.5-0.9c0.5-0.4,0.9-0.7,1.3-1.2
			l0.2,0.1l-0.2,2c-0.8,0.7-1.9,1.2-3.1,1.7c-1.2,0.5-2.5,0.7-3.8,0.7c-1.5,0-2.8-0.2-4.1-0.7c-1.2-0.5-2.3-1.1-3.2-2
			c-0.9-0.9-1.6-1.9-2.1-3.1c-0.5-1.2-0.7-2.5-0.7-3.8C107.8,148,108.6,145.3,110.2,143.4z M114.8,142.5c-0.7,0.5-1.3,1.1-1.7,1.8
			c-0.5,0.7-0.8,1.5-1,2.3c-0.2,0.8-0.4,1.6-0.4,2.4c0.9,0,1.7,0.1,2.7,0.1c0.9,0,1.8,0,2.7,0c0.9,0,1.8,0,2.8,0
			c0.9,0,1.8-0.1,2.7-0.1c0-0.7-0.1-1.5-0.2-2.4c-0.1-0.8-0.4-1.6-0.7-2.3c-0.4-0.7-0.9-1.3-1.5-1.8c-0.7-0.5-1.5-0.7-2.6-0.7
			C116.3,141.8,115.5,142,114.8,142.5z"/>
		<path class="st1" d="M130.6,157.6c0.3,0.3,0.6,0.6,1,0.9c0.4,0.3,0.9,0.5,1.4,0.7c0.5,0.2,1.1,0.3,1.6,0.3c0.5,0,1-0.1,1.5-0.2
			c0.5-0.2,0.9-0.4,1.3-0.7c0.4-0.3,0.7-0.7,0.9-1.2c0.2-0.5,0.3-1,0.3-1.6c0-0.9-0.2-1.5-0.7-2c-0.5-0.5-1.1-0.8-1.8-1.1
			c-0.7-0.3-1.5-0.5-2.4-0.8c-0.9-0.2-1.6-0.5-2.4-0.9c-0.7-0.4-1.3-0.9-1.8-1.6c-0.5-0.7-0.7-1.6-0.7-2.7c0-0.9,0.2-1.7,0.5-2.5
			c0.3-0.8,0.7-1.4,1.3-2c0.6-0.6,1.3-1,2.1-1.3c0.9-0.3,1.8-0.5,2.9-0.5c1,0,1.9,0.1,2.6,0.4c0.7,0.3,1.4,0.5,2,0.7
			c-0.2,0.4-0.4,0.9-0.6,1.5c-0.2,0.6-0.3,1.1-0.4,1.4h-0.5c-0.2-0.7-0.6-1.3-1.3-1.8c-0.6-0.5-1.4-0.8-2.4-0.8
			c-0.4,0-0.8,0.1-1.2,0.2c-0.4,0.1-0.8,0.3-1.1,0.6c-0.3,0.3-0.6,0.6-0.8,1.1c-0.2,0.4-0.3,1-0.3,1.6c0,0.9,0.2,1.6,0.7,2
			c0.5,0.5,1.1,0.9,1.8,1.1c0.7,0.3,1.5,0.5,2.4,0.7c0.9,0.2,1.6,0.5,2.4,0.9c0.7,0.4,1.3,0.9,1.8,1.5c0.5,0.7,0.7,1.6,0.7,2.7
			c0,0.8-0.2,1.6-0.5,2.4c-0.3,0.8-0.8,1.5-1.5,2.1c-0.6,0.6-1.4,1.1-2.3,1.4c-0.9,0.3-1.9,0.5-3.1,0.5c-1.3,0-2.3-0.1-3.2-0.4
			c-0.9-0.2-1.6-0.5-2.1-0.9c0.2-0.4,0.3-0.8,0.5-1.5c0.2-0.6,0.3-1.1,0.3-1.5h0.5C130.1,156.9,130.3,157.2,130.6,157.6z"/>
	</g>
	<path class="st2" d="M99.5,55.9c0,0,15.6-1.4,46.2,10.3c0,0,6.6-43.2,44.7-64.5C190.4,1.8,126.9-15.2,99.5,55.9z"/>
	<path class="st3" d="M199.7,4.8c0,0-25.4,20.6-35,40.2c-8.1,16.4-8.4,25.4-4.8,42.6c0,0,33-32.4,91.6-22
		C251.5,65.6,241.7,15.8,199.7,4.8z"/>
</g>
</svg>
