<?xml version="1.0" encoding="utf-8"?>
<!-- Generator: Adobe Illustrator 25.3.1, SVG Export Plug-In . SVG Version: 6.00 Build 0)  -->
<svg version="1.1" id="Layer_1" xmlns="http://www.w3.org/2000/svg" xmlns:xlink="http://www.w3.org/1999/xlink" x="0px" y="0px"
	 viewBox="0 0 490.5 63.9" style="enable-background:new 0 0 490.5 63.9;" xml:space="preserve">
<style type="text/css">
	.st0{fill:#4B0D62;}
	.st1{fill:#4A0D62;}
	.st2{fill:#7CA441;}
	.st3{fill:#007B84;}
	.st4{display:none;}
	.st5{display:inline;fill:#4A0D62;}
	.st6{display:inline;}
	.st7{display:inline;fill:#7CA441;}
	.st8{display:inline;fill:#007B84;}
</style>
<path class="st0" d="M0.2,29.9c-0.1-1.7-0.1-3.5-0.2-5.3c1,0.1,2.1,0.1,3.1,0.1c1,0,2.1,0.1,3.1,0.1c1,0,2.1,0,3.1-0.1
	c1-0.1,2.1-0.1,3.1-0.1c2.4,0,4.5,0.3,6.2,0.9c1.7,0.6,3.1,1.5,4.2,2.7c1.1,1.2,1.9,2.6,2.4,4.3c0.5,1.7,0.8,3.6,0.8,5.7
	c0,2.8-0.5,5.1-1.4,7c-0.9,1.9-2.2,3.4-3.6,4.6c-1.5,1.2-3.1,2-4.9,2.5c-1.8,0.5-3.5,0.7-5.1,0.7c-0.9,0-1.9,0-2.8,0
	c-0.9,0-1.8,0-2.8,0c-0.9,0-1.9,0-2.8,0c-0.9,0-1.8,0-2.8,0.1c0.1-1.7,0.2-3.4,0.2-5.2c0.1-1.8,0.1-3.5,0.1-5.4v-7.1
	C0.3,33.4,0.3,31.7,0.2,29.9z M4,51.1c0.6,0.1,1.4,0.2,2.4,0.3c1,0.1,2,0.1,3.1,0.1c1.5,0,3-0.2,4.5-0.5c1.5-0.4,2.9-1,4.1-2
	c1.2-1,2.2-2.3,2.9-4.1c0.8-1.7,1.1-3.9,1.1-6.7c0-2.4-0.3-4.4-0.9-5.9c-0.6-1.5-1.4-2.8-2.4-3.7c-1-0.9-2.3-1.5-3.7-1.9
	c-1.4-0.3-3-0.5-4.7-0.5c-1.2,0-2.4,0-3.5,0.1c-1.1,0.1-2,0.2-2.9,0.3c-0.1,1.3-0.1,2.7-0.2,4.1c0,1.4-0.1,2.9-0.1,4.4v7.1
	C3.7,45.3,3.8,48.2,4,51.1z"/>
<path class="st0" d="M30.7,38.4c0.6-1.3,1.4-2.4,2.3-3.2c1-0.8,2-1.4,3.2-1.8c1.2-0.4,2.4-0.6,3.6-0.6c1.2,0,2.4,0.2,3.6,0.6
	c1.2,0.4,2.3,1,3.2,1.8c1,0.8,1.7,1.9,2.3,3.2c0.6,1.3,0.9,2.9,0.9,4.8c0,1.9-0.3,3.5-0.9,4.8c-0.6,1.3-1.4,2.4-2.3,3.2
	c-1,0.8-2,1.4-3.2,1.7c-1.2,0.3-2.4,0.5-3.6,0.5c-1.2,0-2.4-0.2-3.6-0.5c-1.2-0.3-2.3-0.9-3.2-1.7c-1-0.8-1.7-1.9-2.3-3.2
	c-0.6-1.3-0.9-2.9-0.9-4.8C29.8,41.3,30.1,39.7,30.7,38.4z M33.8,46.5c0.2,1.1,0.6,2,1.1,2.9c0.5,0.8,1.2,1.5,2,2
	c0.8,0.5,1.8,0.7,3.1,0.7c1.2,0,2.2-0.2,3.1-0.7c0.8-0.5,1.5-1.2,2-2c0.5-0.8,0.8-1.8,1.1-2.9c0.2-1.1,0.3-2.2,0.3-3.3
	c0-1.2-0.1-2.3-0.3-3.3c-0.2-1.1-0.6-2-1.1-2.9c-0.5-0.8-1.2-1.5-2-2c-0.8-0.5-1.8-0.7-3.1-0.7c-1.2,0-2.2,0.2-3.1,0.7
	c-0.8,0.5-1.5,1.2-2,2c-0.5,0.8-0.8,1.8-1.1,2.9c-0.2,1.1-0.3,2.2-0.3,3.3C33.5,44.3,33.6,45.4,33.8,46.5z"/>
<path class="st0" d="M54.5,42.9c0-1,0.1-2.1,0.1-3.1c0-1,0-2,0-3.1c0-1.1,0-2.3-0.1-3.4c0.7,0.1,1.3,0.2,1.7,0.2
	c0.4,0,1-0.1,1.7-0.2c-0.1,1.6-0.2,3.5-0.3,5.4c-0.1,2-0.1,4-0.1,6c0,1.4,0.1,2.5,0.4,3.3c0.2,0.8,0.6,1.3,0.9,1.7
	c0.4,0.4,0.9,0.8,1.5,1.1c0.6,0.3,1.3,0.4,2.1,0.4c1.2,0,2.1-0.3,2.9-0.8c0.8-0.5,1.3-1.1,1.7-1.9c0.2-0.5,0.3-0.9,0.5-1.2
	c0.1-0.3,0.2-0.8,0.3-1.3c0.1-0.5,0.1-1.3,0.1-2.2c0-0.9,0-2.2,0-3.8v-3.5c0-0.6,0-1.2,0-1.7c0-0.5,0-1.1-0.1-1.6
	c0.3,0.1,0.6,0.1,0.9,0.1c0.3,0,0.6,0.1,0.9,0.1c0.3,0,0.6,0,0.9-0.1c0.3,0,0.6-0.1,0.8-0.1c-0.1,2.1-0.2,4.2-0.2,6.2
	c0,2,0,4.1,0,6.3c0,1.2,0,2.4,0,3.6c0,1.2,0.1,2.3,0.1,3.4c-0.5-0.1-1.1-0.1-1.6-0.1c-0.5,0-1.1,0-1.6,0.1c0-0.2,0-0.5,0.1-0.8
	c0-0.3,0-0.6,0-0.9v-1.8h-0.1c-0.7,1.3-1.6,2.3-2.8,2.9c-1.1,0.6-2.4,0.9-3.7,0.9c-2.1,0-3.8-0.6-5.1-1.7c-1.2-1.1-1.8-2.8-1.8-4.9
	C54.5,45.2,54.5,44,54.5,42.9z"/>
<path class="st0" d="M77,36.6c0.4-0.8,1-1.5,1.7-2.1c0.7-0.5,1.6-1,2.5-1.2c0.9-0.3,2-0.4,3-0.4c0.5,0,1,0,1.5,0
	c0.5,0,1.1,0.1,1.8,0.1c0.6,0.1,1.2,0.1,1.7,0.1c0.5,0,0.9,0,1.2,0c1.5,0,2.7-0.1,3.3-0.2c0,0.1,0,0.3-0.1,0.4c0,0.2,0,0.3,0,0.4
	c0,0.1,0,0.3,0,0.4c0,0.2,0,0.3,0.1,0.4c-0.8-0.1-1.6-0.1-2.3-0.2c-0.8-0.1-1.5-0.1-2.2-0.1l-0.1,0.1c0.9,0.5,1.5,1.2,2.1,2.2
	c0.5,1,0.8,2,0.8,3c0,2.1-0.7,3.7-2.1,4.8c-1.4,1.2-3.3,1.8-5.6,1.8c-0.4,0-0.8,0-1.1,0c-0.4,0-0.8,0-1.1,0c-0.5,0-1,0.2-1.4,0.5
	c-0.4,0.4-0.6,0.8-0.6,1.4c0,0.7,0.2,1.2,0.5,1.6c0.3,0.3,1,0.5,1.9,0.5c0.8,0,1.5,0,2.3,0.1c0.7,0,1.5,0,2.3,0.1
	c1.3,0,2.3,0.2,3.2,0.5c0.9,0.3,1.6,0.6,2.2,1.1c0.6,0.5,1,1,1.2,1.6c0.3,0.6,0.4,1.3,0.4,2c0,1-0.2,1.9-0.6,2.9
	c-0.4,1-0.9,1.9-1.7,2.7c-0.8,0.8-1.8,1.5-3,2c-1.2,0.5-2.7,0.8-4.5,0.8c-2.7,0-4.8-0.5-6.3-1.6c-1.5-1.1-2.3-2.5-2.3-4.4
	c0-0.7,0.1-1.4,0.4-2c0.3-0.6,0.6-1.1,1-1.6c0.4-0.5,0.9-0.8,1.4-1.1c0.5-0.3,1.1-0.5,1.6-0.6v-0.1c-0.9-0.2-1.5-0.7-1.9-1.2
	c-0.4-0.6-0.7-1.3-0.7-2.1c0-0.5,0.1-0.9,0.3-1.3c0.2-0.4,0.4-0.7,0.7-1c0.3-0.3,0.6-0.5,0.9-0.7c0.4-0.2,0.7-0.3,1-0.4v-0.1
	c-1.3-0.5-2.3-1.3-3-2.3c-0.7-1-1.1-2.3-1.1-3.8C76.3,38.5,76.5,37.5,77,36.6z M89.5,53.8c-1-0.7-2.6-1-4.8-1c-2.1,0-3.7,0.3-4.8,1
	c-1.1,0.7-1.7,1.9-1.7,3.7c0,0.9,0.2,1.7,0.5,2.4c0.3,0.7,0.7,1.2,1.3,1.6c0.5,0.4,1.2,0.7,1.9,0.9c0.7,0.2,1.5,0.3,2.4,0.3
	c0.8,0,1.6-0.1,2.4-0.3c0.8-0.2,1.5-0.5,2.1-1c0.6-0.4,1.1-1,1.5-1.7c0.4-0.7,0.6-1.5,0.6-2.4C91,55.6,90.5,54.5,89.5,53.8z
	 M87.5,35.5c-0.8-0.9-1.9-1.4-3.3-1.4c-1.5,0-2.6,0.5-3.5,1.5c-0.8,1-1.2,2.3-1.2,4c0,1.7,0.4,3.1,1.1,4.1c0.8,1,1.9,1.5,3.5,1.5
	c0.8,0,1.5-0.2,2-0.5c0.6-0.3,1-0.7,1.4-1.3c0.4-0.5,0.6-1.2,0.8-1.9c0.2-0.7,0.3-1.4,0.3-2.2C88.8,37.7,88.3,36.4,87.5,35.5z"/>
<path class="st0" d="M99.1,30.6c0-1.1,0-2.2-0.1-3.3c0-1.1-0.1-3.5-0.1-4.4c0-1-0.1-1.8-0.1-2.5c0.8,0.1,1.4,0.2,1.9,0.2
	s1.1-0.1,1.9-0.2c-0.1,0.7-0.1,1.5-0.1,2.5c0,1-0.1,3.4-0.1,4.4c0,1.1,0,2.2-0.1,3.3c0,1.1,0,2.1,0,3.1v7.5c0,0.9,0,2,0,3.1
	c0,1.1,0,2.2,0.1,3.3c0,1.1,0.1,2.1,0.1,3.1c0,1,0.1,1.8,0.1,2.4c-0.6-0.1-1.3-0.1-1.9-0.1c-0.6,0-1.2,0-1.9,0.1
	c0.1-0.6,0.1-1.4,0.1-2.4c0-1,0.1-2,0.1-3.1c0-1.1,0-2.2,0.1-3.3c0-1.1,0-2.1,0-3.1v-7.5C99.1,32.8,99.1,31.7,99.1,30.6z"/>
<path class="st0" d="M113.3,33.4c1-0.3,2.1-0.5,3.2-0.5c1,0,1.9,0.1,2.7,0.4c0.8,0.3,1.5,0.7,2.1,1.2c0.6,0.5,1,1.2,1.4,1.9
	c0.3,0.8,0.5,1.6,0.5,2.5c0,1.6,0,3.1-0.1,4.7c-0.1,1.6-0.1,3.2-0.1,4.9c0,0.3,0,0.7,0,1.1c0,0.4,0.1,0.7,0.2,1
	c0.1,0.3,0.3,0.5,0.5,0.7c0.2,0.2,0.5,0.3,0.9,0.3c0.1,0,0.3,0,0.4,0c0.1,0,0.3-0.1,0.4-0.1v0.9c-0.3,0.1-0.7,0.2-1.1,0.3
	c-0.5,0.1-1,0.1-1.5,0.1c-0.9,0-1.6-0.2-2.1-0.7c-0.5-0.5-0.8-1-0.8-1.8c-1,1-2,1.7-2.9,2.2s-2.1,0.7-3.5,0.7c-0.7,0-1.4-0.1-2-0.3
	c-0.7-0.2-1.2-0.5-1.7-0.9c-0.5-0.4-0.9-1-1.2-1.6c-0.3-0.6-0.5-1.3-0.5-2.1c0-1.7,0.5-2.9,1.5-3.8c1-0.9,2.4-1.5,4.3-1.8
	c1.5-0.2,2.6-0.5,3.5-0.6c0.8-0.2,1.5-0.4,1.9-0.6c0.4-0.2,0.6-0.4,0.7-0.7c0.1-0.3,0.1-0.6,0.1-1c0-0.7-0.1-1.3-0.2-2
	c-0.2-0.6-0.4-1.2-0.8-1.7c-0.4-0.5-0.8-0.8-1.4-1.1c-0.6-0.3-1.3-0.4-2.1-0.4c-1.1,0-2.1,0.2-3.1,0.7c-1,0.5-1.7,1.2-2.1,2.1h-0.5
	v-2.1C111.1,34.4,112.3,33.7,113.3,33.4z M118.5,43.1c-0.6,0.1-1.2,0.2-1.9,0.4c-0.6,0.1-1.3,0.3-1.9,0.5c-0.6,0.2-1.2,0.5-1.6,0.8
	c-0.5,0.3-0.9,0.7-1.1,1.2c-0.3,0.5-0.4,1.1-0.4,1.9c0,1.3,0.4,2.3,1.1,2.9c0.7,0.7,1.6,1,2.5,1c1,0,2-0.3,2.9-0.9
	c0.9-0.6,1.5-1.3,2-2l0.2-6.2C119.6,42.8,119.1,42.9,118.5,43.1z"/>
<path class="st0" d="M130.6,50c0.3,0.3,0.6,0.6,1,0.9c0.4,0.3,0.9,0.5,1.4,0.7c0.5,0.2,1.1,0.3,1.6,0.3c0.5,0,1-0.1,1.5-0.2
	c0.5-0.2,0.9-0.4,1.3-0.7c0.4-0.3,0.7-0.7,0.9-1.2c0.2-0.5,0.3-1,0.3-1.6c0-0.9-0.2-1.5-0.7-2c-0.5-0.5-1.1-0.8-1.8-1.1
	c-0.7-0.3-1.5-0.5-2.4-0.8c-0.9-0.2-1.6-0.5-2.4-0.9c-0.7-0.4-1.3-0.9-1.8-1.6c-0.5-0.7-0.7-1.6-0.7-2.7c0-0.9,0.2-1.7,0.5-2.5
	c0.3-0.8,0.7-1.4,1.3-2c0.6-0.6,1.3-1,2.1-1.3c0.9-0.3,1.8-0.5,2.9-0.5c1,0,1.9,0.1,2.6,0.4c0.7,0.3,1.4,0.5,2,0.7
	c-0.2,0.4-0.4,0.9-0.6,1.5c-0.2,0.6-0.3,1.1-0.4,1.4h-0.5c-0.2-0.7-0.6-1.3-1.3-1.8c-0.6-0.5-1.4-0.8-2.4-0.8
	c-0.4,0-0.8,0.1-1.2,0.2c-0.4,0.1-0.8,0.3-1.1,0.6c-0.3,0.3-0.6,0.6-0.8,1.1c-0.2,0.4-0.3,1-0.3,1.6c0,0.9,0.2,1.6,0.7,2
	c0.5,0.5,1.1,0.9,1.8,1.1c0.7,0.3,1.5,0.5,2.4,0.7c0.9,0.2,1.6,0.5,2.4,0.9c0.7,0.4,1.3,0.9,1.8,1.5c0.5,0.7,0.7,1.6,0.7,2.7
	c0,0.8-0.2,1.6-0.5,2.4c-0.3,0.8-0.8,1.5-1.5,2.1c-0.6,0.6-1.4,1.1-2.3,1.4c-0.9,0.3-1.9,0.5-3.1,0.5c-1.3,0-2.3-0.1-3.2-0.4
	c-0.9-0.2-1.6-0.5-2.1-0.9c0.2-0.4,0.3-0.8,0.5-1.5c0.2-0.6,0.3-1.1,0.3-1.5h0.5C130.1,49.4,130.3,49.7,130.6,50z"/>
<path class="st0" d="M181,52c-0.5,0.3-1.2,0.5-1.9,0.7c-0.8,0.2-1.6,0.4-2.5,0.6c-0.9,0.2-1.9,0.2-2.9,0.2c-2.2,0-4.2-0.3-6-0.9
	c-1.8-0.6-3.4-1.6-4.8-2.8c-1.3-1.3-2.4-2.8-3.1-4.6c-0.8-1.8-1.1-3.9-1.1-6.3c0-2.3,0.4-4.4,1.1-6.3c0.8-1.8,1.8-3.4,3.2-4.6
	c1.4-1.3,3-2.2,4.9-2.9c1.9-0.7,4-1,6.3-1c1.8,0,3.5,0.2,5,0.6c1.5,0.4,2.8,0.8,4,1.3c-0.2,0.4-0.4,0.9-0.5,1.6
	c-0.1,0.7-0.2,1.2-0.3,1.6l-0.2,0.1c-0.3-0.3-0.7-0.7-1.2-1.1c-0.5-0.4-1.1-0.8-1.7-1.2c-0.7-0.4-1.4-0.7-2.2-1
	c-0.8-0.3-1.7-0.4-2.7-0.4c-1.6,0-3.1,0.3-4.5,0.8c-1.4,0.5-2.6,1.3-3.6,2.4c-1,1.1-1.8,2.5-2.4,4.1c-0.6,1.7-0.9,3.6-0.9,5.9
	c0,2.3,0.3,4.3,0.9,5.9c0.6,1.7,1.4,3,2.4,4.1c1,1.1,2.2,1.9,3.6,2.4c1.4,0.5,2.9,0.8,4.5,0.8c1,0,1.9-0.1,2.7-0.4
	c0.8-0.2,1.6-0.5,2.3-0.9c0.7-0.3,1.3-0.7,1.9-1.1c0.6-0.4,1-0.7,1.4-1.1l0.2,0.2l-0.4,2.4C181.9,51.5,181.5,51.7,181,52z"/>
<path class="st0" d="M186.6,38.4c0.6-1.3,1.4-2.4,2.3-3.2c1-0.8,2-1.4,3.2-1.8c1.2-0.4,2.4-0.6,3.6-0.6c1.2,0,2.4,0.2,3.6,0.6
	c1.2,0.4,2.3,1,3.2,1.8c1,0.8,1.7,1.9,2.3,3.2c0.6,1.3,0.9,2.9,0.9,4.8c0,1.9-0.3,3.5-0.9,4.8c-0.6,1.3-1.4,2.4-2.3,3.2
	c-1,0.8-2,1.4-3.2,1.7c-1.2,0.3-2.4,0.5-3.6,0.5c-1.2,0-2.4-0.2-3.6-0.5c-1.2-0.3-2.3-0.9-3.2-1.7c-1-0.8-1.7-1.9-2.3-3.2
	c-0.6-1.3-0.9-2.9-0.9-4.8C185.8,41.3,186.1,39.7,186.6,38.4z M189.7,46.5c0.2,1.1,0.6,2,1.1,2.9c0.5,0.8,1.2,1.5,2,2
	c0.8,0.5,1.8,0.7,3.1,0.7c1.2,0,2.2-0.2,3.1-0.7c0.8-0.5,1.5-1.2,2-2c0.5-0.8,0.8-1.8,1.1-2.9c0.2-1.1,0.3-2.2,0.3-3.3
	c0-1.2-0.1-2.3-0.3-3.3c-0.2-1.1-0.6-2-1.1-2.9c-0.5-0.8-1.2-1.5-2-2c-0.8-0.5-1.8-0.7-3.1-0.7c-1.2,0-2.2,0.2-3.1,0.7
	c-0.8,0.5-1.5,1.2-2,2c-0.5,0.8-0.8,1.8-1.1,2.9c-0.2,1.1-0.3,2.2-0.3,3.3C189.4,44.4,189.5,45.5,189.7,46.5z"/>
<path class="st0" d="M210.5,43c0-1,0.1-2.1,0.1-3.1c0-1,0-2,0-3.1c0-1.1,0-2.3-0.1-3.4c0.7,0.1,1.3,0.2,1.7,0.2c0.4,0,1-0.1,1.7-0.2
	c-0.1,1.6-0.2,3.5-0.3,5.4c-0.1,2-0.1,4-0.1,6c0,1.4,0.1,2.5,0.4,3.3c0.2,0.8,0.6,1.3,0.9,1.7c0.4,0.4,0.9,0.8,1.5,1.1
	c0.6,0.3,1.3,0.4,2.1,0.4c1.2,0,2.1-0.3,2.9-0.8c0.8-0.5,1.3-1.1,1.7-1.9c0.2-0.5,0.3-0.9,0.5-1.2c0.1-0.3,0.2-0.8,0.3-1.3
	c0.1-0.5,0.1-1.3,0.1-2.2c0-0.9,0-2.2,0-3.8v-3.5c0-0.6,0-1.2,0-1.7c0-0.5,0-1.1-0.1-1.6c0.3,0.1,0.6,0.1,0.9,0.1
	c0.3,0,0.6,0.1,0.9,0.1c0.3,0,0.6,0,0.9-0.1c0.3,0,0.6-0.1,0.8-0.1c-0.1,2.1-0.2,4.2-0.2,6.2c0,2,0,4.1,0,6.3c0,1.2,0,2.5,0,3.6
	c0,1.2,0.1,2.3,0.1,3.4c-0.6-0.1-1.1-0.1-1.6-0.1c-0.5,0-1.1,0-1.6,0.1c0-0.2,0-0.5,0.1-0.8c0-0.3,0-0.6,0-0.9v-1.8h-0.1
	c-0.7,1.3-1.6,2.3-2.8,2.9c-1.1,0.6-2.4,0.9-3.7,0.9c-2.1,0-3.8-0.6-5.1-1.7c-1.2-1.1-1.8-2.8-1.8-4.9C210.4,45.3,210.4,44,210.5,43
	z"/>
<path class="st0" d="M245.6,36.7c-0.8-1.1-1.9-1.6-3.3-1.6c-1.9,0-3.3,0.6-4.2,1.8c-0.9,1.2-1.3,2.8-1.3,5v3.5c0,1.2,0,2.5,0.1,3.9
	c0,1.4,0.1,2.6,0.3,3.7c-0.6-0.1-1.3-0.1-1.9-0.1c-0.6,0-1.2,0-1.9,0.1c0.1-1.1,0.2-2.3,0.3-3.7c0-1.4,0.1-2.7,0.1-3.9v-4.3
	c0-1.2,0-2.5-0.1-3.9c0-1.4-0.1-2.6-0.3-3.8c0.8,0.1,1.4,0.2,1.9,0.2c0.2,0,0.5,0,0.7-0.1c0.3,0,0.6-0.1,0.9-0.1
	c-0.1,1.1-0.1,2.2-0.1,3.3h0.1c0.8-1.2,1.7-2.1,2.8-2.7c1.1-0.6,2.4-1,3.8-1c0.8,0,1.6,0.1,2.3,0.3c0.8,0.2,1.5,0.6,2.1,1.1
	c0.6,0.5,1.2,1.3,1.6,2.2c0.4,0.9,0.6,2.1,0.6,3.5c0,1.2,0,2.4-0.1,3.7c-0.1,1.3-0.1,2.6-0.1,4v2.7c0,0.4,0,0.9,0,1.3
	c0,0.4,0,0.8,0.1,1.2c-0.6-0.1-1.1-0.1-1.8-0.1c-0.6,0-1.2,0-1.7,0.1c0.1-1.4,0.1-2.9,0.2-4.4c0.1-1.5,0.1-3.1,0.1-4.7v-2.5
	C246.8,39.3,246.4,37.7,245.6,36.7z"/>
<path class="st0" d="M260,27.8c-0.1,1-0.1,2.1-0.2,3.1c0,1-0.1,2-0.1,3c0.3,0,0.9,0,1.7,0c0.8,0,1.7,0,2.7-0.1c0,0.1,0,0.2,0,0.5
	v0.4v0.5c0,0.2,0,0.3,0,0.4c-0.4,0-0.7,0-1.1-0.1c-0.4,0-0.8,0-1.2,0h-2c0,0.1-0.1,0.5-0.1,1.3c0,0.8-0.1,1.7-0.1,2.7
	c0,1.1,0,2.2-0.1,3.3c0,1.2,0,2.2,0,3.1c0,0.8,0,1.5,0.1,2.3c0,0.7,0.2,1.4,0.4,2c0.2,0.6,0.5,1.1,1,1.4c0.4,0.4,1.1,0.5,1.9,0.5
	c0.2,0,0.5,0,0.9-0.1c0.4-0.1,0.7-0.1,1-0.2v1c-0.5,0.1-1,0.2-1.5,0.3c-0.6,0.1-1.1,0.2-1.6,0.2c-1.7,0-3-0.4-3.8-1.3
	c-0.8-0.9-1.2-2.1-1.2-3.8c0-0.7,0-1.5,0-2.4c0-0.9,0.1-1.8,0.1-2.8c0-1,0.1-2.2,0.1-3.4c0-1.3,0-2.6,0-4.2h-1.3c-0.2,0-0.5,0-0.7,0
	c-0.2,0-0.5,0-0.8,0.1c0-0.2,0-0.3,0.1-0.5c0-0.2,0-0.3,0-0.5c0-0.1,0-0.3,0-0.4c0-0.1,0-0.3-0.1-0.4c1.2,0.1,2.1,0.1,2.7,0.1
	c0-0.5,0-1.2-0.1-2.1c0-0.8,0-1.7-0.1-2.6l3.4-1.4H260z"/>
<path class="st0" d="M272.6,50.1c-0.5-1.2-1-2.4-1.5-3.7c-0.6-1.3-1.1-2.6-1.7-4c-0.6-1.4-1.1-2.6-1.6-3.8c-0.5-1.2-1-2.2-1.3-3.2
	c-0.4-0.9-0.7-1.6-0.9-2c0.4,0.1,0.7,0.1,1,0.1c0.3,0,0.6,0.1,0.9,0.1c0.3,0,0.6,0,0.9-0.1c0.3,0,0.6-0.1,1-0.1
	c0.9,2.6,1.8,5.3,2.8,7.8c1,2.6,2.1,5.3,3.3,8c1.2-2.4,2.3-5,3.3-7.8c1.1-2.8,2-5.4,2.8-8.1c0.5,0.1,1,0.2,1.4,0.2
	c0.4,0,0.8-0.1,1.4-0.2c-0.2,0.4-0.5,1-0.9,2c-0.4,0.9-0.9,2-1.5,3.3c-0.6,1.3-1.2,2.7-1.9,4.2c-0.7,1.6-1.4,3.2-2.1,4.8
	c-0.7,1.6-1.5,3.3-2.2,4.9c-0.7,1.6-1.4,3.1-2,4.6c-0.6,1.4-1.1,2.8-1.6,3.9c-0.5,1.2-0.8,2.1-1,2.8c-0.6-0.1-1-0.2-1.4-0.2
	c-0.4,0-0.9,0.1-1.4,0.2c2.2-3.6,4-7.2,5.5-10.8C273.5,52.2,273.1,51.3,272.6,50.1z"/>
<path class="st0" d="M302.6,30c-0.1-1.7-0.1-3.5-0.2-5.3c0.4,0.1,0.7,0.1,1,0.1c0.3,0,0.7,0.1,1,0.1c0.3,0,0.7,0,1-0.1
	c0.3,0,0.7-0.1,1-0.1c-0.1,1.8-0.2,3.6-0.2,5.3c-0.1,1.7-0.1,3.5-0.1,5.3c0,3.5,0,6.5,0,9c0,2.5,0.1,4.8,0.1,6.8c2,0,3.8,0,5.6-0.1
	c1.8,0,3.7-0.2,5.8-0.5c-0.1,0.5-0.2,0.9-0.2,1.2c0,0.3,0.1,0.7,0.2,1.1c-1.3-0.1-2.5-0.1-3.8-0.1c-1.3,0-2.5,0-3.8,0
	c-1.3,0-2.6,0-3.8,0c-1.2,0-2.5,0-3.8,0.1c0.1-1.7,0.2-3.4,0.2-5.2c0.1-1.8,0.1-3.5,0.1-5.4v-7.1C302.7,33.5,302.7,31.7,302.6,30z"
	/>
<path class="st0" d="M321.5,24.7c0.4-0.4,0.9-0.6,1.5-0.6c0.6,0,1.1,0.2,1.5,0.6c0.4,0.4,0.6,0.9,0.6,1.5c0,0.6-0.2,1.1-0.6,1.5
	c-0.4,0.4-0.9,0.6-1.5,0.6c-0.6,0-1.1-0.2-1.5-0.6c-0.4-0.4-0.6-0.9-0.6-1.5C320.8,25.6,321.1,25.1,321.5,24.7z M321.4,37.2
	c0-1.4-0.1-2.6-0.3-3.8c0.8,0.1,1.4,0.2,1.9,0.2c0.5,0,1.1-0.1,1.9-0.2c-0.1,1.2-0.2,2.5-0.3,3.8c0,1.4-0.1,2.7-0.1,3.9v4.3
	c0,1.2,0,2.5,0.1,3.9c0,1.4,0.1,2.6,0.3,3.7c-0.6-0.1-1.3-0.1-1.9-0.1c-0.6,0-1.2,0-1.9,0.1c0.1-1.1,0.2-2.3,0.3-3.7
	c0-1.4,0.1-2.7,0.1-3.9v-4.3C321.4,39.8,321.4,38.5,321.4,37.2z"/>
<path class="st0" d="M349.2,47c-0.5,1.3-1.1,2.5-2,3.4c-0.8,0.9-1.8,1.7-3,2.2c-1.1,0.5-2.4,0.8-3.7,0.8c-1.3,0-2.5-0.3-3.6-0.8
	c-1.1-0.6-1.9-1.2-2.4-2c-1,0.8-1.9,1.6-2.8,2.4H331c0.1-0.7,0.1-1.5,0.1-2.4c0-0.9,0.1-1.9,0.1-3c0-1.1,0-2.1,0.1-3.2
	c0-1.1,0-2.1,0-3.1v-7.5c0-0.9,0-2,0-3.1c0-1.1,0-2.2-0.1-3.3c0-1.1-0.1-2.1-0.1-3.1c0-1-0.1-1.8-0.1-2.5c0.8,0.1,1.4,0.2,1.9,0.2
	c0.3,0,0.6,0,0.9-0.1c0.3,0,0.7-0.1,1.1-0.1c-0.1,0.5-0.2,1.4-0.2,2.6c-0.1,1.2-0.1,2.5-0.1,4c0,1.5-0.1,3-0.1,4.5
	c0,1.6-0.1,3-0.1,4.2h0.1c0.9-1.5,2-2.6,3.1-3.3c1.1-0.7,2.4-1,3.9-1c1.4,0,2.7,0.3,3.7,0.8c1,0.5,1.9,1.2,2.6,2.1
	c0.7,0.9,1.2,1.9,1.5,3.1c0.3,1.2,0.5,2.4,0.5,3.7C349.9,44.2,349.7,45.7,349.2,47z M345.8,39.2c-0.3-1-0.7-1.8-1.2-2.5
	c-0.5-0.7-1.1-1.2-1.8-1.5c-0.7-0.3-1.4-0.5-2.1-0.5c-0.9,0-1.7,0.2-2.5,0.5c-0.8,0.3-1.5,0.8-2,1.6c-0.6,0.7-1,1.7-1.4,2.8
	c-0.3,1.2-0.5,2.6-0.5,4.3c0,5.5,2,8.3,6,8.3c0.9,0,1.6-0.2,2.4-0.7c0.7-0.5,1.3-1.1,1.9-2c0.5-0.9,1-1.9,1.3-3.1
	c0.3-1.2,0.5-2.5,0.5-4C346.3,41.3,346.1,40.1,345.8,39.2z"/>
<path class="st0" d="M362.4,36.3c-0.4-0.1-0.8-0.2-1.2-0.2c-0.7,0-1.3,0.2-1.8,0.5c-0.5,0.3-1,0.7-1.3,1.2c-0.4,0.5-0.6,1.1-0.8,1.8
	c-0.2,0.7-0.3,1.5-0.3,2.2v4.5c0,1.8,0,3.3,0,4.2c0,1,0.1,1.8,0.1,2.4c-0.6-0.1-1.1-0.1-1.7-0.1c-0.6,0-1.2,0-1.7,0.1
	c0.1-0.9,0.1-2.2,0.1-3.8c0-1.6,0-3.6,0-5.9v-1.3c0-1.1,0-2.3,0-3.7c0-1.4-0.1-3-0.1-4.8c0.3,0.1,0.6,0.1,0.9,0.1
	c0.3,0,0.6,0.1,0.9,0.1c0.2,0,0.5,0,0.8-0.1c0.3,0,0.6-0.1,0.9-0.1c-0.1,1-0.2,1.8-0.2,2.4c0,0.6,0,1.1,0,1.6l0.1,0
	c1.6-3,3.4-4.5,5.4-4.5c0.2,0,0.5,0,0.6,0c0.2,0,0.4,0.1,0.7,0.2c-0.1,0.3-0.2,0.8-0.2,1.5c0,0.7,0,1.3,0,1.8l-0.3,0.2
	C363,36.6,362.8,36.4,362.4,36.3z"/>
<path class="st0" d="M370.8,33.4c1-0.3,2.1-0.5,3.2-0.5c1,0,1.9,0.1,2.7,0.4c0.8,0.3,1.5,0.7,2.1,1.2c0.6,0.5,1,1.2,1.4,1.9
	c0.3,0.8,0.5,1.6,0.5,2.5c0,1.6,0,3.1-0.1,4.7c-0.1,1.6-0.1,3.2-0.1,4.9c0,0.3,0,0.7,0,1.1c0,0.4,0.1,0.7,0.2,1
	c0.1,0.3,0.3,0.5,0.5,0.7c0.2,0.2,0.5,0.3,0.9,0.3c0.1,0,0.3,0,0.4,0c0.2,0,0.3-0.1,0.4-0.1v0.9c-0.3,0.1-0.7,0.2-1.1,0.3
	c-0.5,0.1-1,0.1-1.5,0.1c-0.9,0-1.6-0.2-2.1-0.7c-0.5-0.5-0.8-1-0.8-1.8c-1,1-2,1.7-2.9,2.2c-1,0.5-2.1,0.7-3.5,0.7
	c-0.7,0-1.4-0.1-2-0.3c-0.7-0.2-1.2-0.5-1.7-0.9c-0.5-0.4-0.9-1-1.2-1.6c-0.3-0.6-0.5-1.3-0.5-2.1c0-1.7,0.5-2.9,1.5-3.8
	c1-0.9,2.4-1.5,4.3-1.8c1.5-0.2,2.6-0.5,3.5-0.6c0.8-0.2,1.5-0.4,1.9-0.6c0.4-0.2,0.6-0.4,0.7-0.7c0.1-0.3,0.1-0.6,0.1-1
	c0-0.7-0.1-1.3-0.2-2c-0.2-0.6-0.4-1.2-0.8-1.7c-0.4-0.5-0.8-0.8-1.4-1.1c-0.6-0.3-1.3-0.4-2.1-0.4c-1.1,0-2.1,0.2-3.1,0.7
	c-0.9,0.5-1.7,1.2-2.1,2.1h-0.5v-2.1C368.6,34.4,369.7,33.8,370.8,33.4z M375.9,43.1c-0.6,0.1-1.2,0.2-1.9,0.4
	c-0.6,0.1-1.3,0.3-1.9,0.5c-0.6,0.2-1.2,0.5-1.6,0.8c-0.5,0.3-0.9,0.7-1.1,1.2c-0.3,0.5-0.4,1.1-0.4,1.9c0,1.3,0.4,2.3,1.1,2.9
	c0.7,0.7,1.6,1,2.5,1c1,0,2-0.3,2.9-0.9c0.9-0.6,1.5-1.3,2-2l0.2-6.2C377.1,42.8,376.5,43,375.9,43.1z"/>
<path class="st0" d="M396.3,36.3c-0.4-0.1-0.8-0.2-1.2-0.2c-0.7,0-1.3,0.2-1.8,0.5c-0.5,0.3-1,0.7-1.3,1.2c-0.4,0.5-0.6,1.1-0.8,1.8
	c-0.2,0.7-0.3,1.5-0.3,2.2v4.5c0,1.8,0,3.3,0,4.2c0,1,0.1,1.8,0.1,2.4c-0.6-0.1-1.1-0.1-1.7-0.1c-0.6,0-1.2,0-1.7,0.1
	c0.1-0.9,0.1-2.2,0.1-3.8c0-1.6,0-3.6,0-5.9v-1.3c0-1.1,0-2.3,0-3.7c0-1.4-0.1-3-0.1-4.8c0.3,0.1,0.6,0.1,0.9,0.1
	c0.3,0,0.6,0.1,0.9,0.1c0.2,0,0.5,0,0.8-0.1c0.3,0,0.6-0.1,0.9-0.1c-0.1,1-0.2,1.8-0.2,2.4c0,0.6,0,1.1,0,1.6l0.1,0
	c1.6-3,3.4-4.5,5.4-4.5c0.2,0,0.5,0,0.6,0c0.2,0,0.4,0.1,0.7,0.2c-0.1,0.3-0.2,0.8-0.2,1.5c0,0.7,0,1.3,0,1.8l-0.3,0.2
	C396.9,36.6,396.7,36.4,396.3,36.3z"/>
<path class="st0" d="M402.5,24.7c0.4-0.4,0.9-0.6,1.5-0.6s1.1,0.2,1.5,0.6c0.4,0.4,0.6,0.9,0.6,1.5c0,0.6-0.2,1.1-0.6,1.5
	c-0.4,0.4-0.9,0.6-1.5,0.6s-1.1-0.2-1.5-0.6c-0.4-0.4-0.6-0.9-0.6-1.5C401.9,25.6,402.1,25.1,402.5,24.7z M402.4,37.2
	c0-1.4-0.1-2.6-0.3-3.8c0.8,0.1,1.4,0.2,1.9,0.2c0.5,0,1.1-0.1,1.9-0.2c-0.1,1.2-0.2,2.5-0.3,3.8c0,1.4-0.1,2.7-0.1,3.9v4.3
	c0,1.2,0,2.5,0.1,3.9c0,1.4,0.1,2.6,0.3,3.7c-0.6-0.1-1.3-0.1-1.9-0.1c-0.6,0-1.2,0-1.9,0.1c0.1-1.1,0.2-2.3,0.3-3.7
	c0-1.4,0.1-2.7,0.1-3.9v-4.3C402.4,39.8,402.4,38.5,402.4,37.2z"/>
<path class="st0" d="M411.5,35.8c1.6-1.9,4-2.9,7-2.9c1.5,0,2.7,0.2,3.8,0.7c1.1,0.5,1.9,1.1,2.7,1.8c0.7,0.8,1.2,1.6,1.6,2.7
	c0.3,1,0.5,2.1,0.5,3.3c0,0.3,0,0.5,0,0.8c0,0.3,0,0.5-0.1,0.8c-1.5,0-3-0.1-4.4-0.1c-1.5,0-2.9,0-4.4,0c-0.9,0-1.8,0-2.7,0
	c-0.9,0-1.8,0.1-2.7,0.1c0,0.1,0,0.3,0,0.6v0.5c0,1.1,0.2,2.1,0.5,3c0.3,0.9,0.8,1.7,1.4,2.4c0.6,0.7,1.3,1.2,2.2,1.6
	c0.9,0.4,1.9,0.6,3.1,0.6c0.5,0,1.1-0.1,1.7-0.2c0.6-0.1,1.1-0.4,1.7-0.6c0.6-0.3,1.1-0.6,1.5-0.9c0.5-0.4,0.9-0.7,1.3-1.2l0.2,0.1
	l-0.2,2c-0.8,0.7-1.8,1.2-3.1,1.7c-1.2,0.5-2.5,0.7-3.8,0.7c-1.5,0-2.8-0.2-4.1-0.7c-1.2-0.5-2.3-1.1-3.2-2
	c-0.9-0.9-1.6-1.9-2.1-3.1c-0.5-1.2-0.7-2.5-0.7-3.8C409.1,40.4,409.9,37.8,411.5,35.8z M416,35c-0.7,0.5-1.3,1.1-1.7,1.8
	c-0.5,0.7-0.8,1.5-1,2.3c-0.2,0.8-0.4,1.6-0.4,2.4c0.9,0,1.7,0.1,2.7,0.1c0.9,0,1.8,0,2.7,0c0.9,0,1.8,0,2.8,0
	c0.9,0,1.8-0.1,2.7-0.1c0-0.7-0.1-1.5-0.2-2.4c-0.1-0.8-0.4-1.6-0.7-2.3c-0.4-0.7-0.9-1.3-1.5-1.8c-0.7-0.5-1.5-0.7-2.6-0.7
	C417.6,34.3,416.7,34.5,416,35z"/>
<path class="st0" d="M431.8,50c0.3,0.3,0.6,0.6,1,0.9c0.4,0.3,0.9,0.5,1.4,0.7c0.5,0.2,1.1,0.3,1.6,0.3c0.5,0,1-0.1,1.5-0.2
	c0.5-0.2,0.9-0.4,1.3-0.7c0.4-0.3,0.7-0.7,0.9-1.2c0.2-0.5,0.3-1,0.3-1.6c0-0.9-0.2-1.5-0.7-2c-0.5-0.5-1.1-0.8-1.8-1.1
	c-0.7-0.3-1.5-0.5-2.3-0.8c-0.9-0.2-1.6-0.5-2.4-0.9c-0.7-0.4-1.3-0.9-1.8-1.6c-0.5-0.7-0.7-1.6-0.7-2.7c0-0.9,0.2-1.7,0.5-2.5
	c0.3-0.8,0.7-1.4,1.3-2c0.6-0.6,1.3-1,2.1-1.3c0.9-0.3,1.8-0.5,2.9-0.5c1,0,1.9,0.1,2.6,0.4c0.7,0.3,1.4,0.5,2,0.7
	c-0.2,0.4-0.4,0.9-0.6,1.5c-0.2,0.6-0.3,1.1-0.4,1.4h-0.5c-0.2-0.7-0.6-1.3-1.3-1.8c-0.6-0.5-1.4-0.8-2.4-0.8
	c-0.4,0-0.8,0.1-1.2,0.2c-0.4,0.1-0.8,0.3-1.1,0.6c-0.3,0.3-0.6,0.6-0.8,1.1c-0.2,0.4-0.3,1-0.3,1.6c0,0.9,0.2,1.6,0.7,2
	c0.5,0.5,1.1,0.9,1.8,1.1c0.7,0.3,1.5,0.5,2.4,0.7c0.9,0.2,1.6,0.5,2.4,0.9c0.7,0.4,1.3,0.9,1.8,1.5c0.5,0.7,0.7,1.6,0.7,2.7
	c0,0.8-0.2,1.6-0.5,2.4c-0.3,0.8-0.8,1.5-1.5,2.1c-0.6,0.6-1.4,1.1-2.3,1.4c-0.9,0.3-1.9,0.5-3.1,0.5c-1.3,0-2.3-0.1-3.2-0.4
	c-0.9-0.2-1.6-0.5-2.1-0.9c0.2-0.4,0.3-0.8,0.5-1.5c0.2-0.6,0.3-1.1,0.3-1.5h0.5C431.3,49.4,431.5,49.7,431.8,50z"/>
<g>
	<path class="st1" d="M449.1,63.7c0,0,0.3-18,8.3-25.6c11.8-11.3,32.3-7.5,33-7.5c0,0,0.9,8.2-3.9,16.6
		C482.8,53.6,474.3,65.9,449.1,63.7z"/>
	<path class="st2" d="M430.1,22.1c0,0,6.1-0.6,18.2,4.1c0,0,2.6-17,17.6-25.4C465.9,0.7,440.9-6,430.1,22.1z"/>
	<path class="st3" d="M469.6,1.9c0,0-10,8.1-13.8,15.9c-3.2,6.5-3.3,10-1.9,16.8c0,0,13-12.8,36.1-8.7
		C490.1,25.9,486.2,6.2,469.6,1.9z"/>
</g>
<g class="st4">
	<path class="st5" d="M286.2-213.1c0,0,0.8-45.5,21.1-65c29.8-28.6,81.9-19,83.8-19.1c0,0,2.3,20.8-9.9,42.1
		C371.7-238.5,350.1-207.3,286.2-213.1z"/>
	<g class="st6">
		<path class="st0" d="M138.8-305.8c-0.1-1.7-0.1-3.5-0.2-5.3c1,0.1,2.1,0.1,3.1,0.1c1,0,2.1,0.1,3.1,0.1c1,0,2.1,0,3.1-0.1
			c1-0.1,2.1-0.1,3.1-0.1c2.4,0,4.5,0.3,6.2,0.9c1.7,0.6,3.1,1.5,4.2,2.7c1.1,1.2,1.9,2.6,2.4,4.3c0.5,1.7,0.8,3.6,0.8,5.7
			c0,2.8-0.5,5.1-1.4,7c-0.9,1.9-2.2,3.4-3.6,4.6c-1.5,1.2-3.1,2-4.9,2.5c-1.8,0.5-3.5,0.7-5.1,0.7c-0.9,0-1.9,0-2.8,0
			c-0.9,0-1.8,0-2.8,0c-0.9,0-1.9,0-2.8,0c-0.9,0-1.8,0-2.8,0.1c0.1-1.7,0.2-3.4,0.2-5.2c0.1-1.8,0.1-3.5,0.1-5.4v-7.1
			C138.9-302.2,138.9-304,138.8-305.8z M142.5-284.6c0.6,0.1,1.4,0.2,2.4,0.3c1,0.1,2,0.1,3.1,0.1c1.5,0,3-0.2,4.5-0.5
			c1.5-0.4,2.9-1,4.1-2c1.2-1,2.2-2.3,2.9-4.1c0.8-1.7,1.1-3.9,1.1-6.7c0-2.4-0.3-4.4-0.9-5.9c-0.6-1.5-1.4-2.8-2.4-3.7
			c-1-0.9-2.3-1.5-3.7-1.9c-1.4-0.3-3-0.5-4.7-0.5c-1.2,0-2.4,0-3.5,0.1c-1.1,0.1-2,0.2-2.9,0.3c-0.1,1.3-0.1,2.7-0.2,4.1
			c0,1.4-0.1,2.9-0.1,4.4v7.1C142.3-290.4,142.4-287.4,142.5-284.6z"/>
		<path class="st0" d="M169.3-297.3c0.6-1.3,1.4-2.4,2.3-3.2c1-0.8,2-1.4,3.2-1.8c1.2-0.4,2.4-0.6,3.6-0.6c1.2,0,2.4,0.2,3.6,0.6
			c1.2,0.4,2.3,1,3.2,1.8c1,0.8,1.7,1.9,2.3,3.2c0.6,1.3,0.9,2.9,0.9,4.8c0,1.9-0.3,3.5-0.9,4.8c-0.6,1.3-1.4,2.4-2.3,3.2
			c-1,0.8-2,1.4-3.2,1.7c-1.2,0.3-2.4,0.5-3.6,0.5c-1.2,0-2.4-0.2-3.6-0.5c-1.2-0.3-2.3-0.9-3.2-1.7c-1-0.8-1.7-1.9-2.3-3.2
			c-0.6-1.3-0.9-2.9-0.9-4.8C168.4-294.4,168.7-296,169.3-297.3z M172.4-289.2c0.2,1.1,0.6,2,1.1,2.9c0.5,0.8,1.2,1.5,2,2
			c0.8,0.5,1.8,0.7,3.1,0.7c1.2,0,2.2-0.2,3.1-0.7c0.8-0.5,1.5-1.2,2-2c0.5-0.8,0.8-1.8,1.1-2.9c0.2-1.1,0.3-2.2,0.3-3.3
			c0-1.2-0.1-2.3-0.3-3.3c-0.2-1.1-0.6-2-1.1-2.9c-0.5-0.8-1.2-1.5-2-2c-0.8-0.5-1.8-0.7-3.1-0.7c-1.2,0-2.2,0.2-3.1,0.7
			c-0.8,0.5-1.5,1.2-2,2c-0.5,0.8-0.8,1.8-1.1,2.9c-0.2,1.1-0.3,2.2-0.3,3.3C172.1-291.4,172.2-290.2,172.4-289.2z"/>
		<path class="st0" d="M193.1-292.7c0-1,0.1-2.1,0.1-3.1c0-1,0-2,0-3.1c0-1.1,0-2.3-0.1-3.4c0.7,0.1,1.3,0.2,1.7,0.2
			c0.4,0,1-0.1,1.7-0.2c-0.1,1.6-0.2,3.5-0.3,5.4c-0.1,2-0.1,4-0.1,6c0,1.4,0.1,2.5,0.4,3.3c0.2,0.8,0.6,1.3,0.9,1.7
			c0.4,0.4,0.9,0.8,1.5,1.1c0.6,0.3,1.3,0.4,2.1,0.4c1.2,0,2.1-0.3,2.9-0.8c0.8-0.5,1.3-1.1,1.7-1.9c0.2-0.5,0.3-0.9,0.5-1.2
			c0.1-0.3,0.2-0.8,0.3-1.3c0.1-0.5,0.1-1.3,0.1-2.2c0-0.9,0-2.2,0-3.8v-3.5c0-0.6,0-1.2,0-1.7c0-0.5,0-1.1-0.1-1.6
			c0.3,0.1,0.6,0.1,0.9,0.1c0.3,0,0.6,0.1,0.9,0.1c0.3,0,0.6,0,0.9-0.1c0.3,0,0.6-0.1,0.8-0.1c-0.1,2.1-0.2,4.2-0.2,6.2
			c0,2,0,4.1,0,6.3c0,1.2,0,2.4,0,3.6c0,1.2,0.1,2.3,0.1,3.4c-0.5-0.1-1.1-0.1-1.6-0.1c-0.5,0-1.1,0-1.6,0.1c0-0.2,0-0.5,0.1-0.8
			c0-0.3,0-0.6,0-0.9v-1.8h-0.1c-0.7,1.3-1.6,2.3-2.8,2.9c-1.1,0.6-2.4,0.9-3.7,0.9c-2.1,0-3.8-0.6-5.1-1.7
			c-1.2-1.1-1.8-2.8-1.8-4.9C193.1-290.5,193.1-291.7,193.1-292.7z"/>
		<path class="st0" d="M215.5-299.1c0.4-0.8,1-1.5,1.7-2.1c0.7-0.6,1.6-1,2.5-1.2c0.9-0.3,2-0.4,3-0.4c0.5,0,1,0,1.5,0
			c0.5,0,1.1,0.1,1.8,0.1c0.6,0.1,1.2,0.1,1.7,0.1c0.5,0,0.9,0,1.2,0c1.5,0,2.7-0.1,3.3-0.2c0,0.1,0,0.3-0.1,0.4c0,0.2,0,0.3,0,0.4
			c0,0.1,0,0.3,0,0.4c0,0.2,0,0.3,0.1,0.4c-0.8-0.1-1.6-0.1-2.3-0.2c-0.8-0.1-1.5-0.1-2.2-0.1l-0.1,0.1c0.9,0.5,1.5,1.2,2.1,2.2
			c0.5,1,0.8,2,0.8,3c0,2.1-0.7,3.7-2.1,4.8c-1.4,1.2-3.3,1.8-5.6,1.8c-0.4,0-0.8,0-1.1,0c-0.4,0-0.8,0-1.1,0c-0.5,0-1,0.2-1.4,0.5
			c-0.4,0.4-0.6,0.8-0.6,1.4c0,0.7,0.2,1.2,0.5,1.6c0.3,0.3,1,0.5,1.9,0.5c0.8,0,1.5,0,2.3,0.1c0.7,0,1.5,0,2.3,0.1
			c1.3,0,2.3,0.2,3.2,0.5c0.9,0.3,1.6,0.6,2.2,1.1c0.6,0.5,1,1,1.2,1.6c0.3,0.6,0.4,1.3,0.4,2c0,1-0.2,1.9-0.6,2.9
			c-0.4,1-0.9,1.9-1.7,2.7c-0.8,0.8-1.8,1.5-3,2c-1.2,0.5-2.7,0.8-4.5,0.8c-2.7,0-4.8-0.5-6.3-1.6c-1.5-1.1-2.3-2.5-2.3-4.4
			c0-0.7,0.1-1.4,0.4-2c0.3-0.6,0.6-1.1,1-1.6c0.4-0.5,0.9-0.8,1.4-1.1c0.5-0.3,1.1-0.5,1.6-0.6v-0.1c-0.9-0.2-1.5-0.7-1.9-1.2
			c-0.4-0.6-0.7-1.3-0.7-2.1c0-0.5,0.1-0.9,0.3-1.3c0.2-0.4,0.4-0.7,0.7-1c0.3-0.3,0.6-0.5,0.9-0.7c0.4-0.2,0.7-0.3,1-0.4v-0.1
			c-1.3-0.5-2.3-1.3-3-2.3c-0.7-1-1.1-2.3-1.1-3.8C214.9-297.2,215.1-298.2,215.5-299.1z M228.1-281.9c-1-0.7-2.6-1-4.8-1
			c-2.1,0-3.7,0.3-4.8,1c-1.1,0.7-1.7,1.9-1.7,3.7c0,0.9,0.2,1.7,0.5,2.4c0.3,0.7,0.7,1.2,1.3,1.6c0.5,0.4,1.2,0.7,1.9,0.9
			c0.7,0.2,1.5,0.3,2.4,0.3c0.8,0,1.6-0.1,2.4-0.3c0.8-0.2,1.5-0.5,2.1-1c0.6-0.4,1.1-1,1.5-1.7c0.4-0.7,0.6-1.5,0.6-2.4
			C229.6-280.1,229.1-281.2,228.1-281.9z M226.1-300.2c-0.8-0.9-1.9-1.4-3.3-1.4c-1.5,0-2.6,0.5-3.5,1.5c-0.8,1-1.2,2.3-1.2,4
			c0,1.7,0.4,3.1,1.1,4.1c0.8,1,1.9,1.5,3.5,1.5c0.8,0,1.5-0.2,2-0.5c0.6-0.3,1-0.7,1.4-1.3c0.4-0.5,0.6-1.2,0.8-1.9
			c0.2-0.7,0.3-1.4,0.3-2.2C227.3-298,226.9-299.3,226.1-300.2z"/>
		<path class="st0" d="M237.7-305.1c0-1.1,0-2.2-0.1-3.3c0-1.1-0.1-3.5-0.1-4.4c0-1-0.1-1.8-0.1-2.5c0.8,0.1,1.4,0.2,1.9,0.2
			c0.5,0,1.1-0.1,1.9-0.2c-0.1,0.7-0.1,1.5-0.1,2.5c0,1-0.1,3.4-0.1,4.4c0,1.1,0,2.2-0.1,3.3c0,1.1,0,2.1,0,3.1v7.5c0,0.9,0,2,0,3.1
			c0,1.1,0,2.2,0.1,3.3c0,1.1,0.1,2.1,0.1,3.1c0,1,0.1,1.8,0.1,2.4c-0.6-0.1-1.3-0.1-1.9-0.1c-0.6,0-1.2,0-1.9,0.1
			c0.1-0.6,0.1-1.4,0.1-2.4c0-1,0.1-2,0.1-3.1c0-1.1,0-2.2,0.1-3.3c0-1.1,0-2.1,0-3.1v-7.5C237.7-302.9,237.7-304,237.7-305.1z"/>
		<path class="st0" d="M251.9-302.3c1-0.3,2.1-0.5,3.2-0.5c1,0,1.9,0.1,2.7,0.4c0.8,0.3,1.5,0.7,2.1,1.2c0.6,0.5,1,1.2,1.4,1.9
			c0.3,0.8,0.5,1.6,0.5,2.5c0,1.6,0,3.1-0.1,4.7c-0.1,1.6-0.1,3.2-0.1,4.9c0,0.3,0,0.7,0,1.1c0,0.4,0.1,0.7,0.2,1
			c0.1,0.3,0.3,0.5,0.5,0.7c0.2,0.2,0.5,0.3,0.9,0.3c0.1,0,0.3,0,0.4,0c0.1,0,0.3-0.1,0.4-0.1v0.9c-0.3,0.1-0.7,0.2-1.1,0.3
			c-0.5,0.1-1,0.1-1.5,0.1c-0.9,0-1.6-0.2-2.1-0.7c-0.5-0.5-0.8-1-0.8-1.8c-1,1-2,1.7-2.9,2.2c-1,0.5-2.1,0.7-3.5,0.7
			c-0.7,0-1.4-0.1-2-0.3c-0.7-0.2-1.2-0.5-1.7-0.9c-0.5-0.4-0.9-1-1.2-1.6c-0.3-0.6-0.5-1.3-0.5-2.1c0-1.7,0.5-2.9,1.5-3.8
			c1-0.9,2.4-1.5,4.3-1.8c1.5-0.2,2.6-0.5,3.5-0.6c0.8-0.2,1.5-0.4,1.9-0.6c0.4-0.2,0.6-0.4,0.7-0.7c0.1-0.3,0.1-0.6,0.1-1
			c0-0.7-0.1-1.3-0.2-2c-0.2-0.6-0.4-1.2-0.8-1.7c-0.4-0.5-0.8-0.8-1.4-1.1c-0.6-0.3-1.3-0.4-2.1-0.4c-1.1,0-2.1,0.2-3.1,0.7
			c-1,0.5-1.7,1.2-2.1,2.1h-0.5v-2.1C249.7-301.3,250.9-302,251.9-302.3z M257-292.6c-0.6,0.1-1.2,0.2-1.9,0.4
			c-0.6,0.1-1.3,0.3-1.9,0.5c-0.6,0.2-1.2,0.5-1.6,0.8c-0.5,0.3-0.9,0.7-1.1,1.2c-0.3,0.5-0.4,1.1-0.4,1.9c0,1.3,0.4,2.3,1.1,2.9
			c0.7,0.7,1.6,1,2.5,1c1,0,2-0.3,2.9-0.9c0.9-0.6,1.5-1.3,2-2l0.2-6.2C258.2-292.9,257.7-292.7,257-292.6z"/>
		<path class="st0" d="M269.2-285.7c0.3,0.3,0.6,0.6,1,0.9c0.4,0.3,0.9,0.5,1.4,0.7c0.5,0.2,1.1,0.3,1.6,0.3c0.5,0,1-0.1,1.5-0.2
			c0.5-0.2,0.9-0.4,1.3-0.7c0.4-0.3,0.7-0.7,0.9-1.2c0.2-0.5,0.3-1,0.3-1.6c0-0.9-0.2-1.5-0.7-2c-0.5-0.5-1.1-0.8-1.8-1.1
			c-0.7-0.3-1.5-0.5-2.4-0.8c-0.9-0.2-1.6-0.5-2.4-0.9c-0.7-0.4-1.3-0.9-1.8-1.6c-0.5-0.7-0.7-1.6-0.7-2.7c0-0.9,0.2-1.7,0.5-2.5
			c0.3-0.8,0.7-1.4,1.3-2c0.6-0.6,1.3-1,2.1-1.3c0.9-0.3,1.8-0.5,2.9-0.5c1,0,1.9,0.1,2.6,0.4c0.7,0.3,1.4,0.5,2,0.7
			c-0.2,0.4-0.4,0.9-0.6,1.5c-0.2,0.6-0.3,1.1-0.4,1.4h-0.5c-0.2-0.7-0.6-1.3-1.3-1.8c-0.6-0.5-1.4-0.8-2.4-0.8
			c-0.4,0-0.8,0.1-1.2,0.2c-0.4,0.1-0.8,0.3-1.1,0.6c-0.3,0.3-0.6,0.6-0.8,1.1c-0.2,0.4-0.3,1-0.3,1.6c0,0.9,0.2,1.6,0.7,2
			c0.5,0.5,1.1,0.9,1.8,1.1c0.7,0.3,1.5,0.5,2.4,0.7c0.9,0.2,1.6,0.5,2.4,0.9c0.7,0.4,1.3,0.9,1.8,1.5c0.5,0.7,0.7,1.6,0.7,2.7
			c0,0.8-0.2,1.6-0.5,2.4c-0.3,0.8-0.8,1.5-1.5,2.1c-0.6,0.6-1.4,1.1-2.3,1.4c-0.9,0.3-1.9,0.5-3.1,0.5c-1.3,0-2.3-0.1-3.2-0.4
			c-0.9-0.2-1.6-0.5-2.1-0.9c0.2-0.4,0.3-0.8,0.5-1.5c0.2-0.6,0.3-1.1,0.3-1.5h0.5C268.7-286.3,268.9-286,269.2-285.7z"/>
		<path class="st0" d="M177.4-249.8c-0.5,0.3-1.2,0.5-1.9,0.7c-0.8,0.2-1.6,0.4-2.5,0.6c-0.9,0.2-1.9,0.2-2.9,0.2
			c-2.2,0-4.2-0.3-6-0.9c-1.8-0.6-3.4-1.6-4.8-2.8c-1.3-1.3-2.4-2.8-3.1-4.6c-0.8-1.8-1.1-3.9-1.1-6.3c0-2.3,0.4-4.4,1.1-6.3
			c0.8-1.8,1.8-3.4,3.2-4.6c1.4-1.3,3-2.2,4.9-2.9c1.9-0.7,4-1,6.3-1c1.8,0,3.5,0.2,5,0.6c1.5,0.4,2.8,0.8,4,1.3
			c-0.2,0.4-0.4,0.9-0.5,1.6c-0.1,0.7-0.2,1.2-0.3,1.6l-0.2,0.1c-0.3-0.3-0.7-0.7-1.2-1.1c-0.5-0.4-1.1-0.8-1.7-1.2
			c-0.7-0.4-1.4-0.7-2.2-1c-0.8-0.3-1.7-0.4-2.7-0.4c-1.6,0-3.1,0.3-4.5,0.8c-1.4,0.5-2.6,1.3-3.6,2.4c-1,1.1-1.8,2.5-2.4,4.1
			c-0.6,1.7-0.9,3.6-0.9,5.9c0,2.3,0.3,4.3,0.9,5.9c0.6,1.7,1.4,3,2.4,4.1c1,1.1,2.2,1.9,3.6,2.4c1.4,0.5,2.9,0.8,4.5,0.8
			c1,0,1.9-0.1,2.7-0.4c0.8-0.2,1.6-0.5,2.3-0.9c0.7-0.3,1.3-0.7,1.9-1.1c0.6-0.4,1-0.7,1.4-1.1l0.2,0.2l-0.4,2.4
			C178.3-250.4,177.9-250.1,177.4-249.8z"/>
		<path class="st0" d="M183-263.4c0.6-1.3,1.4-2.4,2.3-3.2c1-0.8,2-1.4,3.2-1.8c1.2-0.4,2.4-0.6,3.6-0.6c1.2,0,2.4,0.2,3.6,0.6
			c1.2,0.4,2.3,1,3.2,1.8c1,0.8,1.7,1.9,2.3,3.2c0.6,1.3,0.9,2.9,0.9,4.8c0,1.9-0.3,3.5-0.9,4.8c-0.6,1.3-1.4,2.4-2.3,3.2
			c-1,0.8-2,1.4-3.2,1.7c-1.2,0.3-2.4,0.5-3.6,0.5c-1.2,0-2.4-0.2-3.6-0.5c-1.2-0.3-2.3-0.9-3.2-1.7c-1-0.8-1.7-1.9-2.3-3.2
			c-0.6-1.3-0.9-2.9-0.9-4.8C182.2-260.5,182.5-262.1,183-263.4z M186.1-255.3c0.2,1.1,0.6,2,1.1,2.9c0.5,0.8,1.2,1.5,2,2
			c0.8,0.5,1.8,0.7,3.1,0.7c1.2,0,2.2-0.2,3.1-0.7c0.8-0.5,1.5-1.2,2-2c0.5-0.8,0.8-1.8,1.1-2.9c0.2-1.1,0.3-2.2,0.3-3.3
			c0-1.2-0.1-2.3-0.3-3.3c-0.2-1.1-0.6-2-1.1-2.9c-0.5-0.8-1.2-1.5-2-2c-0.8-0.5-1.8-0.7-3.1-0.7c-1.2,0-2.2,0.2-3.1,0.7
			c-0.8,0.5-1.5,1.2-2,2c-0.5,0.8-0.8,1.8-1.1,2.9c-0.2,1.1-0.3,2.2-0.3,3.3C185.8-257.5,185.9-256.3,186.1-255.3z"/>
		<path class="st0" d="M206.9-258.8c0-1,0.1-2.1,0.1-3.1c0-1,0-2,0-3.1c0-1.1,0-2.3-0.1-3.4c0.7,0.1,1.3,0.2,1.7,0.2
			c0.4,0,1-0.1,1.7-0.2c-0.1,1.6-0.2,3.5-0.3,5.4c-0.1,2-0.1,4-0.1,6c0,1.4,0.1,2.5,0.4,3.3c0.2,0.8,0.6,1.3,0.9,1.7
			c0.4,0.4,0.9,0.8,1.5,1.1c0.6,0.3,1.3,0.4,2.1,0.4c1.2,0,2.1-0.3,2.9-0.8c0.8-0.5,1.3-1.1,1.7-1.9c0.2-0.5,0.3-0.9,0.5-1.2
			c0.1-0.3,0.2-0.8,0.3-1.3c0.1-0.5,0.1-1.3,0.1-2.2c0-0.9,0-2.2,0-3.8v-3.5c0-0.6,0-1.2,0-1.7c0-0.5,0-1.1-0.1-1.6
			c0.3,0.1,0.6,0.1,0.9,0.1c0.3,0,0.6,0.1,0.9,0.1c0.3,0,0.6,0,0.9-0.1c0.3,0,0.6-0.1,0.8-0.1c-0.1,2.1-0.2,4.2-0.2,6.2
			c0,2,0,4.1,0,6.3c0,1.2,0,2.5,0,3.6c0,1.2,0.1,2.3,0.1,3.4c-0.6-0.1-1.1-0.1-1.6-0.1c-0.5,0-1.1,0-1.6,0.1c0-0.2,0-0.5,0.1-0.8
			c0-0.3,0-0.6,0-0.9v-1.8h-0.1c-0.7,1.3-1.6,2.3-2.8,2.9c-1.1,0.6-2.4,0.9-3.7,0.9c-2.1,0-3.8-0.6-5.1-1.7
			c-1.2-1.1-1.8-2.8-1.8-4.9C206.8-256.6,206.8-257.8,206.9-258.8z"/>
		<path class="st0" d="M242-265.2c-0.8-1.1-1.9-1.6-3.3-1.6c-1.9,0-3.3,0.6-4.2,1.8c-0.9,1.2-1.3,2.8-1.3,5v3.5c0,1.2,0,2.5,0.1,3.9
			c0,1.4,0.1,2.6,0.3,3.7c-0.6-0.1-1.3-0.1-1.9-0.1c-0.6,0-1.2,0-1.9,0.1c0.1-1.1,0.2-2.3,0.3-3.7c0-1.4,0.1-2.7,0.1-3.9v-4.3
			c0-1.2,0-2.5-0.1-3.9c0-1.4-0.1-2.6-0.3-3.8c0.8,0.1,1.4,0.2,1.9,0.2c0.2,0,0.5,0,0.7-0.1c0.3,0,0.6-0.1,0.9-0.1
			c-0.1,1.1-0.1,2.2-0.1,3.3h0.1c0.8-1.2,1.7-2.1,2.8-2.7c1.1-0.6,2.4-1,3.9-1c0.8,0,1.6,0.1,2.3,0.3c0.8,0.2,1.5,0.6,2.1,1.1
			c0.6,0.5,1.2,1.3,1.6,2.2c0.4,0.9,0.6,2.1,0.6,3.5c0,1.2,0,2.4-0.1,3.7c-0.1,1.3-0.1,2.6-0.1,4v2.7c0,0.4,0,0.9,0,1.3
			c0,0.4,0,0.8,0.1,1.2c-0.6-0.1-1.1-0.1-1.8-0.1c-0.6,0-1.2,0-1.7,0.1c0.1-1.4,0.1-2.9,0.2-4.4c0.1-1.5,0.1-3.1,0.1-4.7v-2.5
			C243.2-262.5,242.8-264.1,242-265.2z"/>
		<path class="st0" d="M256.4-274c-0.1,1-0.1,2.1-0.2,3.1c0,1-0.1,2-0.1,3c0.3,0,0.9,0,1.7,0c0.8,0,1.7,0,2.7-0.1c0,0.1,0,0.2,0,0.5
			v0.4v0.5c0,0.2,0,0.3,0,0.4c-0.4,0-0.7,0-1.1-0.1c-0.4,0-0.8,0-1.2,0h-2c0,0.1-0.1,0.5-0.1,1.3c0,0.8-0.1,1.7-0.1,2.7
			c0,1.1,0,2.2-0.1,3.3c0,1.2,0,2.2,0,3.1c0,0.8,0,1.5,0.1,2.3c0,0.7,0.2,1.4,0.4,2c0.2,0.6,0.5,1.1,1,1.4c0.4,0.4,1.1,0.5,1.9,0.5
			c0.2,0,0.5,0,0.9-0.1c0.4-0.1,0.7-0.1,1-0.2v1c-0.5,0.1-1,0.2-1.5,0.3c-0.6,0.1-1.1,0.2-1.6,0.2c-1.7,0-3-0.4-3.8-1.3
			c-0.8-0.9-1.2-2.1-1.2-3.8c0-0.7,0-1.5,0-2.4c0-0.9,0.1-1.8,0.1-2.8c0-1,0.1-2.2,0.1-3.4c0-1.3,0-2.6,0-4.2h-1.3
			c-0.2,0-0.5,0-0.7,0c-0.2,0-0.5,0-0.8,0.1c0-0.2,0-0.3,0.1-0.5c0-0.2,0-0.3,0-0.5c0-0.1,0-0.3,0-0.4c0-0.1,0-0.3-0.1-0.4
			c1.2,0.1,2.1,0.1,2.7,0.1c0-0.5,0-1.2-0.1-2.1c0-0.8,0-1.7-0.1-2.6l3.4-1.4H256.4z"/>
		<path class="st0" d="M269-251.7c-0.5-1.2-1-2.4-1.5-3.7c-0.6-1.3-1.1-2.6-1.7-4c-0.6-1.4-1.1-2.6-1.6-3.8c-0.5-1.2-1-2.2-1.3-3.2
			c-0.4-0.9-0.7-1.6-0.9-2c0.4,0.1,0.7,0.1,1,0.1c0.3,0,0.6,0.1,0.9,0.1c0.3,0,0.6,0,0.9-0.1c0.3,0,0.6-0.1,1-0.1
			c0.9,2.6,1.8,5.3,2.8,7.8c1,2.6,2.1,5.3,3.3,8c1.2-2.4,2.3-5,3.3-7.8c1.1-2.8,2-5.4,2.8-8.1c0.6,0.1,1,0.2,1.4,0.2
			c0.4,0,0.8-0.1,1.4-0.2c-0.2,0.4-0.5,1-0.9,2c-0.4,0.9-0.9,2-1.5,3.3c-0.6,1.3-1.2,2.7-1.9,4.2c-0.7,1.6-1.4,3.2-2.1,4.8
			c-0.7,1.6-1.5,3.3-2.2,4.9c-0.7,1.6-1.4,3.1-2,4.6c-0.6,1.4-1.1,2.8-1.6,3.9c-0.5,1.2-0.8,2.1-1,2.8c-0.6-0.1-1-0.2-1.4-0.2
			c-0.4,0-0.9,0.1-1.4,0.2c2.2-3.6,4-7.2,5.5-10.8C269.9-249.6,269.5-250.5,269-251.7z"/>
		<path class="st0" d="M139.9-236.9c-0.1-1.7-0.1-3.5-0.2-5.3c0.4,0.1,0.7,0.1,1,0.1c0.3,0,0.7,0.1,1,0.1c0.3,0,0.7,0,1-0.1
			c0.3,0,0.7-0.1,1-0.1c-0.1,1.8-0.2,3.6-0.2,5.3c-0.1,1.7-0.1,3.5-0.1,5.3c0,3.5,0,6.5,0,9c0,2.5,0.1,4.8,0.1,6.8
			c2,0,3.8,0,5.6-0.1c1.8,0,3.7-0.2,5.8-0.5c-0.1,0.5-0.2,0.9-0.2,1.2c0,0.3,0.1,0.7,0.2,1.1c-1.3-0.1-2.5-0.1-3.8-0.1
			c-1.3,0-2.5,0-3.8,0c-1.3,0-2.6,0-3.8,0c-1.2,0-2.5,0-3.8,0.1c0.1-1.7,0.2-3.4,0.2-5.2c0.1-1.8,0.1-3.5,0.1-5.4v-7.1
			C140-233.4,140-235.2,139.9-236.9z"/>
		<path class="st0" d="M158.8-242.2c0.4-0.4,0.9-0.6,1.5-0.6c0.6,0,1.1,0.2,1.5,0.6c0.4,0.4,0.6,0.9,0.6,1.5c0,0.6-0.2,1.1-0.6,1.5
			c-0.4,0.4-0.9,0.6-1.5,0.6c-0.6,0-1.1-0.2-1.5-0.6c-0.4-0.4-0.6-0.9-0.6-1.5C158.2-241.3,158.4-241.8,158.8-242.2z M158.7-229.7
			c0-1.4-0.1-2.6-0.3-3.8c0.8,0.1,1.4,0.2,1.9,0.2c0.5,0,1.1-0.1,1.9-0.2c-0.1,1.2-0.2,2.5-0.3,3.8c0,1.4-0.1,2.7-0.1,3.9v4.3
			c0,1.2,0,2.5,0.1,3.9c0,1.4,0.1,2.6,0.3,3.7c-0.6-0.1-1.3-0.1-1.9-0.1c-0.6,0-1.2,0-1.9,0.1c0.1-1.1,0.2-2.3,0.3-3.7
			c0-1.4,0.1-2.7,0.1-3.9v-4.3C158.8-227,158.7-228.3,158.7-229.7z"/>
		<path class="st0" d="M186.5-219.8c-0.5,1.3-1.1,2.5-2,3.4c-0.8,0.9-1.8,1.7-3,2.2c-1.1,0.5-2.4,0.8-3.7,0.8
			c-1.3,0-2.5-0.3-3.6-0.8c-1.1-0.6-1.9-1.2-2.4-2c-1,0.8-1.9,1.6-2.8,2.4h-0.7c0.1-0.7,0.1-1.5,0.1-2.4c0-0.9,0.1-1.9,0.1-3
			c0-1.1,0-2.1,0.1-3.2c0-1.1,0-2.1,0-3.1v-7.5c0-0.9,0-2,0-3.1c0-1.1,0-2.2-0.1-3.3c0-1.1-0.1-2.1-0.1-3.1c0-1-0.1-1.8-0.1-2.5
			c0.8,0.1,1.4,0.2,1.9,0.2c0.3,0,0.6,0,0.9-0.1c0.3,0,0.7-0.1,1.1-0.1c-0.1,0.5-0.2,1.4-0.2,2.6c-0.1,1.2-0.1,2.5-0.1,4
			c0,1.5-0.1,3-0.1,4.5c0,1.6-0.1,3-0.1,4.2h0.1c0.9-1.5,2-2.6,3.1-3.3c1.1-0.7,2.4-1,3.9-1c1.4,0,2.7,0.3,3.7,0.8
			c1,0.5,1.9,1.2,2.6,2.1c0.7,0.9,1.2,1.9,1.5,3.1c0.3,1.2,0.5,2.4,0.5,3.7C187.2-222.6,187-221.2,186.5-219.8z M183.1-227.7
			c-0.3-1-0.7-1.8-1.2-2.5c-0.5-0.7-1.1-1.2-1.8-1.5c-0.7-0.3-1.4-0.5-2.1-0.5c-0.9,0-1.7,0.2-2.5,0.5c-0.8,0.3-1.5,0.8-2,1.6
			c-0.6,0.7-1,1.7-1.4,2.8c-0.3,1.2-0.5,2.6-0.5,4.3c0,5.5,2,8.3,6,8.3c0.9,0,1.6-0.2,2.4-0.7c0.7-0.5,1.3-1.1,1.9-2
			c0.5-0.9,1-1.9,1.3-3.1c0.3-1.2,0.5-2.5,0.5-4C183.6-225.6,183.4-226.7,183.1-227.7z"/>
		<path class="st0" d="M199.7-230.6c-0.4-0.1-0.8-0.2-1.2-0.2c-0.7,0-1.3,0.2-1.8,0.5c-0.5,0.3-1,0.7-1.3,1.2
			c-0.4,0.5-0.6,1.1-0.8,1.8c-0.2,0.7-0.3,1.5-0.3,2.2v4.5c0,1.8,0,3.3,0,4.2c0,1,0.1,1.8,0.1,2.4c-0.6-0.1-1.1-0.1-1.7-0.1
			c-0.6,0-1.2,0-1.7,0.1c0.1-0.9,0.1-2.2,0.1-3.8c0-1.6,0-3.6,0-5.9v-1.3c0-1.1,0-2.3,0-3.7c0-1.4-0.1-3-0.1-4.8
			c0.3,0.1,0.6,0.1,0.9,0.1c0.3,0,0.6,0.1,0.9,0.1c0.2,0,0.5,0,0.8-0.1c0.3,0,0.6-0.1,0.9-0.1c-0.1,1-0.2,1.8-0.2,2.4
			c0,0.6,0,1.1,0,1.6l0.1,0c1.6-3,3.4-4.5,5.4-4.5c0.2,0,0.5,0,0.6,0c0.2,0,0.4,0.1,0.7,0.2c-0.1,0.3-0.2,0.8-0.2,1.5
			c0,0.7,0,1.3,0,1.8l-0.3,0.2C200.4-230.3,200.1-230.4,199.7-230.6z"/>
		<path class="st0" d="M208.1-233.4c1-0.3,2.1-0.5,3.2-0.5c1,0,1.9,0.1,2.7,0.4c0.8,0.3,1.5,0.7,2.1,1.2c0.6,0.5,1,1.2,1.4,1.9
			c0.3,0.8,0.5,1.6,0.5,2.5c0,1.6,0,3.1-0.1,4.7c-0.1,1.6-0.1,3.2-0.1,4.9c0,0.3,0,0.7,0,1.1c0,0.4,0.1,0.7,0.2,1
			c0.1,0.3,0.3,0.5,0.5,0.7c0.2,0.2,0.5,0.3,0.9,0.3c0.1,0,0.3,0,0.4,0c0.2,0,0.3-0.1,0.4-0.1v0.9c-0.3,0.1-0.7,0.2-1.1,0.3
			c-0.5,0.1-1,0.1-1.5,0.1c-0.9,0-1.6-0.2-2.1-0.7c-0.5-0.5-0.8-1-0.8-1.8c-1,1-2,1.7-2.9,2.2c-1,0.5-2.1,0.7-3.5,0.7
			c-0.7,0-1.4-0.1-2-0.3c-0.7-0.2-1.2-0.5-1.7-0.9c-0.5-0.4-0.9-1-1.2-1.6c-0.3-0.6-0.5-1.3-0.5-2.1c0-1.7,0.5-2.9,1.5-3.8
			c1-0.9,2.4-1.5,4.3-1.8c1.5-0.2,2.6-0.5,3.5-0.6c0.8-0.2,1.5-0.4,1.9-0.6c0.4-0.2,0.6-0.4,0.7-0.7c0.1-0.3,0.1-0.6,0.1-1
			c0-0.7-0.1-1.3-0.2-2c-0.2-0.6-0.4-1.2-0.8-1.7c-0.4-0.5-0.8-0.8-1.4-1.1c-0.6-0.3-1.3-0.4-2.1-0.4c-1.1,0-2.1,0.2-3.1,0.7
			c-0.9,0.5-1.7,1.2-2.1,2.1h-0.5v-2.1C205.9-232.5,207.1-233.1,208.1-233.4z M213.3-223.8c-0.6,0.1-1.2,0.2-1.9,0.4
			c-0.6,0.1-1.3,0.3-1.9,0.5c-0.6,0.2-1.2,0.5-1.6,0.8c-0.5,0.3-0.9,0.7-1.1,1.2c-0.3,0.5-0.4,1.1-0.4,1.9c0,1.3,0.4,2.3,1.1,2.9
			c0.7,0.7,1.6,1,2.5,1c1,0,2-0.3,2.9-0.9c0.9-0.6,1.5-1.3,2-2l0.2-6.2C214.4-224,213.9-223.9,213.3-223.8z"/>
		<path class="st0" d="M233.6-230.6c-0.4-0.1-0.8-0.2-1.2-0.2c-0.7,0-1.3,0.2-1.8,0.5c-0.5,0.3-1,0.7-1.3,1.2
			c-0.4,0.5-0.6,1.1-0.8,1.8c-0.2,0.7-0.3,1.5-0.3,2.2v4.5c0,1.8,0,3.3,0,4.2c0,1,0.1,1.8,0.1,2.4c-0.6-0.1-1.1-0.1-1.7-0.1
			c-0.6,0-1.2,0-1.7,0.1c0.1-0.9,0.1-2.2,0.1-3.8c0-1.6,0-3.6,0-5.9v-1.3c0-1.1,0-2.3,0-3.7c0-1.4-0.1-3-0.1-4.8
			c0.3,0.1,0.6,0.1,0.9,0.1c0.3,0,0.6,0.1,0.9,0.1c0.2,0,0.5,0,0.8-0.1c0.3,0,0.6-0.1,0.9-0.1c-0.1,1-0.2,1.8-0.2,2.4
			c0,0.6,0,1.1,0,1.6l0.1,0c1.6-3,3.4-4.5,5.4-4.5c0.2,0,0.5,0,0.6,0c0.2,0,0.4,0.1,0.7,0.2c-0.1,0.3-0.2,0.8-0.2,1.5
			c0,0.7,0,1.3,0,1.8l-0.3,0.2C234.3-230.3,234-230.4,233.6-230.6z"/>
		<path class="st0" d="M239.8-242.2c0.4-0.4,0.9-0.6,1.5-0.6c0.6,0,1.1,0.2,1.5,0.6c0.4,0.4,0.6,0.9,0.6,1.5c0,0.6-0.2,1.1-0.6,1.5
			c-0.4,0.4-0.9,0.6-1.5,0.6c-0.6,0-1.1-0.2-1.5-0.6c-0.4-0.4-0.6-0.9-0.6-1.5C239.2-241.3,239.4-241.8,239.8-242.2z M239.7-229.7
			c0-1.4-0.1-2.6-0.3-3.8c0.8,0.1,1.4,0.2,1.9,0.2c0.5,0,1.1-0.1,1.9-0.2c-0.1,1.2-0.2,2.5-0.3,3.8c0,1.4-0.1,2.7-0.1,3.9v4.3
			c0,1.2,0,2.5,0.1,3.9c0,1.4,0.1,2.6,0.3,3.7c-0.6-0.1-1.3-0.1-1.9-0.1c-0.6,0-1.2,0-1.9,0.1c0.1-1.1,0.2-2.3,0.3-3.7
			c0-1.4,0.1-2.7,0.1-3.9v-4.3C239.8-227,239.7-228.3,239.7-229.7z"/>
		<path class="st0" d="M248.8-231c1.6-1.9,4-2.9,7-2.9c1.5,0,2.7,0.2,3.8,0.7c1.1,0.5,1.9,1.1,2.7,1.8c0.7,0.8,1.2,1.6,1.6,2.7
			c0.3,1,0.5,2.1,0.5,3.3c0,0.3,0,0.5,0,0.8c0,0.3,0,0.5-0.1,0.8c-1.5,0-3-0.1-4.4-0.1c-1.5,0-2.9,0-4.4,0c-0.9,0-1.8,0-2.7,0
			c-0.9,0-1.8,0.1-2.7,0.1c0,0.1,0,0.3,0,0.6v0.5c0,1.1,0.2,2.1,0.5,3c0.3,0.9,0.8,1.7,1.4,2.4c0.6,0.7,1.3,1.2,2.2,1.6
			c0.9,0.4,1.9,0.6,3.1,0.6c0.5,0,1.1-0.1,1.7-0.2c0.6-0.1,1.1-0.4,1.7-0.6c0.5-0.3,1.1-0.6,1.5-0.9c0.5-0.4,0.9-0.7,1.3-1.2
			l0.2,0.1l-0.2,2c-0.8,0.7-1.9,1.2-3.1,1.7c-1.2,0.5-2.5,0.7-3.8,0.7c-1.5,0-2.8-0.2-4.1-0.7c-1.2-0.5-2.3-1.1-3.2-2
			c-0.9-0.9-1.6-1.9-2.1-3.1c-0.5-1.2-0.7-2.5-0.7-3.8C246.4-226.5,247.2-229.1,248.8-231z M253.4-231.9c-0.7,0.5-1.3,1.1-1.7,1.8
			c-0.5,0.7-0.8,1.5-1,2.3c-0.2,0.8-0.4,1.6-0.4,2.4c0.9,0,1.7,0.1,2.7,0.1c0.9,0,1.8,0,2.7,0c0.9,0,1.8,0,2.8,0
			c0.9,0,1.8-0.1,2.7-0.1c0-0.7-0.1-1.5-0.2-2.4c-0.1-0.8-0.4-1.6-0.7-2.3c-0.4-0.7-0.9-1.3-1.5-1.8c-0.7-0.5-1.5-0.7-2.6-0.7
			C254.9-232.6,254.1-232.4,253.4-231.9z"/>
		<path class="st0" d="M269.2-216.8c0.3,0.3,0.6,0.6,1,0.9c0.4,0.3,0.9,0.5,1.4,0.7c0.5,0.2,1.1,0.3,1.6,0.3c0.5,0,1-0.1,1.5-0.2
			c0.5-0.2,0.9-0.4,1.3-0.7c0.4-0.3,0.7-0.7,0.9-1.2c0.2-0.5,0.3-1,0.3-1.6c0-0.9-0.2-1.5-0.7-2c-0.5-0.5-1.1-0.8-1.8-1.1
			c-0.7-0.3-1.5-0.5-2.4-0.8c-0.9-0.2-1.6-0.5-2.4-0.9c-0.7-0.4-1.3-0.9-1.8-1.6c-0.5-0.7-0.7-1.6-0.7-2.7c0-0.9,0.2-1.7,0.5-2.5
			c0.3-0.8,0.7-1.4,1.3-2c0.6-0.6,1.3-1,2.1-1.3c0.9-0.3,1.8-0.5,2.9-0.5c1,0,1.9,0.1,2.6,0.4c0.7,0.3,1.4,0.5,2,0.7
			c-0.2,0.4-0.4,0.9-0.6,1.5c-0.2,0.6-0.3,1.1-0.4,1.4h-0.5c-0.2-0.7-0.6-1.3-1.3-1.8c-0.6-0.5-1.4-0.8-2.4-0.8
			c-0.4,0-0.8,0.1-1.2,0.2c-0.4,0.1-0.8,0.3-1.1,0.6c-0.3,0.3-0.6,0.6-0.8,1.1c-0.2,0.4-0.3,1-0.3,1.6c0,0.9,0.2,1.6,0.7,2
			c0.5,0.5,1.1,0.9,1.8,1.1c0.7,0.3,1.5,0.5,2.4,0.7c0.9,0.2,1.6,0.5,2.4,0.9c0.7,0.4,1.3,0.9,1.8,1.5c0.5,0.7,0.7,1.6,0.7,2.7
			c0,0.8-0.2,1.6-0.5,2.4c-0.3,0.8-0.8,1.5-1.5,2.1c-0.6,0.6-1.4,1.1-2.3,1.4c-0.9,0.3-1.9,0.5-3.1,0.5c-1.3,0-2.3-0.1-3.2-0.4
			c-0.9-0.2-1.6-0.5-2.1-0.9c0.2-0.4,0.3-0.8,0.5-1.5c0.2-0.6,0.3-1.1,0.3-1.5h0.5C268.7-217.5,268.9-217.2,269.2-216.8z"/>
	</g>
	<path class="st7" d="M238.1-318.5c0,0,15.6-1.4,46.2,10.3c0,0,6.6-43.2,44.7-64.5C329-372.6,265.5-389.7,238.1-318.5z"/>
	<path class="st8" d="M338.3-369.6c0,0-25.4,20.6-35,40.2c-8.1,16.4-8.4,25.4-4.8,42.6c0,0,33-32.4,91.6-22
		C390.1-308.8,380.3-358.7,338.3-369.6z"/>
</g>
</svg>
