<svg xmlns="http://www.w3.org/2000/svg" viewBox="0 0 656.42 58.05"><defs><style>.cls-1{fill:#150361;}</style></defs><g id="Layer_2" data-name="Layer 2"><g id="Layer_1-2" data-name="Layer 1"><path class="cls-1" d="M4.27,43.52A25.36,25.36,0,0,1,0,29.23,25.4,25.4,0,0,1,4.27,15,30.8,30.8,0,0,1,15.64,4.67,32.91,32.91,0,0,1,31.48.82h22V12.2h-22A19.81,19.81,0,0,0,22,14.49a18.38,18.38,0,0,0-6.83,6.18,15.8,15.8,0,0,0,0,17.15A18.58,18.58,0,0,0,22,44a19.92,19.92,0,0,0,9.51,2.29H40.9V33.51H25.15L29.9,22.15H53.44V57.64h-22a33,33,0,0,1-15.84-3.83A31.21,31.21,0,0,1,4.27,43.52Z"/><polygon class="cls-1" points="353.8 57.64 366.39 57.64 366.39 36.52 390.91 0.82 376.14 0.82 360.11 24.16 344.05 0.82 329.26 0.82 353.8 36.52 353.8 57.64"/><polygon class="cls-1" points="281.69 57.64 293.71 40.05 305.73 57.64 320.48 57.64 301.1 29.23 320.48 0.82 305.73 0.82 293.71 18.42 281.69 0.82 266.91 0.82 286.3 29.23 266.91 57.64 281.69 57.64"/><polygon class="cls-1" points="228.98 24.44 241.72 46.27 227.94 46.27 221.48 57.64 262.51 57.64 228.98 0 195.47 57.64 209.68 57.64 228.98 24.44"/><polygon class="cls-1" points="186.69 46.27 150.65 46.27 150.65 0.82 138.06 0.82 138.06 57.64 186.69 57.64 186.69 46.27"/><polygon class="cls-1" points="95.75 24.44 108.49 46.27 94.71 46.27 88.26 57.64 129.28 57.64 95.75 0 62.24 57.64 76.45 57.64 95.75 24.44"/><polygon class="cls-1" points="656.41 46.52 620.79 46.52 620.79 0.41 608.32 0.41 608.32 58.05 656.41 58.05 656.41 46.52"/><path class="cls-1" d="M571.22,14.28A19.17,19.17,0,0,1,580.61,12h18.67V.41H580.61A31.85,31.85,0,0,0,565,4.31,31,31,0,0,0,553.7,14.76a26.27,26.27,0,0,0-4.2,14.47,26.21,26.21,0,0,0,4.2,14.49A31.16,31.16,0,0,0,565,54.16a32,32,0,0,0,15.65,3.89h18.67V46.52H580.61a19.17,19.17,0,0,1-9.39-2.33,18.47,18.47,0,0,1-6.75-6.25,16.26,16.26,0,0,1,0-17.39A18.27,18.27,0,0,1,571.22,14.28Z"/><path class="cls-1" d="M538.52,14.76A31.05,31.05,0,0,0,527.25,4.31,31.75,31.75,0,0,0,511.61.41H490.17V58.05h21.44a31.86,31.86,0,0,0,15.64-3.89,31.11,31.11,0,0,0,11.27-10.44,26.22,26.22,0,0,0,4.21-14.49A26.28,26.28,0,0,0,538.52,14.76ZM527.75,37.94A18.39,18.39,0,0,1,521,44.19a19.17,19.17,0,0,1-9.39,2.33h-9V12h9A19.17,19.17,0,0,1,521,14.28a18.19,18.19,0,0,1,6.75,6.27,16.26,16.26,0,0,1,0,17.39Z"/><path class="cls-1" d="M459,23.68c8.22,2,12,4,12,5.67,0,1.85-5.81,3.48-14.79,4.5a19.87,19.87,0,0,0,.56-4.58c0-11.7-10.2-21.2-22.83-21.22S411,17.5,411,29.2a19.86,19.86,0,0,0,.54,4.58c-9-1.05-14.78-2.7-14.78-4.55,0-1.62,3.21-3.48,12-5.63-13.75,1.26-22.93,3.55-22.93,6.18,0,4,21.48,7.33,48,7.37s48-3.18,48-7.21C481.88,27.31,472.72,25,459,23.68ZM431.86,12.81c-10.17,2.61-16.33,12-14.39,21.44l-2.42-.2c-2.7-9.8,3.54-19.86,14.12-22.58a21.44,21.44,0,0,1,16.23,2.25A21.49,21.49,0,0,0,431.86,12.81Z"/><path class="cls-1" d="M419.6,39.75a19.26,19.26,0,0,0,6.82,6.75,19.83,19.83,0,0,1-8.71-6.85l-3.9-.25a23.77,23.77,0,0,0,40.07.07c-6.09.41-12.88.64-20,.63C428.88,40.09,424.1,40,419.6,39.75Z"/></g></g></svg>