<?xml version="1.0" standalone="no"?><!-- Created with ZXing.Net (http://zxingnet.codeplex.com/) --><!DOCTYPE svg PUBLIC "-//W3C//DTD SVG 1.1//EN" "http://www.w3.org/Graphics/SVG/1.1/DTD/svg11.dtd"><svg xmlns="http://www.w3.org/2000/svg" version="1.2" baseProfile="tiny" shape-rendering="crispEdges" viewBox="0 0 694 629" viewport-fill="rgb(255,255,255)" viewport-fill-opacity="1" fill="rgb(0,0,0)" fill-opacity="1" style="background-color:rgb(255,255,255);background-color:rgba(1);"><rect x="100" y="68" width="17" height="119"/><rect x="100" y="204" width="17" height="34"/><rect x="100" y="255" width="17" height="17"/><rect x="100" y="289" width="17" height="68"/><rect x="100" y="374" width="51" height="17"/><rect x="100" y="408" width="34" height="17"/><rect x="100" y="442" width="17" height="119"/><rect x="117" y="68" width="102" height="17"/><rect x="117" y="170" width="102" height="17"/><rect x="117" y="204" width="34" height="17"/><rect x="117" y="238" width="68" height="17"/><rect x="117" y="272" width="17" height="17"/><rect x="117" y="306" width="17" height="34"/><rect x="117" y="442" width="102" height="17"/><rect x="117" y="544" width="102" height="17"/><rect x="134" y="102" width="51" height="51"/><rect x="134" y="221" width="17" height="51"/><rect x="134" y="357" width="17" height="51"/><rect x="134" y="476" width="51" height="51"/><rect x="151" y="255" width="17" height="34"/><rect x="151" y="306" width="17" height="34"/><rect x="151" y="391" width="34" height="34"/><rect x="168" y="221" width="17" height="51"/><rect x="168" y="289" width="34" height="17"/><rect x="168" y="357" width="17" height="68"/><rect x="185" y="204" width="17" height="34"/><rect x="185" y="323" width="17" height="17"/><rect x="185" y="374" width="34" height="17"/><rect x="185" y="408" width="34" height="17"/><rect x="202" y="85" width="17" height="102"/><rect x="202" y="204" width="17" height="17"/><rect x="202" y="238" width="17" height="17"/><rect x="202" y="272" width="17" height="17"/><rect x="202" y="306" width="51" height="17"/><rect x="202" y="340" width="68" height="17"/><rect x="202" y="459" width="17" height="102"/><rect x="219" y="221" width="34" height="17"/><rect x="219" y="357" width="17" height="17"/><rect x="219" y="391" width="17" height="17"/><rect x="236" y="68" width="17" height="34"/><rect x="236" y="136" width="17" height="119"/><rect x="236" y="289" width="17" height="34"/><rect x="236" y="408" width="17" height="34"/><rect x="236" y="459" width="34" height="17"/><rect x="236" y="510" width="34" height="51"/><rect x="253" y="68" width="51" height="17"/><rect x="253" y="102" width="17" height="17"/><rect x="253" y="153" width="34" height="17"/><rect x="253" y="187" width="17" height="34"/><rect x="253" y="238" width="34" height="17"/><rect x="253" y="272" width="34" height="17"/><rect x="253" y="357" width="17" height="34"/><rect x="253" y="476" width="17" height="85"/><rect x="270" y="170" width="17" height="17"/><rect x="270" y="255" width="17" height="68"/><rect x="270" y="357" width="17" height="17"/><rect x="270" y="408" width="17" height="17"/><rect x="270" y="493" width="17" height="34"/><rect x="287" y="85" width="17" height="17"/><rect x="287" y="119" width="34" height="34"/><rect x="287" y="204" width="34" height="17"/><rect x="287" y="255" width="34" height="17"/><rect x="287" y="306" width="17" height="17"/><rect x="287" y="340" width="51" height="17"/><rect x="287" y="391" width="34" height="17"/><rect x="287" y="442" width="17" height="17"/><rect x="287" y="476" width="51" height="17"/><rect x="287" y="527" width="34" height="17"/><rect x="304" y="153" width="17" height="34"/><rect x="304" y="221" width="17" height="51"/><rect x="304" y="357" width="17" height="51"/><rect x="304" y="493" width="17" height="51"/><rect x="321" y="85" width="17" height="51"/><rect x="321" y="153" width="17" height="17"/><rect x="321" y="221" width="17" height="17"/><rect x="321" y="272" width="17" height="34"/><rect x="321" y="323" width="17" height="34"/><rect x="321" y="374" width="51" height="17"/><rect x="321" y="408" width="68" height="34"/><rect x="321" y="459" width="17" height="34"/><rect x="321" y="510" width="51" height="17"/><rect x="321" y="544" width="34" height="17"/><rect x="338" y="68" width="17" height="34"/><rect x="338" y="119" width="17" height="34"/><rect x="338" y="170" width="17" height="51"/><rect x="338" y="255" width="17" height="34"/><rect x="338" y="391" width="17" height="51"/><rect x="338" y="527" width="17" height="34"/><rect x="355" y="119" width="17" height="17"/><rect x="355" y="187" width="17" height="68"/><rect x="355" y="272" width="34" height="68"/><rect x="355" y="357" width="17" height="34"/><rect x="355" y="442" width="51" height="17"/><rect x="355" y="493" width="17" height="51"/><rect x="372" y="85" width="17" height="17"/><rect x="372" y="170" width="17" height="17"/><rect x="372" y="204" width="17" height="170"/><rect x="372" y="476" width="17" height="34"/><rect x="372" y="527" width="17" height="34"/><rect x="389" y="102" width="17" height="51"/><rect x="389" y="221" width="17" height="17"/><rect x="389" y="306" width="17" height="17"/><rect x="389" y="374" width="17" height="17"/><rect x="406" y="68" width="17" height="68"/><rect x="406" y="153" width="17" height="51"/><rect x="406" y="289" width="34" height="17"/><rect x="406" y="391" width="34" height="17"/><rect x="406" y="459" width="51" height="17"/><rect x="406" y="493" width="17" height="34"/><rect x="406" y="544" width="17" height="17"/><rect x="423" y="119" width="17" height="17"/><rect x="423" y="187" width="17" height="85"/><rect x="423" y="306" width="17" height="136"/><rect x="423" y="476" width="34" height="34"/><rect x="440" y="85" width="17" height="17"/><rect x="440" y="170" width="17" height="34"/><rect x="440" y="221" width="17" height="17"/><rect x="440" y="255" width="17" height="34"/><rect x="440" y="323" width="17" height="68"/><rect x="440" y="408" width="17" height="102"/><rect x="440" y="527" width="34" height="34"/><rect x="457" y="204" width="68" height="17"/><rect x="457" y="306" width="34" height="34"/><rect x="457" y="408" width="85" height="17"/><rect x="457" y="476" width="85" height="17"/><rect x="457" y="510" width="17" height="51"/><rect x="474" y="68" width="17" height="119"/><rect x="474" y="221" width="34" height="34"/><rect x="474" y="272" width="17" height="102"/><rect x="474" y="442" width="17" height="17"/><rect x="474" y="527" width="68" height="17"/><rect x="491" y="68" width="102" height="17"/><rect x="491" y="170" width="102" height="17"/><rect x="491" y="255" width="17" height="34"/><rect x="491" y="323" width="17" height="17"/><rect x="491" y="357" width="17" height="17"/><rect x="491" y="391" width="17" height="34"/><rect x="491" y="493" width="68" height="17"/><rect x="508" y="102" width="51" height="51"/><rect x="508" y="255" width="34" height="17"/><rect x="508" y="425" width="17" height="136"/><rect x="525" y="238" width="17" height="34"/><rect x="525" y="374" width="17" height="17"/><rect x="525" y="425" width="34" height="17"/><rect x="542" y="238" width="17" height="17"/><rect x="542" y="357" width="51" height="17"/><rect x="559" y="204" width="34" height="34"/><rect x="559" y="289" width="34" height="17"/><rect x="559" y="408" width="17" height="17"/><rect x="559" y="459" width="34" height="17"/><rect x="559" y="510" width="34" height="17"/><rect x="576" y="85" width="17" height="102"/><rect x="576" y="238" width="17" height="17"/><rect x="576" y="272" width="17" height="51"/><rect x="576" y="340" width="17" height="51"/><rect x="576" y="425" width="17" height="102"/><rect x="576" y="544" width="17" height="17"/></svg>