<?xml version="1.0" standalone="no"?><!-- Created with ZXing.Net (http://zxingnet.codeplex.com/) --><!DOCTYPE svg PUBLIC "-//W3C//DTD SVG 1.1//EN" "http://www.w3.org/Graphics/SVG/1.1/DTD/svg11.dtd"><svg xmlns="http://www.w3.org/2000/svg" version="1.2" baseProfile="tiny" shape-rendering="crispEdges" viewBox="0 0 928 866" viewport-fill="rgb(255,255,255)" viewport-fill-opacity="1" fill="rgb(0,0,0)" fill-opacity="1" style="background-color:rgb(255,255,255);background-color:rgba(1);"><rect x="130" y="99" width="23" height="161"/><rect x="130" y="283" width="69" height="23"/><rect x="130" y="352" width="46" height="23"/><rect x="130" y="398" width="46" height="23"/><rect x="130" y="513" width="23" height="23"/><rect x="130" y="559" width="23" height="23"/><rect x="130" y="605" width="23" height="161"/><rect x="153" y="99" width="138" height="23"/><rect x="153" y="237" width="138" height="23"/><rect x="153" y="306" width="46" height="23"/><rect x="153" y="375" width="23" height="92"/><rect x="153" y="490" width="23" height="23"/><rect x="153" y="536" width="23" height="23"/><rect x="153" y="605" width="138" height="23"/><rect x="153" y="743" width="138" height="23"/><rect x="176" y="145" width="69" height="69"/><rect x="176" y="329" width="46" height="23"/><rect x="176" y="375" width="23" height="23"/><rect x="176" y="421" width="23" height="69"/><rect x="176" y="513" width="23" height="23"/><rect x="176" y="559" width="23" height="23"/><rect x="176" y="651" width="69" height="69"/><rect x="199" y="352" width="23" height="23"/><rect x="199" y="398" width="23" height="23"/><rect x="222" y="283" width="46" height="46"/><rect x="222" y="375" width="115" height="23"/><rect x="222" y="421" width="23" height="23"/><rect x="222" y="490" width="23" height="23"/><rect x="222" y="536" width="46" height="23"/><rect x="245" y="352" width="23" height="69"/><rect x="245" y="559" width="138" height="23"/><rect x="268" y="122" width="23" height="138"/><rect x="268" y="283" width="69" height="23"/><rect x="268" y="329" width="23" height="23"/><rect x="268" y="421" width="23" height="23"/><rect x="268" y="467" width="23" height="23"/><rect x="268" y="513" width="23" height="23"/><rect x="268" y="628" width="23" height="138"/><rect x="291" y="306" width="23" height="23"/><rect x="291" y="352" width="23" height="69"/><rect x="291" y="444" width="23" height="23"/><rect x="291" y="536" width="23" height="46"/><rect x="314" y="145" width="69" height="23"/><rect x="314" y="237" width="23" height="69"/><rect x="314" y="490" width="23" height="46"/><rect x="314" y="582" width="23" height="92"/><rect x="314" y="697" width="23" height="69"/><rect x="337" y="99" width="23" height="23"/><rect x="337" y="168" width="69" height="23"/><rect x="337" y="214" width="23" height="23"/><rect x="337" y="260" width="46" height="23"/><rect x="337" y="329" width="23" height="23"/><rect x="337" y="398" width="23" height="23"/><rect x="337" y="536" width="46" height="46"/><rect x="337" y="605" width="23" height="46"/><rect x="337" y="674" width="69" height="23"/><rect x="337" y="720" width="23" height="23"/><rect x="360" y="122" width="23" height="92"/><rect x="360" y="237" width="23" height="92"/><rect x="360" y="444" width="23" height="69"/><rect x="360" y="582" width="92" height="23"/><rect x="360" y="697" width="23" height="23"/><rect x="383" y="122" width="46" height="23"/><rect x="383" y="283" width="23" height="46"/><rect x="383" y="352" width="23" height="23"/><rect x="383" y="398" width="46" height="46"/><rect x="383" y="467" width="23" height="46"/><rect x="383" y="536" width="23" height="23"/><rect x="383" y="605" width="46" height="23"/><rect x="383" y="651" width="23" height="46"/><rect x="383" y="720" width="23" height="23"/><rect x="406" y="99" width="23" height="69"/><rect x="406" y="237" width="23" height="46"/><rect x="406" y="375" width="23" height="92"/><rect x="406" y="559" width="23" height="92"/><rect x="406" y="743" width="23" height="23"/><rect x="429" y="99" width="46" height="23"/><rect x="429" y="145" width="92" height="46"/><rect x="429" y="214" width="23" height="23"/><rect x="429" y="260" width="69" height="23"/><rect x="429" y="329" width="23" height="23"/><rect x="429" y="398" width="23" height="23"/><rect x="429" y="444" width="46" height="23"/><rect x="429" y="513" width="23" height="23"/><rect x="429" y="628" width="46" height="23"/><rect x="429" y="697" width="23" height="23"/><rect x="452" y="122" width="46" height="92"/><rect x="452" y="237" width="23" height="92"/><rect x="452" y="421" width="23" height="92"/><rect x="452" y="605" width="23" height="92"/><rect x="475" y="214" width="115" height="23"/><rect x="475" y="375" width="23" height="23"/><rect x="475" y="467" width="69" height="23"/><rect x="475" y="743" width="69" height="23"/><rect x="498" y="99" width="23" height="23"/><rect x="498" y="237" width="23" height="23"/><rect x="498" y="306" width="23" height="23"/><rect x="498" y="352" width="69" height="23"/><rect x="498" y="444" width="46" height="46"/><rect x="498" y="582" width="23" height="46"/><rect x="498" y="674" width="23" height="23"/><rect x="498" y="720" width="46" height="46"/><rect x="521" y="260" width="23" height="46"/><rect x="521" y="375" width="23" height="46"/><rect x="521" y="490" width="46" height="23"/><rect x="521" y="536" width="23" height="69"/><rect x="521" y="628" width="23" height="46"/><rect x="544" y="168" width="46" height="23"/><rect x="544" y="237" width="23" height="23"/><rect x="544" y="283" width="23" height="23"/><rect x="544" y="421" width="23" height="46"/><rect x="544" y="536" width="23" height="23"/><rect x="544" y="582" width="23" height="23"/><rect x="544" y="697" width="46" height="23"/><rect x="567" y="99" width="23" height="46"/><rect x="567" y="191" width="23" height="46"/><rect x="567" y="260" width="23" height="23"/><rect x="567" y="375" width="92" height="23"/><rect x="567" y="605" width="46" height="23"/><rect x="567" y="720" width="46" height="46"/><rect x="590" y="122" width="23" height="46"/><rect x="590" y="237" width="23" height="23"/><rect x="590" y="306" width="69" height="23"/><rect x="590" y="352" width="46" height="46"/><rect x="590" y="444" width="23" height="92"/><rect x="590" y="559" width="23" height="138"/><rect x="613" y="283" width="23" height="138"/><rect x="613" y="467" width="23" height="115"/><rect x="613" y="651" width="23" height="46"/><rect x="636" y="99" width="23" height="161"/><rect x="636" y="283" width="23" height="69"/><rect x="636" y="398" width="23" height="115"/><rect x="636" y="559" width="69" height="23"/><rect x="636" y="605" width="23" height="23"/><rect x="636" y="651" width="69" height="23"/><rect x="636" y="720" width="23" height="23"/><rect x="659" y="99" width="138" height="23"/><rect x="659" y="237" width="138" height="23"/><rect x="659" y="398" width="23" height="46"/><rect x="659" y="467" width="23" height="23"/><rect x="659" y="513" width="23" height="23"/><rect x="659" y="697" width="69" height="23"/><rect x="659" y="743" width="69" height="23"/><rect x="682" y="145" width="69" height="69"/><rect x="682" y="352" width="23" height="23"/><rect x="682" y="582" width="23" height="184"/><rect x="705" y="306" width="23" height="23"/><rect x="705" y="375" width="23" height="138"/><rect x="705" y="536" width="23" height="23"/><rect x="705" y="605" width="23" height="46"/><rect x="728" y="283" width="23" height="23"/><rect x="728" y="329" width="69" height="23"/><rect x="728" y="490" width="23" height="23"/><rect x="728" y="582" width="69" height="23"/><rect x="728" y="674" width="69" height="23"/><rect x="751" y="352" width="23" height="46"/><rect x="751" y="421" width="23" height="69"/><rect x="751" y="513" width="23" height="46"/><rect x="751" y="605" width="23" height="92"/><rect x="751" y="720" width="23" height="46"/><rect x="774" y="122" width="23" height="138"/><rect x="774" y="306" width="23" height="46"/><rect x="774" y="375" width="23" height="69"/><rect x="774" y="467" width="23" height="69"/><rect x="774" y="605" width="23" height="23"/><rect x="774" y="651" width="23" height="69"/><rect x="774" y="743" width="23" height="23"/></svg>