<?xml version="1.0" standalone="no"?><!-- Created with ZXing.Net (http://zxingnet.codeplex.com/) --><!DOCTYPE svg PUBLIC "-//W3C//DTD SVG 1.1//EN" "http://www.w3.org/Graphics/SVG/1.1/DTD/svg11.dtd"><svg xmlns="http://www.w3.org/2000/svg" version="1.2" baseProfile="tiny" shape-rendering="crispEdges" viewBox="0 0 460 404" viewport-fill="rgb(255,255,255)" viewport-fill-opacity="1" fill="rgb(0,0,0)" fill-opacity="1" style="background-color:rgb(255,255,255);background-color:rgba(1);"><rect x="81" y="53" width="9" height="63"/><rect x="81" y="125" width="18" height="9"/><rect x="81" y="143" width="9" height="18"/><rect x="81" y="170" width="27" height="9"/><rect x="81" y="197" width="9" height="9"/><rect x="81" y="215" width="9" height="18"/><rect x="81" y="242" width="18" height="9"/><rect x="81" y="269" width="18" height="9"/><rect x="81" y="287" width="9" height="63"/><rect x="90" y="53" width="54" height="9"/><rect x="90" y="107" width="54" height="9"/><rect x="90" y="134" width="9" height="18"/><rect x="90" y="179" width="18" height="18"/><rect x="90" y="206" width="9" height="18"/><rect x="90" y="233" width="9" height="18"/><rect x="90" y="287" width="54" height="9"/><rect x="90" y="341" width="54" height="9"/><rect x="99" y="71" width="27" height="27"/><rect x="99" y="143" width="9" height="9"/><rect x="99" y="161" width="9" height="45"/><rect x="99" y="215" width="18" height="9"/><rect x="99" y="233" width="18" height="9"/><rect x="99" y="305" width="27" height="27"/><rect x="108" y="134" width="18" height="9"/><rect x="108" y="152" width="9" height="18"/><rect x="108" y="188" width="9" height="9"/><rect x="108" y="206" width="9" height="36"/><rect x="108" y="251" width="9" height="18"/><rect x="117" y="125" width="9" height="18"/><rect x="117" y="152" width="18" height="9"/><rect x="117" y="170" width="18" height="9"/><rect x="117" y="197" width="63" height="9"/><rect x="117" y="251" width="45" height="9"/><rect x="117" y="269" width="9" height="9"/><rect x="126" y="125" width="18" height="9"/><rect x="126" y="143" width="9" height="90"/><rect x="135" y="62" width="9" height="54"/><rect x="135" y="143" width="27" height="9"/><rect x="135" y="161" width="18" height="9"/><rect x="135" y="179" width="18" height="9"/><rect x="135" y="215" width="18" height="9"/><rect x="135" y="233" width="9" height="9"/><rect x="135" y="269" width="9" height="9"/><rect x="135" y="296" width="9" height="54"/><rect x="144" y="134" width="9" height="18"/><rect x="144" y="224" width="18" height="9"/><rect x="153" y="53" width="9" height="36"/><rect x="153" y="98" width="9" height="18"/><rect x="153" y="170" width="9" height="9"/><rect x="153" y="188" width="27" height="18"/><rect x="153" y="233" width="9" height="9"/><rect x="153" y="260" width="9" height="9"/><rect x="153" y="278" width="9" height="9"/><rect x="153" y="296" width="18" height="18"/><rect x="153" y="332" width="9" height="18"/><rect x="162" y="71" width="18" height="9"/><rect x="162" y="116" width="9" height="9"/><rect x="162" y="134" width="9" height="9"/><rect x="162" y="206" width="9" height="18"/><rect x="162" y="314" width="9" height="18"/><rect x="171" y="62" width="9" height="18"/><rect x="171" y="98" width="9" height="18"/><rect x="171" y="152" width="9" height="18"/><rect x="171" y="206" width="18" height="9"/><rect x="171" y="224" width="27" height="9"/><rect x="171" y="242" width="9" height="36"/><rect x="171" y="305" width="9" height="18"/><rect x="171" y="332" width="18" height="9"/><rect x="180" y="53" width="9" height="9"/><rect x="180" y="89" width="9" height="9"/><rect x="180" y="134" width="9" height="18"/><rect x="180" y="170" width="9" height="27"/><rect x="180" y="215" width="9" height="45"/><rect x="180" y="269" width="9" height="27"/><rect x="180" y="314" width="9" height="36"/><rect x="189" y="71" width="9" height="9"/><rect x="189" y="107" width="9" height="9"/><rect x="189" y="125" width="18" height="9"/><rect x="189" y="179" width="18" height="9"/><rect x="189" y="215" width="9" height="18"/><rect x="189" y="242" width="9" height="9"/><rect x="189" y="260" width="9" height="18"/><rect x="189" y="287" width="9" height="27"/><rect x="189" y="323" width="9" height="9"/><rect x="189" y="341" width="9" height="9"/><rect x="198" y="53" width="9" height="18"/><rect x="198" y="80" width="27" height="9"/><rect x="198" y="98" width="9" height="9"/><rect x="198" y="143" width="54" height="9"/><rect x="198" y="170" width="9" height="18"/><rect x="198" y="206" width="54" height="9"/><rect x="198" y="278" width="9" height="9"/><rect x="198" y="314" width="54" height="9"/><rect x="207" y="89" width="27" height="9"/><rect x="207" y="107" width="9" height="18"/><rect x="207" y="152" width="18" height="9"/><rect x="207" y="170" width="36" height="9"/><rect x="207" y="188" width="18" height="9"/><rect x="207" y="224" width="54" height="9"/><rect x="207" y="242" width="18" height="27"/><rect x="207" y="332" width="18" height="9"/><rect x="216" y="53" width="18" height="9"/><rect x="216" y="71" width="9" height="27"/><rect x="216" y="134" width="9" height="99"/><rect x="216" y="269" width="9" height="72"/><rect x="225" y="62" width="9" height="9"/><rect x="225" y="107" width="9" height="9"/><rect x="225" y="179" width="9" height="9"/><rect x="225" y="242" width="9" height="9"/><rect x="225" y="269" width="18" height="9"/><rect x="225" y="341" width="18" height="9"/><rect x="234" y="71" width="45" height="9"/><rect x="234" y="116" width="9" height="45"/><rect x="234" y="188" width="9" height="54"/><rect x="234" y="251" width="9" height="27"/><rect x="234" y="287" width="9" height="63"/><rect x="243" y="80" width="9" height="9"/><rect x="243" y="107" width="9" height="9"/><rect x="243" y="134" width="9" height="27"/><rect x="243" y="179" width="9" height="18"/><rect x="243" y="215" width="9" height="18"/><rect x="243" y="242" width="9" height="27"/><rect x="243" y="278" width="9" height="18"/><rect x="243" y="332" width="18" height="9"/><rect x="252" y="62" width="18" height="18"/><rect x="252" y="98" width="18" height="9"/><rect x="252" y="116" width="36" height="9"/><rect x="252" y="161" width="18" height="9"/><rect x="252" y="188" width="9" height="18"/><rect x="252" y="233" width="9" height="9"/><rect x="252" y="305" width="36" height="9"/><rect x="252" y="341" width="54" height="9"/><rect x="261" y="89" width="9" height="45"/><rect x="261" y="143" width="18" height="9"/><rect x="261" y="179" width="9" height="9"/><rect x="261" y="197" width="45" height="9"/><rect x="261" y="215" width="9" height="9"/><rect x="261" y="251" width="9" height="18"/><rect x="261" y="278" width="9" height="36"/><rect x="261" y="323" width="9" height="9"/><rect x="270" y="125" width="9" height="36"/><rect x="270" y="170" width="27" height="9"/><rect x="270" y="188" width="9" height="18"/><rect x="270" y="224" width="9" height="27"/><rect x="270" y="260" width="9" height="18"/><rect x="270" y="287" width="9" height="27"/><rect x="270" y="332" width="36" height="18"/><rect x="279" y="53" width="9" height="18"/><rect x="279" y="89" width="9" height="45"/><rect x="279" y="161" width="9" height="18"/><rect x="279" y="206" width="18" height="18"/><rect x="279" y="233" width="27" height="9"/><rect x="279" y="269" width="9" height="18"/><rect x="279" y="314" width="9" height="36"/><rect x="288" y="53" width="9" height="9"/><rect x="288" y="89" width="18" height="9"/><rect x="288" y="125" width="9" height="36"/><rect x="288" y="179" width="9" height="90"/><rect x="288" y="278" width="18" height="9"/><rect x="288" y="323" width="9" height="27"/><rect x="297" y="71" width="9" height="27"/><rect x="297" y="107" width="9" height="36"/><rect x="297" y="152" width="9" height="18"/><rect x="297" y="188" width="9" height="18"/><rect x="297" y="215" width="9" height="9"/><rect x="297" y="251" width="9" height="63"/><rect x="306" y="134" width="9" height="18"/><rect x="306" y="170" width="9" height="27"/><rect x="306" y="242" width="9" height="36"/><rect x="306" y="305" width="18" height="18"/><rect x="306" y="332" width="18" height="9"/><rect x="315" y="53" width="9" height="63"/><rect x="315" y="143" width="9" height="27"/><rect x="315" y="179" width="9" height="27"/><rect x="315" y="224" width="9" height="18"/><rect x="315" y="260" width="9" height="18"/><rect x="315" y="287" width="9" height="9"/><rect x="315" y="323" width="9" height="18"/><rect x="324" y="53" width="54" height="9"/><rect x="324" y="107" width="54" height="9"/><rect x="324" y="125" width="9" height="9"/><rect x="324" y="143" width="18" height="9"/><rect x="324" y="170" width="9" height="9"/><rect x="324" y="188" width="27" height="9"/><rect x="324" y="206" width="9" height="18"/><rect x="324" y="242" width="9" height="18"/><rect x="324" y="269" width="27" height="9"/><rect x="324" y="305" width="27" height="9"/><rect x="324" y="323" width="18" height="9"/><rect x="324" y="341" width="9" height="9"/><rect x="333" y="71" width="27" height="27"/><rect x="333" y="161" width="18" height="9"/><rect x="333" y="197" width="9" height="9"/><rect x="333" y="215" width="9" height="27"/><rect x="333" y="278" width="9" height="54"/><rect x="342" y="125" width="36" height="9"/><rect x="342" y="152" width="9" height="18"/><rect x="342" y="179" width="9" height="18"/><rect x="342" y="206" width="9" height="9"/><rect x="342" y="224" width="9" height="9"/><rect x="342" y="242" width="9" height="9"/><rect x="342" y="278" width="27" height="9"/><rect x="342" y="314" width="36" height="9"/><rect x="342" y="341" width="9" height="9"/><rect x="351" y="134" width="9" height="18"/><rect x="351" y="179" width="18" height="9"/><rect x="351" y="215" width="18" height="9"/><rect x="351" y="251" width="18" height="9"/><rect x="351" y="287" width="18" height="9"/><rect x="351" y="323" width="18" height="9"/><rect x="360" y="143" width="9" height="9"/><rect x="360" y="161" width="18" height="9"/><rect x="360" y="269" width="9" height="36"/><rect x="369" y="62" width="9" height="54"/><rect x="369" y="197" width="9" height="9"/><rect x="369" y="233" width="9" height="9"/><rect x="369" y="341" width="9" height="9"/></svg>