<?xml version="1.0" encoding="UTF-8"?>
<svg width="339px" height="55px" viewBox="0 0 339 55" version="1.1" xmlns="http://www.w3.org/2000/svg" xmlns:xlink="http://www.w3.org/1999/xlink">
    <!-- Generator: Sketch 50 (54983) - http://www.bohemiancoding.com/sketch -->
    <title>Page 1</title>
    <desc>Created with Sketch.</desc>
    <defs>
        <polygon id="path-1" points="0 0.0218572269 38.4945886 0.0218572269 38.4945886 51.593403 0 51.593403"></polygon>
        <polygon id="path-3" points="0.163653964 0.280676473 49.4145 0.280676473 49.4145 55 0.163653964 55"></polygon>
        <polygon id="path-5" points="0.0993571429 0.238333333 49.3500779 0.238333333 49.3500779 54.9573285 0.0993571429 54.9573285"></polygon>
        <polygon id="path-7" points="0 56 339 56 339 1 0 1"></polygon>
    </defs>
    <g id="Symbols" stroke="none" stroke-width="1" fill="none" fill-rule="evenodd">
        <g id="Logo">
            <g id="Page-1">
                <g id="Group-3" transform="translate(0.000000, 2.000000)">
                    <mask id="mask-2" fill="white">
                        <use xlink:href="#path-1"></use>
                    </mask>
                    <g id="Clip-2"></g>
                    <path d="M20.2197273,40.7338795 C23.8786364,40.7189205 25.662,38.1894411 25.6499455,35.3066466 C25.6386,32.4238521 23.907,30.0532219 20.2480909,30.0681808 L12.6438,30.0995233 L12.6877636,40.7645096 L20.2197273,40.7338795 Z M19.0589455,19.9830301 C22.2158182,19.9702082 23.5701818,17.657989 23.5595455,15.2090027 C23.5496182,12.830537 22.1789455,10.8182082 18.8072182,10.8310301 L12.5658,10.8573863 L12.6033818,20.0093863 L19.0589455,19.9830301 Z M-9.06664067e-18,8.13415342 C-0.0177272727,3.69705753 3.54829091,0.0848383562 7.96592727,0.0663178082 L18.8348727,0.0221534247 C29.0932909,-0.0205863014 36.2856,4.56253699 36.3217636,13.4267562 C36.3394909,17.7498795 34.2767455,22.1556329 30.4122,24.4051671 L30.4129091,24.5483452 C36.3026182,26.3263178 38.4759818,31.5783178 38.4944182,36.1187014 C38.5405091,47.3613863 29.2315636,51.5071397 19.0447636,51.5491671 L8.17581818,51.5933315 C3.75818182,51.6118521 0.162381818,48.0288384 0.143945455,43.5917425 L-9.06664067e-18,8.13415342 Z" id="Fill-1" fill="#00AAFF" mask="url(#mask-2)"></path>
                </g>
                <g id="Group-6" transform="translate(40.000000, 0.000000)">
                    <mask id="mask-4" fill="white">
                        <use xlink:href="#path-3"></use>
                    </mask>
                    <g id="Clip-5"></g>
                    <path d="M34.6452143,41.2104423 C27.0652143,44.8933269 17.8630714,41.8013397 14.1323571,34.3185192 C10.4023571,26.8356987 13.5337857,17.7508269 21.1137857,14.0686474 C28.6937857,10.3857628 37.8959286,13.47775 41.6266429,20.9605705 C45.3573571,28.443391 42.2252143,37.5275577 34.6452143,41.2104423 M49.3852143,10.3843526 C41.4173571,0.706467949 27.4445,-2.64641667 15.6402143,3.08909615 C1.92664286,9.75114744 -3.73907143,26.1848654 3.01021429,39.7226218 C9.75878571,53.2596731 26.4059286,58.85275 40.1187857,52.1899936 C43.8416429,50.3820449 46.9652143,47.8492244 49.4145,44.8538397 C48.1266429,43.2891603 46.9895,41.5651218 46.0502143,39.6810192 C41.1337857,29.8190962 42.8123571,18.4235192 49.3852143,10.3843526" id="Fill-4" fill="#F47E20" mask="url(#mask-4)"></path>
                </g>
                <g id="Group-9" transform="translate(89.000000, 0.000000)">
                    <mask id="mask-6" fill="white">
                        <use xlink:href="#path-5"></use>
                    </mask>
                    <g id="Clip-8"></g>
                    <path d="M28.4000714,41.1698269 C20.8200714,44.8527115 11.6179286,41.7607244 7.88721429,34.2779038 C4.1565,26.7943782 7.28792857,17.7102115 14.8686429,14.0280321 C22.4486429,10.3451474 31.6507857,13.4371346 35.3807857,20.91925 C39.1115,28.4027756 35.9793571,37.4869423 28.4000714,41.1698269 M9.39507143,3.04848077 C5.67221429,4.85642949 2.54864286,7.38925 0.0993571429,10.3846346 C1.38721429,11.9493141 2.52364286,13.6726474 3.46364286,15.55675 C8.38007143,25.4193782 6.7015,36.8149551 0.128642857,44.8541218 C8.09578571,54.5313013 22.0693571,57.8841859 33.8736429,52.1493782 C47.5865,45.4873269 53.2529286,29.0529038 46.5036429,15.5158526 C39.7543571,1.97880128 23.1079286,-3.61498077 9.39507143,3.04848077" id="Fill-7" fill="#7AC043" mask="url(#mask-6)"></path>
                </g>
                <path d="M92.2449541,16.2517184 C91.3350246,14.338618 90.2334216,12.5887611 88.9858148,11 C82.6183838,19.1621799 80.9922739,30.7338597 85.7550459,40.7475657 C86.6656674,42.6606661 87.7665784,44.4112389 89.0141852,46 C95.3816162,37.8371042 97.0077261,26.2661403 92.2449541,16.2517184" id="Fill-10" fill="#3D7638"></path>
                <path d="M186,2 L222,2 C222,7.90886812 217.216971,12.6992316 211.315574,12.6992316 L198.465634,12.6992316 L198.465634,23.3984631 L218.79439,23.3984631 C218.79439,29.3080374 214.011361,34.0976947 208.109964,34.0976947 L198.465634,34.0976947 L198.465634,53 L186,53 L186,7.10741433 L186,2 Z" id="Fill-12" fill="#2669B2"></path>
                <path d="M226,2 C232.835205,2 238.376923,7.59676012 238.376923,14.4998546 L238.376923,42.3000623 L259,42.3000623 L259,53 L226.01678,53 L226,2 Z" id="Fill-14" fill="#2669B2"></path>
                <path d="M295.520102,27.6786525 L280,2 L285.002574,2 C290.642275,2 295.820341,5.12041704 298.46329,10.1113896 L299.720629,12.4854204 C301.429736,15.6948106 302.8527,19.0475465 302.8527,19.0475465 L302.995066,19.0475465 C302.995066,19.0475465 304.348256,15.7668365 306.127842,12.4854204 L307.43945,10.0393636 C310.09579,5.08864089 315.251302,2 320.861402,2 L326,2 L310.328369,27.6786525 L325.847766,53 L321.001655,53 C315.430318,53 310.303702,49.9537273 307.631856,45.0559648 L306.127842,42.3006203 C304.348256,39.0912301 302.995066,35.9524535 302.995066,35.9524535 L302.8527,35.9524535 C302.8527,35.9524535 301.49951,39.0912301 299.720629,42.3006203 L298.216615,45.0559648 C295.544064,49.9537273 290.417448,53 284.846111,53 L280.071888,53 L295.520102,27.6786525 Z" id="Fill-16" fill="#2669B2"></path>
                <path d="M147.949563,33.9997828 C144.69213,34.0274067 142.027926,31.4165981 142.000218,28.1690243 C141.97251,24.9207422 144.591245,22.2653105 147.849389,22.2376867 C164.15645,22.0988591 167.008214,8.48879781 167.280318,6.93832036 C167.791135,3.73041157 170.813408,1.56866777 174.028214,2.07298022 C177.245862,2.5829591 179.436904,5.61804171 178.926087,8.82595051 C177.551358,17.4530932 169.308665,33.818457 147.949563,33.9997828" id="Fill-18" fill="#00AAFF"></path>
                <path d="M173.196666,53.9997941 C170.404719,54.0235018 167.921111,51.9975677 167.403693,49.1059418 C167.100282,47.5038733 164.030267,33.79146 147.895264,33.9315512 C144.66756,33.9595694 142.027671,31.3114867 142.000216,28.0175476 C141.972761,24.7228901 144.567596,22.0295471 147.796004,22.0015289 C168.959468,21.8176143 177.402889,38.2715045 178.91009,46.9973897 C179.471154,50.2424765 177.34798,53.3366958 174.169553,53.9078368 C173.842911,53.966747 173.517676,53.9969204 173.196666,53.9997941" id="Fill-20" fill="#00AAFF"></path>
                <path d="M147.21876,53.9997818 C143.998185,54.0275324 141.365403,51.4047489 141.338015,48.1422796 L141.000226,7.958761 C140.972136,4.69558008 143.561378,2.02796881 146.781251,2.00021825 C150.001826,1.9724677 152.634608,4.59453959 152.661996,7.85772051 L152.999785,48.0412391 C153.027173,51.30442 150.438634,53.9720312 147.21876,53.9997818" id="Fill-22" fill="#00AAFF"></path>
                <mask id="mask-8" fill="white">
                    <use xlink:href="#path-7"></use>
                </mask>
                <g id="Clip-25"></g>
                <polygon id="Fill-24" fill="#2669B2" mask="url(#mask-8)" points="263 53 275 53 275 2 263 2"></polygon>
                <path d="M334.424512,4.82985033 L332.868543,4.82985033 L332.868543,6.90585558 L334.424512,6.90585558 C334.919719,6.90585558 335.462515,6.48168839 335.462515,5.89199255 C335.462515,5.25539692 334.919719,4.82985033 334.424512,4.82985033 Z M335.368025,9.87640527 L333.882406,7.61349059 L332.868543,7.61349059 L332.868543,9.87640527 L332.089868,9.87640527 L332.089868,4.14635492 L334.424512,4.14635492 C335.391475,4.14635492 336.264639,4.82985033 336.264639,5.89199255 C336.264639,7.16518381 335.131457,7.58935099 334.802469,7.58935099 L336.334989,9.87640527 L335.368025,9.87640527 Z M334.000345,2.70832471 C331.641561,2.70832471 329.731085,4.5946617 329.731085,6.99965515 C329.731085,9.33498862 331.641561,11.2689151 334.000345,11.2689151 C336.381888,11.2689151 338.292365,9.33498862 338.292365,6.99965515 C338.292365,4.5946617 336.381888,2.70832471 334.000345,2.70832471 Z M334.000345,12 C331.240844,12 329,9.7591558 329,6.99965515 C329,4.2173943 331.240844,2 334.000345,2 C336.783295,2 339,4.2173943 339,6.99965515 C339,9.7591558 336.783295,12 334.000345,12 Z" id="Fill-26" fill="#2669B2" mask="url(#mask-8)"></path>
            </g>
        </g>
    </g>
</svg>